<svg width="105" height="104" viewBox="0 0 105 104" fill="none" xmlns="http://www.w3.org/2000/svg">
<path d="M52.5157 99.5766C26.2908 99.5766 5.02437 78.4033 5.01572 52.2847C5.00708 26.166 26.2595 4.99265 52.4844 4.99265C78.7093 4.99265 99.9758 26.166 99.9844 52.2846C99.9931 78.4033 78.7406 99.5766 52.5157 99.5766Z" fill="#191919"/>
<path d="M52.4835 1.67666C24.4157 1.67675 1.67455 24.337 1.68372 52.2842C1.69297 80.2314 24.4492 102.892 52.517 102.892C80.5848 102.892 103.326 80.2314 103.317 52.2842C103.307 24.337 80.5513 1.67666 52.4835 1.67666Z" stroke="url(#paint0_linear_2050_1948)" stroke-width="1.4"/>
<path d="M85.2123 60.4423C80.7078 78.5074 62.4087 89.5016 44.3394 84.9967C26.2774 80.4927 15.2819 62.1947 19.7885 44.1306C24.2908 26.0634 42.5899 15.0681 60.654 19.572C78.7223 24.0759 89.7167 42.3761 85.2123 60.4423Z" fill="url(#paint1_linear_2050_1948)"/>
<path d="M67.3693 47.4807C68.0406 42.9937 64.6238 40.5815 59.9518 38.9724L61.4674 32.8941L57.7671 31.9721L56.2916 37.8901C55.3188 37.6478 54.3197 37.4191 53.3269 37.1926L54.813 31.2355L51.1148 30.3134L49.5982 36.3895C48.793 36.2062 48.0026 36.0249 47.2353 35.8342L47.2395 35.8152L42.1365 34.5412L41.1522 38.4929C41.1522 38.4929 43.8976 39.122 43.8396 39.161C45.3383 39.5351 45.6091 40.5267 45.5638 41.3128L43.8375 48.2373C43.9408 48.2637 44.0746 48.3016 44.2222 48.3606C44.0989 48.3301 43.9671 48.2963 43.8312 48.2637L41.4114 57.9638C41.228 58.4191 40.7632 59.1019 39.7157 58.8427C39.7525 58.8964 37.0261 58.1714 37.0261 58.1714L35.1891 62.4066L40.0044 63.6069C40.9002 63.8313 41.7781 64.0663 42.6424 64.2876L41.111 70.4354L44.8071 71.3575L46.3237 65.275C47.3333 65.549 48.3135 65.8019 49.2725 66.0401L47.7612 72.0941L51.4615 73.0162L52.9929 66.88C59.3026 68.0739 64.0474 67.5923 66.0445 61.886C67.6539 57.2915 65.9644 54.6412 62.6446 52.913C65.0623 52.3556 66.8834 50.7654 67.3693 47.4807ZM58.9148 59.3348C57.7713 63.9293 50.0345 61.4455 47.5262 60.8227L49.5581 52.678C52.0665 53.3039 60.1099 54.5432 58.9148 59.3348ZM60.0593 47.4143C59.016 51.5936 52.5765 49.4703 50.4877 48.9497L52.3299 41.5626C54.4188 42.0832 61.1459 43.0548 60.0593 47.4143Z" fill="#0A0A0A"/>
<defs>
<linearGradient id="paint0_linear_2050_1948" x1="107.622" y1="78.6393" x2="16.3032" y2="82.5641" gradientUnits="userSpaceOnUse">
<stop stop-color="#0A0A0A"/>
<stop offset="0.39423" stop-color="#B3B34A"/>
<stop offset="0.570311" stop-color="white"/>
<stop offset="0.725961" stop-color="#E3E35B"/>
<stop offset="1" stop-color="#0A0A0A"/>
</linearGradient>
<linearGradient id="paint1_linear_2050_1948" x1="68.0213" y1="21.3676" x2="31.3782" y2="82.9734" gradientUnits="userSpaceOnUse">
<stop stop-color="#FFFF66"/>
<stop offset="1" stop-color="#FFFFA8"/>
</linearGradient>
</defs>
</svg>
