<svg width="129" height="128" viewBox="0 0 129 128" fill="none" xmlns="http://www.w3.org/2000/svg">
<path d="M72.0319 97.3331C53.4851 101.42 35.1499 89.7838 31.0792 71.3432C27.0085 52.9025 38.7437 34.6403 57.2905 30.5535C75.8374 26.4667 94.1725 38.1028 98.2432 56.5435C102.314 74.9842 90.5787 93.2463 72.0319 97.3331Z" fill="url(#paint0_linear_2050_1950)"/>
<rect x="33.2053" y="43.847" width="52.7901" height="52.79" rx="26.395" transform="rotate(-12.4266 33.2053 43.847)" fill="white"/>
<path d="M58.9824 38.167C73.2191 35.0302 87.3016 44.0277 90.4386 58.2643C93.5754 72.5008 84.5786 86.583 70.3423 89.7203C56.1056 92.8573 42.0226 83.8606 38.8853 69.6241C35.7483 55.3873 44.7457 41.3041 58.9824 38.167ZM56.2387 45.2385C55.8778 44.5713 55.0738 44.2966 54.3879 44.5813L54.252 44.6453C45.8905 49.1619 41.1656 58.8182 43.3126 68.5636C45.4761 78.3818 53.9304 85.1869 63.5045 85.682L63.9615 85.7003L64.1118 85.6972C64.8529 85.6444 65.4492 85.0381 65.4724 84.2794C65.4953 83.5209 64.9369 82.8794 64.2004 82.7817L64.0505 82.7687L63.656 82.7527C55.3668 82.3241 48.0497 76.4288 46.1775 67.9323C44.3487 59.631 48.2793 51.3981 55.3087 47.4124L55.6457 47.2261C56.3579 46.8411 56.6235 45.9509 56.2387 45.2385ZM66.2139 43.5424L66.101 45.0043C74.1964 45.6266 81.2737 51.459 83.1108 59.794C84.9375 68.0838 81.0202 76.3061 74.0091 80.2984L73.6723 80.4856C72.9611 80.8718 72.6967 81.762 73.0824 82.4735C73.4444 83.1407 74.25 83.4145 74.9356 83.1282L75.0713 83.0633C83.4112 78.5384 88.1192 68.895 85.9747 59.1629C83.8518 49.5305 75.6742 42.7995 66.3258 42.0808L66.2139 43.5424ZM62.0909 51.4299C61.4584 51.5693 61.0588 52.1951 61.1979 52.8276L61.3179 53.3722C57.6003 54.4974 55.5044 57.2214 56.1976 60.3684C56.9233 63.6613 59.3341 64.8108 63.9951 64.9451L65.254 70.6587C63.5993 70.774 62.0805 70.4531 60.4823 69.8111C59.8686 69.5647 59.1563 69.8258 58.8899 70.431L58.4837 71.3555C58.2279 71.9381 58.4825 72.6237 59.0777 72.8486C61.2152 73.6563 63.5177 73.9558 65.8008 73.7162L66.1904 75.4843C66.3298 76.117 66.9554 76.5167 67.5881 76.3773L67.9286 76.3023C68.561 76.1626 68.961 75.5371 68.8216 74.9045L68.4383 73.165C72.2093 71.9977 74.3427 69.2963 73.6364 66.0906C72.9428 62.9439 70.5855 61.5994 65.743 61.505L64.5225 55.966C65.6273 55.9502 66.7383 56.1194 67.869 56.4816C68.5171 56.6888 69.2385 56.3791 69.464 55.7371L69.7796 54.8366C69.9817 54.2589 69.7073 53.6163 69.1275 53.4203C67.4714 52.8609 65.7088 52.6653 63.9622 52.8515L63.8292 52.2478C63.6896 51.6155 63.0638 51.2158 62.4314 51.3548L62.0909 51.4299ZM66.5071 64.9726C69.0141 65.1237 69.8223 65.7686 70.1115 67.0803C70.4198 68.4797 69.5427 69.6814 67.6694 70.2474L66.5071 64.9726ZM63.216 61.4188C60.7398 61.2621 59.993 60.6015 59.723 59.3766C59.4411 58.0957 60.2142 56.8554 62.0878 56.2895L63.216 61.4188ZM66.3258 42.0808C65.5188 42.019 64.8135 42.6229 64.7511 43.4298C64.689 44.2371 65.2938 44.942 66.101 45.0043L66.3258 42.0808Z" fill="#0A0A0A"/>
<defs>
<linearGradient id="paint0_linear_2050_1950" x1="42.4465" y1="36.7366" x2="92.1292" y2="89.9511" gradientUnits="userSpaceOnUse">
<stop stop-color="#FFFF66"/>
<stop offset="1" stop-color="#FFFFA8"/>
</linearGradient>
</defs>
</svg>
