<svg width="162" height="161" viewBox="0 0 162 161" fill="none" xmlns="http://www.w3.org/2000/svg">
<path d="M97.4723 144.326C62.1979 153.466 26.2275 132.451 17.1302 97.3876C8.03279 62.3242 29.2534 26.4902 64.5278 17.35C99.8022 8.20975 135.773 29.2246 144.87 64.2879C153.967 99.3513 132.747 135.185 97.4723 144.326Z" fill="url(#paint0_linear_2050_1946)"/>
<g clip-path="url(#clip0_2050_1946)">
<path d="M92.2592 124.289C116.257 118.071 130.67 93.5763 124.452 69.5787C118.233 45.5811 93.7387 31.1681 69.7411 37.3863C45.7434 43.6045 31.3304 68.0992 37.5486 92.0968C43.7668 116.094 68.2616 130.507 92.2592 124.289Z" fill="#0A0A0A"/>
<path d="M73.9083 47.8987L80.1501 71.9871L102.867 75.8092L73.9083 47.8987Z" fill="white" fill-opacity="0.602"/>
<path d="M73.9082 47.8987L62.1449 86.3611L80.15 71.9871L73.9082 47.8987Z" fill="white"/>
<path d="M86.5523 96.6947L90.7934 113.062L103.863 79.5968L86.5523 96.6947Z" fill="white" fill-opacity="0.602"/>
<path d="M90.7933 113.062L86.5515 96.692L63.1273 90.1522L90.7933 113.062Z" fill="white"/>
<path d="M85.5706 92.9062L102.867 75.8091L80.1515 71.9925L85.5706 92.9062Z" fill="white" fill-opacity="0.2"/>
<path d="M62.1449 86.361L85.5705 92.9063L80.1514 71.9925L62.1449 86.361Z" fill="white" fill-opacity="0.602"/>
</g>
<defs>
<linearGradient id="paint0_linear_2050_1946" x1="36.5" y1="30.2479" x2="135.469" y2="128.779" gradientUnits="userSpaceOnUse">
<stop stop-color="#FFFF66"/>
<stop offset="1" stop-color="#FFFFA8"/>
</linearGradient>
<clipPath id="clip0_2050_1946">
<rect width="89.773" height="89.773" fill="white" transform="translate(26.2896 48.6453) rotate(-14.5269)"/>
</clipPath>
</defs>
</svg>
