<svg width="58" height="59" viewBox="0 0 58 59" fill="none" xmlns="http://www.w3.org/2000/svg">
<path fill-rule="evenodd" clip-rule="evenodd" d="M19.6462 29.2565C22.3832 29.2565 24.6225 31.5344 24.6225 34.3186H29.1194C29.1194 29.0185 24.8564 24.682 19.6462 24.682C14.436 24.682 10.173 29.0185 10.173 34.3186H14.67C14.67 31.5344 16.9092 29.2565 19.6462 29.2565Z" fill="#DDDDDD"/>
<path fill-rule="evenodd" clip-rule="evenodd" d="M38.3543 29.7435C35.6174 29.7435 33.3781 27.4657 33.3781 24.6815H28.8811C28.8811 29.9816 33.1441 34.318 38.3543 34.318C43.5646 34.318 47.8275 29.9816 47.8275 24.6815H43.3306C43.3306 27.4657 41.0913 29.7435 38.3543 29.7435Z" fill="#DDDDDD"/>
<path d="M29 0C37.0083 0 44.2579 3.30196 49.5059 8.64051C54.754 13.9791 58 21.3542 58 29.5C58 37.6458 54.754 45.0209 49.5059 50.3595C44.2579 55.698 37.0077 59 29 59C20.9923 59 13.7421 55.698 8.49407 50.3595C3.246 45.0209 0 37.6458 0 29.5C0 21.3542 3.246 13.9791 8.49407 8.64051C13.7421 3.30196 20.9923 0 29 0ZM46.341 11.86C41.9029 7.34602 35.7725 4.55359 29 4.55359C22.2281 4.55359 16.0971 7.34602 11.659 11.86C7.22095 16.3746 4.47642 22.6108 4.47642 29.5C4.47642 36.3887 7.22149 42.6254 11.659 47.14C16.0971 51.6546 22.2276 54.4464 29 54.4464C35.7725 54.4464 41.9029 51.654 46.341 47.14C50.779 42.626 53.5236 36.3892 53.5236 29.5C53.5236 22.6108 50.7785 16.3746 46.341 11.86Z" fill="#DDDDDD"/>
</svg>
