<svg width="58" height="59" viewBox="0 0 58 59" fill="none" xmlns="http://www.w3.org/2000/svg">
<g opacity="0.7">
<path fill-rule="evenodd" clip-rule="evenodd" d="M38.3538 29.2565C35.6168 29.2565 33.3775 31.5344 33.3775 34.3186H28.8806C28.8806 29.0185 33.1436 24.682 38.3538 24.682C43.564 24.682 47.827 29.0185 47.827 34.3186H43.33C43.33 31.5344 41.0908 29.2565 38.3538 29.2565Z" fill="#DDDDDD"/>
<path fill-rule="evenodd" clip-rule="evenodd" d="M19.6457 29.7435C22.3826 29.7435 24.6219 27.4657 24.6219 24.6815H29.1189C29.1189 29.9816 24.8559 34.318 19.6457 34.318C14.4354 34.318 10.1725 29.9816 10.1725 24.6815H14.6694C14.6694 27.4657 16.9087 29.7435 19.6457 29.7435Z" fill="#DDDDDD"/>
<path d="M29 0C20.9917 0 13.7421 3.30196 8.49406 8.64051C3.246 13.9791 0 21.3542 0 29.5C0 37.6458 3.246 45.0209 8.49406 50.3595C13.7421 55.698 20.9923 59 29 59C37.0077 59 44.2579 55.698 49.5059 50.3595C54.754 45.0209 58 37.6458 58 29.5C58 21.3542 54.754 13.9791 49.5059 8.64051C44.2579 3.30196 37.0077 0 29 0ZM11.659 11.86C16.0971 7.34602 22.2275 4.55359 29 4.55359C35.7719 4.55359 41.9029 7.34602 46.341 11.86C50.7791 16.3746 53.5236 22.6108 53.5236 29.5C53.5236 36.3887 50.7785 42.6254 46.341 47.14C41.9029 51.6546 35.7724 54.4464 29 54.4464C22.2275 54.4464 16.0971 51.654 11.659 47.14C7.22095 42.626 4.47641 36.3892 4.47641 29.5C4.47641 22.6108 7.2215 16.3746 11.659 11.86Z" fill="#DDDDDD"/>
</g>
</svg>
