<svg width="24" height="24" viewBox="0 0 24 24" fill="none" xmlns="http://www.w3.org/2000/svg">
<path fill-rule="evenodd" clip-rule="evenodd" d="M8.12946 11.901C9.262 11.901 10.1886 12.8276 10.1886 13.9601H12.0494C12.0494 11.8041 10.2854 10.0401 8.12946 10.0401C5.9735 10.0401 4.20951 11.8041 4.20951 13.9601H6.07033C6.07033 12.8276 6.99692 11.901 8.12946 11.901Z" fill="#FFFF66"/>
<path fill-rule="evenodd" clip-rule="evenodd" d="M15.8708 12.0991C14.7382 12.0991 13.8116 11.1725 13.8116 10.0399H11.9508C11.9508 12.1959 13.7148 13.9599 15.8708 13.9599C18.0267 13.9599 19.7907 12.1959 19.7907 10.0399H17.9299C17.9299 11.1725 17.0033 12.0991 15.8708 12.0991Z" fill="#FFFF66"/>
<path d="M12 0C15.3138 0 18.3136 1.34317 20.4852 3.51478C22.6568 5.6864 24 8.68646 24 12C24 15.3135 22.6568 18.3136 20.4852 20.4852C18.3136 22.6568 15.3135 24 12 24C8.68646 24 5.6864 22.6568 3.51479 20.4852C1.34317 18.3136 0 15.3135 0 12C0 8.68646 1.34317 5.6864 3.51479 3.51478C5.6864 1.34317 8.68646 0 12 0ZM19.1756 4.82442C17.3391 2.98821 14.8024 1.85231 12 1.85231C9.19783 1.85231 6.66085 2.98821 4.82441 4.82442C2.98798 6.66086 1.85231 9.19761 1.85231 12C1.85231 14.8022 2.9882 17.3392 4.82441 19.1756C6.66085 21.012 9.19761 22.1477 12 22.1477C14.8024 22.1477 17.3391 21.0118 19.1756 19.1756C21.012 17.3394 22.1477 14.8024 22.1477 12C22.1477 9.19761 21.0118 6.66086 19.1756 4.82442Z" fill="#FFFF66"/>
</svg>
