<svg width="195" height="195" viewBox="0 0 195 195" fill="none" xmlns="http://www.w3.org/2000/svg">
<path d="M25.8195 90.8682C29.5858 51.3451 64.68 22.3456 104.205 26.096C143.729 29.8464 172.717 64.9264 168.951 104.45C165.185 143.973 130.09 172.972 90.5658 169.222C51.0411 165.471 22.0533 130.391 25.8195 90.8682Z" fill="url(#paint0_linear_2050_1949)"/>
<path d="M193.584 106.787C198.647 53.6598 159.681 6.50517 106.552 1.46383C53.4228 -3.57747 6.2492 35.4036 1.18655 88.5309C-3.87602 141.658 35.0894 188.813 88.2187 193.854C141.348 198.895 188.521 159.914 193.584 106.787Z" stroke="url(#paint1_linear_2050_1949)" stroke-width="1.4"/>
<rect x="47.23" y="36.938" width="111.378" height="111.378" rx="55.6892" transform="rotate(5.44345 47.23 36.938)" fill="white"/>
<path fill-rule="evenodd" clip-rule="evenodd" d="M92.1023 153.097C61.4832 150.179 39.0293 122.995 41.9471 92.3761C44.8649 61.757 72.0489 39.3031 102.668 42.2209C133.287 45.1387 155.741 72.3227 152.823 102.942C149.905 133.561 122.721 156.015 92.1023 153.097ZM104.773 90.6466L105.555 82.4487L124.313 84.2362L125.505 71.735L74.4289 66.8678L73.2377 79.3691L91.9965 81.1567L91.2156 89.3511C75.9035 88.5982 64.1503 90.527 63.8056 94.1444C63.4609 97.7617 74.6386 101.872 89.817 104.028L87.3136 130.299L100.872 131.591L103.376 105.313C118.664 106.064 130.389 104.136 130.733 100.522C131.078 96.9082 119.928 92.8004 104.773 90.6466ZM103.588 103.085L103.589 103.079C103.205 103.07 101.229 103.001 96.846 102.583C93.3465 102.249 90.8929 101.911 90.0306 101.787L90.0296 101.797C76.6146 99.9207 66.7831 96.6168 67.0505 93.8103C67.3177 91.0072 77.5963 89.6196 91.1252 90.3005L90.2522 99.4616C91.1263 99.6078 93.6345 99.9972 97.1202 100.329C101.302 100.728 103.415 100.754 103.81 100.757L104.683 91.5994C118.069 93.4799 127.876 96.7815 127.61 99.5811C127.342 102.388 117.089 103.771 103.588 103.085Z" fill="#0A0A0A"/>
<defs>
<linearGradient id="paint0_linear_2050_1949" x1="166.137" y1="70.946" x2="27.9721" y2="136.276" gradientUnits="userSpaceOnUse">
<stop stop-color="#FFFF66"/>
<stop offset="1" stop-color="#FFFFA8"/>
</linearGradient>
<linearGradient id="paint1_linear_2050_1949" x1="37.7355" y1="196.593" x2="46.7382" y2="24.1369" gradientUnits="userSpaceOnUse">
<stop stop-color="#0A0A0A"/>
<stop offset="0.39423" stop-color="#B3B34A"/>
<stop offset="0.570311" stop-color="white"/>
<stop offset="0.725961" stop-color="#E3E35B"/>
<stop offset="1" stop-color="#0A0A0A"/>
</linearGradient>
</defs>
</svg>
