<svg width="87" height="86" viewBox="0 0 87 86" fill="none" xmlns="http://www.w3.org/2000/svg">
<path d="M49.0146 79.7374C28.4647 82.8727 9.27221 68.8503 6.14695 48.4175C3.02168 27.9847 17.1471 8.87907 37.697 5.74381C58.2468 2.60855 77.4393 16.631 80.5646 37.0637C83.6898 57.4965 69.5644 76.6021 49.0146 79.7374Z" fill="#191919"/>
<g clip-path="url(#clip0_2050_1947)">
<path d="M48.1147 71.1232C64.0085 68.6983 74.9531 54.0176 72.5601 38.3329C70.1671 22.6482 55.3427 11.899 39.4489 14.3239C23.5551 16.7488 12.6105 31.4295 15.0035 47.1142C17.3965 62.7989 32.2209 73.5481 48.1147 71.1232Z" fill="url(#paint0_linear_2050_1947)"/>
<path d="M61.4078 31.4305C59.6035 30.5529 57.6747 29.618 55.785 28.6867C55.743 28.6645 55.701 28.6424 55.6496 28.6216C55.4396 28.5108 55.1998 28.3949 54.9228 28.3514L54.9025 28.345C50.1695 27.9523 45.3568 27.5432 40.7007 27.1483C36.4754 26.7925 32.2595 26.4352 28.0342 26.0794C27.9262 26.0673 27.8181 26.0552 27.7006 26.0446C27.317 25.9983 26.8754 25.9513 26.431 26.0763C26.3017 26.1151 26.1956 26.1789 26.1018 26.2599L26.0027 26.3703C25.849 26.5653 25.7873 26.7938 25.7586 26.9221L25.7417 27.0009L25.807 27.4292L25.8359 27.4915C29.4985 34.2217 33.2429 41.0442 36.8573 47.6484C39.6411 52.7309 42.5301 57.9975 45.3563 63.1688C45.5358 63.5226 45.9218 63.7114 46.3615 63.6824L46.4559 63.668C46.8616 63.6061 47.1903 63.3559 47.3213 63.0119L53.1534 51.1172C54.5753 48.2229 55.9957 45.3192 57.4176 42.4249C57.9996 41.2404 58.5802 40.0465 59.1623 38.862C60.119 36.9057 61.1049 34.8878 62.0885 32.9178L62.1403 32.8146L62.1233 32.7029C62.1018 32.3727 62.009 31.7008 61.4078 31.4305ZM53.2497 36.6865C51.6325 37.8574 49.9818 39.0621 48.3202 40.2589C49.1985 38.991 50.0848 37.7124 50.9631 36.4446C52.0616 34.8478 53.2095 33.1958 54.3334 31.5761L54.3575 31.5438C54.448 31.3775 54.5682 31.2163 54.6964 31.0443C54.7846 30.926 54.8822 30.8063 54.9675 30.6694C55.7382 31.0378 56.5197 31.414 57.2715 31.7852C57.8148 32.0549 58.3674 32.3231 58.9295 32.5899C57.0128 33.9495 55.1003 35.337 53.2497 36.6865ZM48.6713 36.9277C47.5422 38.5768 46.3717 40.2703 45.2077 41.9438C42.027 39.1324 38.7826 36.283 35.6402 33.5324C34.2137 32.2827 32.7763 31.0252 31.3498 29.7755L31.339 29.7676C31.0185 29.5021 30.7031 29.2072 30.3906 28.9309C30.1881 28.7426 29.9776 28.5651 29.7656 28.3783C30.9028 28.4907 32.0465 28.583 33.1699 28.6688C34.157 28.7469 35.1833 28.8285 36.1921 28.9224C41.865 29.4003 47.5473 29.8768 53.2202 30.3548C51.6918 32.5508 50.1582 34.7761 48.6713 36.9277ZM46.694 55.7996C46.6487 54.8061 46.6085 53.7832 46.5522 52.7818C46.5164 51.9773 46.4777 51.1543 46.4447 50.3685C46.3879 49.1099 46.3334 47.8034 46.2548 46.5291L46.249 46.3013C46.2212 45.4861 46.1891 44.643 46.1193 43.8056C46.2146 43.7339 46.3193 43.6608 46.4348 43.5955C46.5664 43.5088 46.6994 43.4313 46.8282 43.3259C48.8359 41.8667 50.8436 40.4075 52.8622 38.9561C54.8713 37.5062 56.9314 36.0104 58.974 34.5268C57.3952 37.7214 55.8112 40.9454 54.2819 44.0848C52.9637 46.7727 51.6097 49.5424 50.2595 52.2733C49.7307 53.364 49.1765 54.4776 48.6543 55.5482C48.0642 56.7434 47.4596 57.9695 46.8738 59.1928C46.7977 58.061 46.739 56.917 46.694 55.7996ZM29.4027 30.6823C29.2289 30.3659 29.0442 30.0415 28.8813 29.7329C31.892 32.3797 34.9244 35.0423 37.8766 37.6218C39.4036 38.9609 40.9293 40.2908 42.4578 41.6392C42.7566 41.889 43.0582 42.1574 43.349 42.418C43.728 42.7508 44.1099 43.1022 44.5173 43.4307C44.5504 44.4071 44.6038 45.3899 44.642 46.3368C44.6754 46.9987 44.7088 47.6606 44.7342 48.3332L44.7356 48.3425C44.7713 48.7658 44.7786 49.1935 44.7939 49.6104C44.8145 50.1885 44.8596 51.4965 44.8596 51.4965L44.8601 51.5631C44.9772 53.4699 45.0595 55.4011 45.1426 57.2749C45.1742 58.0514 45.218 58.8451 45.2524 59.6402C45.1839 59.5077 45.106 59.3767 45.0389 59.2535C44.8406 58.9027 44.6394 58.5332 44.449 58.1716L43.0175 55.5602C38.4792 47.2676 33.9424 38.9843 29.4027 30.6823Z" fill="#0A0A0A"/>
</g>
<defs>
<linearGradient id="paint0_linear_2050_1947" x1="53.0553" y1="14.665" x2="30.362" y2="71.5832" gradientUnits="userSpaceOnUse">
<stop stop-color="#FFFF66"/>
<stop offset="1" stop-color="#FFFFA8"/>
</linearGradient>
<clipPath id="clip0_2050_1947">
<rect width="59" height="59" fill="white" transform="translate(9.87872 18.0806) rotate(-8.67463)"/>
</clipPath>
</defs>
</svg>
