<svg width="98" height="98" viewBox="0 0 98 98" fill="none" xmlns="http://www.w3.org/2000/svg">
<rect width="98" height="98" rx="32" fill="white"/>
<path d="M76.5308 34.7915C75.5614 34.7915 74.7744 35.5735 74.7744 36.5323C74.7744 37.39 75.4032 38.1033 76.2295 38.2452V43.6903H66.3794C64.3922 41.0561 62.3966 40.626 60.9016 40.854C59.5119 39.0815 57.4163 36.9715 54.7415 35.9019V27.4191H58.9014C59.0446 28.1699 59.708 28.7381 60.5055 28.7381C61.4043 28.7381 62.1371 28.0125 62.1371 27.1204C62.1371 26.2296 61.4043 25.5027 60.5055 25.5027C59.708 25.5027 59.0446 26.0728 58.9014 26.8217H54.4401C54.2728 26.8217 54.1382 26.9558 54.1382 27.1204V35.6823C52.8079 35.2456 51.3444 35.0746 49.7632 35.3234V27.3906C50.5188 27.25 51.0934 26.5918 51.0934 25.802C51.0934 24.9106 50.3606 24.1844 49.4618 24.1844C48.5611 24.1844 47.8296 24.9106 47.8296 25.802C47.8296 26.5918 48.4035 27.25 49.1605 27.3906V35.4368C47.7505 35.7484 46.2523 36.3969 44.6731 37.484V24.0399C44.6731 23.8753 44.5378 23.7412 44.3717 23.7412H39.0934C38.9515 22.9923 38.2868 22.4222 37.4899 22.4222C36.5898 22.4222 35.8577 23.1485 35.8577 24.0399C35.8577 24.932 36.5892 25.6569 37.4899 25.6569C38.2868 25.6569 38.9509 25.0875 39.0934 24.3379H44.0704V37.3194C43.4023 37.0162 42.6454 36.7914 41.8153 36.7363C39.8444 36.6048 37.9148 37.4606 36.0813 39.2772C35.2302 40.1207 34.6687 40.9531 34.3948 41.7707C33.5712 41.9832 32.5293 42.3156 31.5181 42.806H25.1664V38.2445C25.9907 38.1013 26.6201 37.3894 26.6201 36.5316C26.6201 35.5728 25.8318 34.7909 24.8637 34.7909C23.8957 34.7909 23.1073 35.5728 23.1073 36.5316C23.1073 37.3894 23.7375 38.1026 24.5637 38.2445V43.1046C24.5637 43.2692 24.6977 43.4026 24.865 43.4026H30.4473C29.4231 44.0628 28.5399 44.9225 28.1157 46.0394C27.8614 46.7131 27.7889 47.4348 27.8941 48.198H25.1376C24.9945 47.3804 24.2748 46.7559 23.4093 46.7559C22.4412 46.7559 21.6536 47.5378 21.6536 48.4966C21.6536 49.4561 22.4412 50.2374 23.4093 50.2374C24.2748 50.2374 24.9938 49.6135 25.1376 48.7953H28.0105C28.2295 49.6718 28.6726 50.6008 29.3348 51.5778C28.9943 52.1926 28.7132 52.9071 28.5792 53.7137H21.4666C21.2999 53.7137 21.1653 53.8472 21.1653 54.0117V59.7548C20.3397 59.8967 19.7102 60.61 19.7102 61.4684C19.7102 62.4272 20.4972 63.2091 21.4653 63.2091C22.4341 63.2091 23.2217 62.4278 23.2217 61.4684C23.2217 60.6106 22.5922 59.8974 21.768 59.7548V54.311H28.5099C28.3746 56.3044 29.1753 58.7889 32.0586 61.6459C34.421 63.9872 36.8402 65.1734 39.2509 65.1734H39.2777C40.8446 65.1669 42.1898 64.6597 43.2553 64.0326V70.5797H39.0947C38.9528 69.8314 38.2881 69.2613 37.4912 69.2613C36.5912 69.2613 35.859 69.9856 35.859 70.8783C35.859 71.7697 36.5905 72.496 37.4912 72.496C38.2881 72.496 38.9522 71.9259 39.0947 71.1776H43.5573C43.7233 71.1776 43.858 71.0435 43.858 70.8783V63.6458C44.4162 63.2603 44.8757 62.8587 45.2215 62.5198C45.4058 62.5224 45.5934 62.5237 45.7882 62.5237C46.5452 62.5237 47.3727 62.5043 48.2342 62.4538V70.6088C47.4786 70.75 46.9034 71.4076 46.9034 72.198C46.9034 73.0894 47.6361 73.8156 48.5356 73.8156C49.4357 73.8156 50.1671 73.0894 50.1671 72.198C50.1671 71.4083 49.5926 70.75 48.8369 70.6088V62.4123C50.3221 62.2983 51.8778 62.0845 53.3237 61.7042V73.9608C53.3237 74.1266 53.459 74.2588 53.6257 74.2588H58.9034C59.0465 75.0077 59.71 75.5778 60.5075 75.5778C61.4063 75.5778 62.139 74.8515 62.139 73.9608C62.139 73.068 61.4063 72.3424 60.5075 72.3424C59.71 72.3424 59.0465 72.9125 58.9034 73.6615H53.927V61.5345C55.5958 61.0311 57.0757 60.2848 58.0601 59.1938C58.6635 58.5259 59.0478 57.7621 59.2178 56.9115C61.3304 56.8868 64.5118 56.5869 66.7232 55.194H72.8323V59.7555C72.4781 59.8151 72.1512 59.9803 71.8924 60.2375C71.561 60.5666 71.3779 61.0032 71.3779 61.4684C71.3779 62.4272 72.1663 63.2072 73.135 63.2072C74.1024 63.2072 74.8914 62.4278 74.8914 61.4684C74.8914 60.6106 74.2606 59.8974 73.4357 59.7548V54.8954C73.4357 54.7302 73.301 54.5961 73.135 54.5961H67.5285C67.8991 54.2709 68.226 53.9035 68.4907 53.4837C69.1378 52.4563 69.3555 51.2247 69.1457 49.8007H72.8611C73.0049 50.6177 73.724 51.2416 74.5901 51.2416C75.5575 51.2416 76.3458 50.4609 76.3458 49.5014C76.3458 48.542 75.5581 47.7613 74.5901 47.7613C73.7246 47.7613 73.0049 48.3858 72.8611 49.2034H69.0365C68.8437 48.3327 68.5025 47.3959 68.0116 46.3963C67.6161 45.5872 67.2128 44.8888 66.8088 44.2863H76.5341C76.7007 44.2863 76.8354 44.1522 76.8354 43.9883V38.2439C77.6597 38.102 78.2898 37.3887 78.2898 36.531C78.2859 35.5728 77.4982 34.7915 76.5308 34.7915Z" fill="#FFFF66"/>
<path d="M76.5308 34.7915C75.5614 34.7915 74.7744 35.5735 74.7744 36.5323C74.7744 37.39 75.4032 38.1033 76.2295 38.2452V43.6903H66.3794C64.3922 41.0561 62.3966 40.626 60.9016 40.854C59.5119 39.0815 57.4163 36.9715 54.7415 35.9019V27.4191H58.9014C59.0446 28.1699 59.708 28.7381 60.5055 28.7381C61.4043 28.7381 62.1371 28.0125 62.1371 27.1204C62.1371 26.2296 61.4043 25.5027 60.5055 25.5027C59.708 25.5027 59.0446 26.0728 58.9014 26.8217H54.4401C54.2728 26.8217 54.1382 26.9558 54.1382 27.1204V35.6823C52.8079 35.2456 51.3444 35.0746 49.7632 35.3234V27.3906C50.5188 27.25 51.0934 26.5918 51.0934 25.802C51.0934 24.9106 50.3606 24.1844 49.4618 24.1844C48.5611 24.1844 47.8296 24.9106 47.8296 25.802C47.8296 26.5918 48.4035 27.25 49.1605 27.3906V35.4368C47.7505 35.7484 46.2523 36.3969 44.6731 37.484V24.0399C44.6731 23.8753 44.5378 23.7412 44.3717 23.7412H39.0934C38.9515 22.9923 38.2868 22.4222 37.4899 22.4222C36.5898 22.4222 35.8577 23.1485 35.8577 24.0399C35.8577 24.932 36.5892 25.6569 37.4899 25.6569C38.2868 25.6569 38.9509 25.0875 39.0934 24.3379H44.0704V37.3194C43.4023 37.0162 42.6454 36.7914 41.8153 36.7363C39.8444 36.6048 37.9148 37.4606 36.0813 39.2772C35.2302 40.1207 34.6687 40.9531 34.3948 41.7707C33.5712 41.9832 32.5293 42.3156 31.5181 42.806H25.1664V38.2445C25.9907 38.1013 26.6201 37.3894 26.6201 36.5316C26.6201 35.5728 25.8318 34.7909 24.8637 34.7909C23.8957 34.7909 23.1073 35.5728 23.1073 36.5316C23.1073 37.3894 23.7375 38.1026 24.5637 38.2445V43.1046C24.5637 43.2692 24.6977 43.4026 24.865 43.4026H30.4473C29.4231 44.0628 28.5399 44.9225 28.1157 46.0394C27.8614 46.7131 27.7889 47.4348 27.8941 48.198H25.1376C24.9945 47.3804 24.2748 46.7559 23.4093 46.7559C22.4412 46.7559 21.6536 47.5378 21.6536 48.4966C21.6536 49.4561 22.4412 50.2374 23.4093 50.2374C24.2748 50.2374 24.9938 49.6135 25.1376 48.7953H28.0105C28.2295 49.6718 28.6726 50.6008 29.3348 51.5778C28.9943 52.1926 28.7132 52.9071 28.5792 53.7137H21.4666C21.2999 53.7137 21.1653 53.8472 21.1653 54.0117V59.7548C20.3397 59.8967 19.7102 60.61 19.7102 61.4684C19.7102 62.4272 20.4972 63.2091 21.4653 63.2091C22.4341 63.2091 23.2217 62.4278 23.2217 61.4684C23.2217 60.6106 22.5922 59.8974 21.768 59.7548V54.311H28.5099C28.3746 56.3044 29.1753 58.7889 32.0586 61.6459C34.421 63.9872 36.8402 65.1734 39.2509 65.1734H39.2777C40.8446 65.1669 42.1898 64.6597 43.2553 64.0326V70.5797H39.0947C38.9528 69.8314 38.2881 69.2613 37.4912 69.2613C36.5912 69.2613 35.859 69.9856 35.859 70.8783C35.859 71.7697 36.5905 72.496 37.4912 72.496C38.2881 72.496 38.9522 71.9259 39.0947 71.1776H43.5573C43.7233 71.1776 43.858 71.0435 43.858 70.8783V63.6458C44.4162 63.2603 44.8757 62.8587 45.2215 62.5198C45.4058 62.5224 45.5934 62.5237 45.7882 62.5237C46.5452 62.5237 47.3727 62.5043 48.2342 62.4538V70.6088C47.4786 70.75 46.9034 71.4076 46.9034 72.198C46.9034 73.0894 47.6361 73.8156 48.5356 73.8156C49.4357 73.8156 50.1671 73.0894 50.1671 72.198C50.1671 71.4083 49.5926 70.75 48.8369 70.6088V62.4123C50.3221 62.2983 51.8778 62.0845 53.3237 61.7042V73.9608C53.3237 74.1266 53.459 74.2588 53.6257 74.2588H58.9034C59.0465 75.0077 59.71 75.5778 60.5075 75.5778C61.4063 75.5778 62.139 74.8515 62.139 73.9608C62.139 73.068 61.4063 72.3424 60.5075 72.3424C59.71 72.3424 59.0465 72.9125 58.9034 73.6615H53.927V61.5345C55.5958 61.0311 57.0757 60.2848 58.0601 59.1938C58.6635 58.5259 59.0478 57.7621 59.2178 56.9115C61.3304 56.8868 64.5118 56.5869 66.7232 55.194H72.8323V59.7555C72.4781 59.8151 72.1512 59.9803 71.8924 60.2375C71.561 60.5666 71.3779 61.0032 71.3779 61.4684C71.3779 62.4272 72.1663 63.2072 73.135 63.2072C74.1024 63.2072 74.8914 62.4278 74.8914 61.4684C74.8914 60.6106 74.2606 59.8974 73.4357 59.7548V54.8954C73.4357 54.7302 73.301 54.5961 73.135 54.5961H67.5285C67.8991 54.2709 68.226 53.9035 68.4907 53.4837C69.1378 52.4563 69.3555 51.2247 69.1457 49.8007H72.8611C73.0049 50.6177 73.724 51.2416 74.5901 51.2416C75.5575 51.2416 76.3458 50.4609 76.3458 49.5014C76.3458 48.542 75.5581 47.7613 74.5901 47.7613C73.7246 47.7613 73.0049 48.3858 72.8611 49.2034H69.0365C68.8437 48.3327 68.5025 47.3959 68.0116 46.3963C67.6161 45.5872 67.2128 44.8888 66.8088 44.2863H76.5341C76.7007 44.2863 76.8354 44.1522 76.8354 43.9883V38.2439C77.6597 38.102 78.2898 37.3887 78.2898 36.531C78.2859 35.5728 77.4982 34.7915 76.5308 34.7915ZM67.4664 46.6587C68.8058 49.3894 68.9783 51.581 67.9763 53.1676C66.2813 55.8568 61.5788 56.2753 59.2975 56.3128C59.3433 55.724 59.2962 55.0982 59.1518 54.4354C59.0387 53.9178 58.8615 53.4494 58.6203 53.0289C61.8965 51.456 63.0483 49.0868 63.0973 48.9825C63.1679 48.8348 63.1038 48.6566 62.9522 48.586C62.8032 48.5167 62.6234 48.5795 62.5528 48.7292C62.5397 48.7519 61.4148 51.0472 58.2831 52.5256C57.9255 52.063 57.4745 51.675 56.9313 51.3672C54.5192 49.9957 50.8659 50.468 48.6827 50.9435C47.5061 50.0696 46.1549 48.6664 46.1059 46.8122C46.1072 46.7947 46.1059 46.776 46.1046 46.7585C46.0948 46.2648 46.1844 45.7498 46.37 45.2276C46.4242 45.0721 46.3425 44.9017 46.185 44.848C46.0275 44.7929 45.8562 44.8745 45.8007 45.0307C45.649 45.4576 45.5555 45.8826 45.5189 46.2985C44.4907 45.7187 41.9015 44.0667 41.6074 41.9761C41.5845 41.8122 41.4309 41.6988 41.2675 41.7215C41.1021 41.7442 40.9877 41.8945 41.0106 42.0584C41.3779 44.6789 44.7156 46.5635 45.5085 46.9748C45.615 48.7862 46.7864 50.1778 47.9323 51.1172C47.3152 51.2726 46.9178 51.399 46.8563 51.4191C46.8504 51.421 46.8459 51.4229 46.8406 51.4249C46.7635 51.454 39.064 54.3512 36.0382 51.3543C35.9198 51.2364 35.7296 51.2364 35.6113 51.3543C35.4943 51.4702 35.4943 51.6607 35.6113 51.7754C36.7408 52.8935 38.3959 53.2861 40.0987 53.3127C40.3903 53.9418 41.3479 56.2507 40.4099 57.7822C39.8046 58.7708 38.4999 59.2716 36.5297 59.2716C36.3637 59.2716 36.229 59.4057 36.229 59.5709C36.229 59.7354 36.3637 59.8695 36.5297 59.8695C38.7247 59.8695 40.204 59.2716 40.925 58.0931C41.1178 57.7776 41.2439 57.4401 41.3198 57.0948C42.195 56.8285 46.3739 55.6819 49.3226 57.1324C49.3644 57.1538 49.4102 57.1648 49.4559 57.1648C49.5671 57.1648 49.673 57.1039 49.7266 56.9983C49.7998 56.8499 49.7396 56.6718 49.5893 56.5992C46.6439 55.1487 42.7265 56.066 41.4074 56.445C41.476 55.196 41.0302 53.9469 40.755 53.3075C43.79 53.1993 46.7844 52.0863 47.0478 51.9846C47.2877 51.9101 53.3538 50.0223 56.6306 51.8862C57.6503 52.466 58.3 53.3665 58.5615 54.5624C58.7171 55.2744 58.7498 55.9384 58.6628 56.5513C58.6609 56.5623 58.6589 56.5726 58.6583 56.585C58.5341 57.4181 58.1837 58.1599 57.6091 58.7954C53.8898 62.917 42.0833 61.7716 41.9649 61.7599C41.8002 61.7424 41.6518 61.861 41.6348 62.0262C41.6178 62.1894 41.7388 62.3365 41.9042 62.3527C42.0382 62.3663 42.9768 62.4583 44.3554 62.501C44.0795 62.7414 43.756 62.996 43.3899 63.2409C43.3899 63.2409 43.3867 63.2435 43.384 63.2441C42.3343 63.9457 40.9348 64.5703 39.2751 64.5767H39.2496C37.0049 64.5767 34.7282 63.4489 32.4835 61.2242C28.2399 57.0184 28.7629 53.7318 29.948 51.7164C30.9298 50.0534 32.4149 49.1192 32.4293 49.1095C32.5705 49.0227 32.6143 48.8387 32.526 48.6981C32.4378 48.5588 32.2528 48.5154 32.1116 48.6029C32.0501 48.6417 30.7193 49.4749 29.6806 51.0148C28.5066 49.1989 28.17 47.5968 28.6798 46.2493C29.5008 44.0881 32.3332 42.9595 34.236 42.4309C34.1726 42.8714 34.1942 43.3068 34.3046 43.7356C35.1256 46.9211 40.4739 48.507 40.7008 48.5737C40.7295 48.5809 40.757 48.586 40.7864 48.586C40.9165 48.586 41.0374 48.5012 41.076 48.3709C41.1217 48.2135 41.0295 48.047 40.8707 48.0004C40.8178 47.9848 35.6263 46.4475 34.8884 43.5873C34.5772 42.3797 35.1224 41.0698 36.5075 39.6976C38.2109 38.01 39.9811 37.2131 41.7701 37.3298C44.675 37.5196 46.6896 40.0857 46.7099 40.111C46.8099 40.2425 46.9988 40.2671 47.1315 40.1667C47.2642 40.0662 47.2897 39.8803 47.1884 39.7488C47.1367 39.6808 46.3844 38.72 45.1248 37.8979C52.151 33.1492 57.5091 37.5973 60.2512 40.9998C58.4092 41.5446 56.913 43.0891 56.0933 44.4282C56.0893 44.4353 56.0841 44.4437 56.0795 44.4509C51.7549 43.3903 51.3267 41.0892 51.3228 41.0536C51.2973 40.8916 51.1463 40.7789 50.9816 40.8015C50.8175 40.8255 50.7018 40.9765 50.726 41.1391C50.741 41.2505 51.1607 43.8082 55.7821 44.9918C55.535 45.4958 55.2978 46.1495 55.435 46.6108C55.4821 46.7701 55.6494 46.8595 55.8083 46.8129C55.9684 46.7662 56.0593 46.6004 56.0129 46.443C55.9436 46.2065 56.0992 45.5723 56.6097 44.7398C57.3928 43.4584 58.9687 41.8355 60.833 41.4721C63.2757 40.9998 65.5708 42.793 67.4664 46.6587Z" fill="#0A0A0A"/>
</svg>
