<svg width="98" height="98" viewBox="0 0 98 98" fill="none" xmlns="http://www.w3.org/2000/svg">
<rect width="98" height="98" rx="32" fill="#0A0A0A"/>
<path d="M70.7352 27.9489C65.1135 22.3258 57.6392 19.2306 49.68 19.2306C41.7304 19.2306 34.2562 22.3258 28.6351 27.9489C28.507 28.0756 28.507 28.2832 28.6351 28.41L31.4035 31.1777C31.5295 31.3058 31.7371 31.3058 31.8639 31.1777C36.6162 26.426 42.945 23.809 49.6862 23.809C56.426 23.809 62.7533 26.4266 67.5057 31.1777C72.2588 35.9307 74.8765 42.2595 74.8765 49C74.8765 55.7405 72.2588 62.0685 67.5057 66.8209C62.754 71.574 56.426 74.1903 49.6862 74.1917H49.6834C42.945 74.1917 36.6162 71.574 31.8639 66.8209C31.7426 66.6976 31.5254 66.6976 31.4035 66.8209L28.6351 69.59C28.507 69.7174 28.507 69.923 28.6351 70.0511C34.2568 75.6728 41.7304 78.7694 49.6862 78.7694H49.6903C57.6399 78.7694 65.1141 75.6728 70.7359 70.0511C76.3611 64.4273 79.4562 56.9517 79.4556 49C79.4556 41.0483 76.3576 33.572 70.7352 27.9489Z" fill="#FFFF66"/>
<path d="M58.2297 63.7333C54.2864 66.0078 49.6861 66.6113 45.2748 65.4309C40.8643 64.2485 37.182 61.426 34.9062 57.4827C34.8151 57.3265 34.6164 57.273 34.4595 57.3635L31.0697 59.3194C30.9129 59.4098 30.8594 59.6105 30.9492 59.766C33.8354 64.7644 38.5035 68.3419 44.0931 69.8394C45.964 70.3395 47.8603 70.5882 49.7443 70.5882C53.493 70.5882 57.1863 69.6065 60.5137 67.6869C70.8475 61.7213 74.401 48.4588 68.4346 38.1251C65.5477 33.1274 60.8802 29.5486 55.29 28.051C49.7011 26.5541 43.8704 27.3173 38.8714 30.2029C35.2871 32.2725 32.3885 35.3053 30.4915 38.9739V38.9746C30.408 39.1349 30.4703 39.3322 30.6299 39.4144L34.104 41.2189C34.1142 41.2244 34.1245 41.2271 34.1348 41.2306C34.1464 41.2354 34.1567 41.2401 34.1684 41.2429C34.18 41.247 34.1937 41.2477 34.2054 41.249C34.217 41.2518 34.2273 41.2532 34.2396 41.2545C34.243 41.2545 34.2485 41.2552 34.2533 41.2552C34.2602 41.2552 34.265 41.2525 34.2718 41.2525C34.2889 41.2518 34.3047 41.2504 34.3211 41.2463C34.3307 41.2436 34.3383 41.2422 34.3472 41.2395C34.3705 41.2326 34.3931 41.2237 34.4143 41.2121C34.4218 41.2079 34.4273 41.2025 34.4349 41.1977C34.4506 41.1867 34.465 41.1764 34.478 41.1634C34.4849 41.1566 34.491 41.1497 34.4965 41.1442C34.5129 41.1257 34.5273 41.1066 34.5404 41.0826C34.5404 41.0826 34.5417 41.0805 34.5431 41.0791C34.5431 41.0791 34.5431 41.0791 34.5431 41.0778C35.2919 39.6309 36.238 38.3087 37.3499 37.1447C38.4631 35.9808 39.7415 34.9744 41.1555 34.1592C49.3093 29.4506 59.7711 32.2553 64.479 40.4085C66.7548 44.3504 67.3583 48.9521 66.1766 53.3619C64.9941 57.7731 62.1716 61.4547 58.2297 63.7333Z" fill="#FFFF66"/>
<path d="M45.1098 54.5457C44.9297 54.5457 44.7838 54.6916 44.7838 54.8718C44.7838 55.0526 44.929 55.1986 45.1098 55.1986H47.3446V57.3093C47.3446 57.4888 47.4905 57.6361 47.6714 57.6361C47.8515 57.6361 47.9975 57.4888 47.9975 57.3093V55.1986H49.593V57.3086C49.593 57.4888 49.7396 57.6347 49.9191 57.6347C50.1 57.6347 50.2466 57.4888 50.2466 57.3086V55.1986H51.7318H51.7325C51.7524 55.1986 51.7729 55.1958 51.7914 55.1924C51.7928 55.1924 51.7962 55.1917 51.7976 55.1917C51.7976 55.1917 51.7976 55.1917 51.7983 55.1917C51.9168 55.1684 54.5886 54.5936 54.5886 51.8424C54.5886 50.1304 53.5603 49.3322 52.7457 48.9678C53.5562 48.5492 54.5886 47.6812 54.5886 45.9713C54.5886 43.1508 51.7962 42.8076 51.7688 42.8041C51.7558 42.8035 51.7455 42.8028 51.7325 42.8028H50.2466V40.69C50.2466 40.5098 50.1 40.3639 49.9205 40.3639C49.7396 40.3639 49.593 40.5098 49.593 40.69V42.8028H47.9975V40.6927C47.9975 40.5126 47.8515 40.3659 47.6714 40.3659C47.4912 40.3659 47.3453 40.5119 47.3453 40.6927V42.8028H45.1105C44.931 42.8028 44.7844 42.9487 44.7844 43.1289C44.7844 43.309 44.9304 43.455 45.1105 43.455H47.3453V54.545H45.1098V54.5457ZM47.9968 43.455H51.7106C51.9305 43.4851 53.935 43.8167 53.935 45.9713C53.935 48.1156 51.9641 48.6157 51.6976 48.6732H47.9968V43.455ZM47.9968 49.3261H51.7113C51.9305 49.3548 53.935 49.6755 53.935 51.8417C53.935 53.9867 51.9641 54.4868 51.6976 54.545H47.9968V49.3261Z" fill="#FFFF66"/>
<path d="M20.6545 61.1478V55.6898H38.8578C38.8578 55.6898 38.8584 55.6898 38.8598 55.6898H39.0413C41.2706 59.2221 45.2077 61.5739 49.6854 61.5739C56.6191 61.5739 62.26 55.9337 62.26 49C62.26 42.0656 56.6191 36.4247 49.6854 36.4247C44.5206 36.4247 40.0751 39.5542 38.1405 44.0154H24.0587V39.45C24.8863 39.2972 25.5152 38.5711 25.5152 37.699C25.5152 36.7152 24.715 35.9164 23.7319 35.9164C22.7495 35.9164 21.9493 36.7152 21.9493 37.699C21.9493 38.5711 22.5776 39.2972 23.4051 39.45V44.3415C23.4051 44.521 23.5517 44.6676 23.7312 44.6676H37.8767C37.38 46.0179 37.1067 47.4785 37.1067 49C37.1067 49.1555 37.1108 49.3103 37.1176 49.4652H24.0265C23.873 48.6376 23.1462 48.0087 22.2747 48.0087C21.291 48.0087 20.4915 48.8082 20.4915 49.792C20.4915 50.7757 21.291 51.5759 22.2747 51.5759C23.1468 51.5759 23.873 50.9456 24.0265 50.1174H37.1581C37.315 51.8869 37.839 53.5537 38.655 55.0383H20.3264C20.1469 55.0383 20.0003 55.1856 20.0003 55.3644V61.1485C19.1727 61.3027 18.5445 62.0288 18.5445 62.8996C18.5445 63.884 19.344 64.6835 20.3271 64.6835C21.3108 64.6835 22.111 63.8833 22.111 62.8996C22.1131 62.0268 21.4842 61.3013 20.6545 61.1478ZM37.7616 48.9993C37.7616 42.4246 43.1107 37.0762 49.6861 37.0762C56.2601 37.0762 61.6092 42.4253 61.6092 48.9993C61.6092 55.5733 56.2594 60.9211 49.6861 60.9211C43.1107 60.9217 37.7616 55.574 37.7616 48.9993Z" fill="#FFFF66"/>
</svg>
