<svg width="98" height="98" viewBox="0 0 98 98" fill="none" xmlns="http://www.w3.org/2000/svg">
<rect width="98" height="98" rx="32" fill="white"/>
<path d="M23.3112 35.1443H72.001C73.6578 35.1443 75.001 36.4874 75.001 38.1443V67.3565C75.001 69.0134 73.6578 70.3565 72.001 70.3565H26.3112C24.6543 70.3565 23.3112 69.0134 23.3112 67.3565V35.1443Z" fill="#FFFF66"/>
<path d="M71.7201 34.5797H51.7025C51.0497 30.6523 48.6084 28.8817 46.6517 28.0872C44.5504 27.2367 42.6098 27.3056 42.446 27.3143H23.0788C22.9156 27.3143 22.7838 27.4461 22.7838 27.6093V38.0747C22.7838 38.0747 22.7838 38.0747 22.7838 38.076V67.1936C22.7838 69.1219 24.3518 70.6905 26.2788 70.6905H71.7194C73.6477 70.6905 75.2163 69.1219 75.2163 67.1936V38.0753C75.217 36.1483 73.6483 34.5797 71.7201 34.5797ZM74.6239 67.1942C74.6239 68.7973 73.3232 70.1011 71.7201 70.1011H26.2794C24.6769 70.1011 23.3744 68.7973 23.3744 67.1942V35.1709H71.7201C73.3232 35.1709 74.6239 36.4741 74.6239 38.0747V67.1942Z" fill="#0A0A0A"/>
<path d="M67.0412 63.9504V59.2606C67.0412 59.0955 66.9082 58.9625 66.7462 58.9625H58.5681C59.0898 57.7462 59.3872 56.4103 59.41 55.0099H63.7032C63.84 55.6848 64.4404 56.1948 65.1555 56.1948C65.9752 56.1948 66.6409 55.5315 66.6409 54.7155C66.6409 53.8958 65.9752 53.2288 65.1555 53.2288C64.438 53.2288 63.8393 53.7424 63.7032 54.4174H59.4131V50.5633H63.9681C64.1325 50.5633 64.2649 50.4315 64.2649 50.2683V46.3039C64.9399 46.1678 65.4535 45.568 65.4535 44.8505C65.4535 44.0326 64.7872 43.3662 63.9681 43.3662C63.1508 43.3662 62.485 44.0326 62.485 44.8505C62.485 45.5686 62.995 46.1678 63.6731 46.3039V49.9733H59.4137V49.7091C59.4137 48.6061 58.5146 47.71 57.4091 47.71H56.8529V46.3335C56.8529 44.1983 56.0215 42.1949 54.5219 40.6971C53.0136 39.1913 51.0114 38.3605 48.8774 38.3605C46.7533 38.3605 44.7499 39.1913 43.2398 40.6971C41.734 42.2041 40.9044 44.2051 40.9044 46.3335V47.71H40.3501C39.2483 47.71 38.351 48.6061 38.351 49.7091V49.9246H31.5506V45.5298C32.2287 45.3937 32.7405 44.7938 32.7405 44.0776C32.7405 43.6791 32.5859 43.3077 32.305 43.0269C32.0254 42.7479 31.6522 42.5927 31.2568 42.5927C30.4389 42.5927 29.7726 43.2597 29.7726 44.0776C29.7726 44.7938 30.2831 45.3937 30.9594 45.5298V50.2215C30.9594 50.3847 31.0924 50.5177 31.2556 50.5177H38.351V54.4741H34.298C34.1606 53.796 33.5608 53.2848 32.8433 53.2848C32.0248 53.2848 31.3603 53.9487 31.3603 54.7684C31.3603 55.5851 32.0254 56.2515 32.8433 56.2515C33.5608 56.2515 34.1606 55.7409 34.298 55.0628H38.3535C38.383 56.427 38.6737 57.7289 39.1757 58.9169H34.0313C33.8681 58.9169 33.7363 59.05 33.7363 59.2119V63.1763C33.0582 63.3124 32.5483 63.9135 32.5483 64.631C32.5483 65.4476 33.2134 66.114 34.0313 66.114C34.8498 66.114 35.5156 65.4476 35.5156 64.631C35.5156 63.9135 35.0056 63.3118 34.3275 63.1763V59.5094H39.4473C41.1711 62.9755 44.7499 65.3657 48.8762 65.3657C52.9896 65.3657 56.5573 62.9977 58.2922 59.5543H66.4482V63.9504C65.7732 64.0871 65.2595 64.6876 65.2595 65.4051C65.2595 66.2217 65.9265 66.8881 66.7426 66.8881C67.1515 66.8881 67.5229 66.7212 67.792 66.4515C68.0617 66.1842 68.2256 65.8134 68.2256 65.4051C68.2268 64.6876 67.7162 64.089 67.0412 63.9504ZM49.9669 56.3309C49.8462 56.3937 49.7852 56.5292 49.8179 56.6629L50.4947 59.3819C49.8326 59.7902 47.9272 59.7902 47.2645 59.3819L47.9475 56.6629C47.9801 56.5292 47.9198 56.3931 47.799 56.3278C47.0446 55.9306 46.5765 55.154 46.5765 54.3004C46.5765 53.0299 47.6075 51.9976 48.875 51.9976C50.1467 51.9976 51.1839 53.0305 51.1839 54.3004C51.1839 55.1534 50.7152 55.9306 49.9669 56.3309ZM44.4869 46.3329C44.4869 43.9094 46.4577 41.9374 48.8824 41.9374C51.3052 41.9374 53.2766 43.9101 53.2766 46.3329V47.7094H44.4869V46.3329Z" fill="#0A0A0A"/>
</svg>
