<svg width="98" height="98" viewBox="0 0 98 98" fill="none" xmlns="http://www.w3.org/2000/svg">
<rect width="98" height="98" rx="32" fill="white"/>
<rect x="36.1372" y="44.5955" width="27.2886" height="15.4801" fill="#FFFF66"/>
<path d="M77.1942 71.7762H53.3421C53.2084 69.593 51.4555 67.8413 49.2699 67.7098V60.4186H65.4718C66.8983 60.4186 68.0587 59.2593 68.0587 57.8349V36.7591C68.0587 35.3333 66.8983 34.174 65.4718 34.174H58.2874V32.2989H60.58C62.1388 32.2989 63.4089 30.8492 63.4089 29.0666C63.4089 28.9194 63.2882 28.7989 63.1408 28.7989H60.8475V24.8441C60.8475 23.0629 59.5774 21.6132 58.0179 21.6132H37.1203C35.5642 21.6159 34.2968 23.0615 34.2955 24.8386C34.2955 24.8414 34.2941 24.8427 34.2941 24.8441V28.9167H30.2129C30.0641 28.9167 29.9448 29.0372 29.9448 29.1844V57.8355C29.9448 59.2599 31.1058 60.4193 32.5323 60.4193H35.7679C35.7693 60.4193 35.7693 60.4193 35.7706 60.4193H48.7322V67.7105C46.5466 67.842 44.793 69.5944 44.6592 71.7769H20.8072C20.6598 71.7769 20.5391 71.8961 20.5391 72.0447C20.5391 72.1919 20.6598 72.3124 20.8072 72.3124H44.6592C44.7985 74.5819 46.6926 76.387 49.0003 76.387C51.3081 76.387 53.2015 74.5819 53.3408 72.3124H77.1928C77.3402 72.3124 77.4609 72.1919 77.4609 72.0447C77.4623 71.8954 77.3416 71.7762 77.1942 71.7762ZM45.0598 29.3323H62.861C62.7472 30.6951 61.7665 31.7621 60.58 31.7621H43.7986C44.5029 31.23 44.9877 30.3479 45.0598 29.3323ZM34.8304 34.1726V24.8468C34.8304 24.8455 34.8318 24.8441 34.8318 24.8427C34.8318 23.3574 35.8605 22.1466 37.1244 22.1466C38.389 22.1466 39.4177 23.3574 39.4177 24.8427V28.8961C39.4149 28.9523 39.4122 29.0084 39.4122 29.066C39.4122 30.8472 40.6816 32.2969 42.2418 32.2969H57.7511V34.1719H34.8304V34.1726ZM36.0813 59.8831C36.3344 56.6118 36.9968 53.9321 38.053 51.9147C39.5144 49.1234 41.7096 47.7086 44.5756 47.7086H53.4313C59.6446 47.7086 61.4887 54.2588 61.9269 59.8831H36.0813Z" fill="#0A0A0A"/>
</svg>
