<svg width="98" height="98" viewBox="0 0 98 98" fill="none" xmlns="http://www.w3.org/2000/svg">
<rect width="98" height="98" rx="32" fill="white"/>
<circle cx="49" cy="49" r="27.7884" stroke="#0A0A0A" stroke-width="0.617955"/>
<path d="M52.0124 51.9127H36.0939C35.961 51.9127 35.8314 51.8699 35.7231 51.7921L27.1422 45.541V69.6353C27.1422 72.8766 29.778 75.5117 33.0186 75.5117H52.0124C55.2524 75.5117 57.8889 72.8759 57.8889 69.6353V57.7891C57.8895 54.5485 55.2524 51.9127 52.0124 51.9127ZM43.1139 61.6054C43.4607 61.6054 43.742 61.8867 43.742 62.2335C43.742 62.5803 43.4607 62.8617 43.1139 62.8617H37.9155V65.2738H43.1139C43.4607 65.2738 43.742 65.5552 43.742 65.902C43.742 66.2488 43.4607 66.5301 43.1139 66.5301H37.9155V68.0153C37.9155 69.3345 38.9897 70.4074 40.3089 70.4074H43.545C43.5463 70.4074 43.5463 70.4074 43.5463 70.4074C44.3339 70.4074 44.9731 69.7669 44.9731 68.9793C44.9731 68.6324 45.2544 68.3511 45.6012 68.3511C45.948 68.3511 46.2294 68.6324 46.2294 68.9793C46.2294 70.4605 45.0262 71.6637 43.545 71.6637C43.545 71.6637 43.545 71.6637 43.5437 71.6637H40.3089C39.3028 71.6637 38.3907 71.254 37.7301 70.5934C37.0696 69.9328 36.6599 69.0208 36.6599 68.016V66.5308H33.8361C33.4893 66.5308 33.2079 66.2495 33.2079 65.9026C33.2079 65.5558 33.4893 65.2745 33.8361 65.2745H36.6599V62.8623H33.8361C33.4893 62.8623 33.2079 62.581 33.2079 62.2342C33.2079 61.8874 33.4893 61.606 33.8361 61.606H36.6599V60.1209C36.6599 58.11 38.2967 56.4725 40.3089 56.4725C40.3089 56.4725 40.3089 56.4725 40.3102 56.4725H43.545C45.0262 56.4725 46.2294 57.6757 46.2294 59.1569C46.2294 59.5037 45.948 59.7851 45.6012 59.7851C45.2544 59.7851 44.9731 59.5037 44.9731 59.1569C44.9731 58.3693 44.3326 57.7288 43.545 57.7288H40.3076C38.9884 57.7288 37.9155 58.8017 37.9155 60.1209V61.606H43.1139V61.6054Z" fill="#0A0A0A"/>
<path d="M43.1139 61.6054C43.4607 61.6054 43.742 61.8867 43.742 62.2335C43.742 62.5804 43.4607 62.8617 43.1139 62.8617H37.9155V65.2738H43.1139C43.4607 65.2738 43.742 65.5552 43.742 65.902C43.742 66.2488 43.4607 66.5302 43.1139 66.5302H37.9155V68.0153C37.9155 69.3345 38.9897 70.4074 40.3089 70.4074H43.545H43.5463C44.3339 70.4074 44.9731 69.7669 44.9731 68.9793C44.9731 68.6324 45.2544 68.3511 45.6012 68.3511C45.948 68.3511 46.2294 68.6324 46.2294 68.9793C46.2294 70.4605 45.0262 71.6637 43.545 71.6637H43.5437H40.3089C39.3028 71.6637 38.3907 71.254 37.7301 70.5934C37.0696 69.9328 36.6599 69.0208 36.6599 68.016V66.5308H33.8361C33.4893 66.5308 33.2079 66.2495 33.2079 65.9027C33.2079 65.5558 33.4893 65.2745 33.8361 65.2745H36.6599V62.8623H33.8361C33.4893 62.8623 33.2079 62.581 33.2079 62.2342C33.2079 61.8874 33.4893 61.606 33.8361 61.606H36.6599V60.1209C36.6599 58.11 38.2967 56.4725 40.3089 56.4725H40.3102H43.545C45.0262 56.4725 46.2294 57.6757 46.2294 59.1569C46.2294 59.5037 45.948 59.7851 45.6012 59.7851C45.2544 59.7851 44.9731 59.5037 44.9731 59.1569C44.9731 58.3693 44.3326 57.7288 43.545 57.7288H40.3076C38.9884 57.7288 37.9155 58.8017 37.9155 60.1209V61.606L43.1139 61.6054Z" fill="#FFFF66"/>
<path d="M64.9814 22.4877H45.9876C42.7477 22.4877 40.1112 25.1235 40.1112 28.3641V40.2103C40.1112 43.4515 42.7483 46.0867 45.9876 46.0867H61.9061C62.039 46.0867 62.1687 46.1295 62.2769 46.2073L70.8579 52.4584V28.3641C70.8579 25.1228 68.2221 22.4877 64.9814 22.4877Z" fill="#0A0A0A"/>
<path d="M51.9834 39.6484C51.8097 39.6484 51.6691 39.789 51.6691 39.9627C51.6691 40.137 51.8091 40.2777 51.9834 40.2777H54.1374V42.3122C54.1374 42.4852 54.278 42.6271 54.4524 42.6271C54.626 42.6271 54.7667 42.4852 54.7667 42.3122V40.2777H56.3046V42.3115C56.3046 42.4852 56.4459 42.6258 56.6189 42.6258C56.7933 42.6258 56.9346 42.4852 56.9346 42.3115V40.2777H58.3662H58.3669C58.386 40.2777 58.4058 40.275 58.4236 40.2717C58.425 40.2717 58.4283 40.2711 58.4296 40.2711C58.4296 40.2711 58.4296 40.2711 58.4302 40.2711C58.5445 40.2486 61.1198 39.6946 61.1198 37.0427C61.1198 35.3925 60.1286 34.6232 59.3435 34.2719C60.1247 33.8684 61.1198 33.0318 61.1198 31.3836C61.1198 28.665 58.4282 28.3342 58.4018 28.3309C58.3893 28.3302 58.3794 28.3296 58.3669 28.3296H56.9346V26.2931C56.9346 26.1194 56.7933 25.9788 56.6203 25.9788C56.4459 25.9788 56.3046 26.1194 56.3046 26.2931V28.3296H54.7667V26.2957C54.7667 26.122 54.626 25.9807 54.4524 25.9807C54.2787 25.9807 54.1381 26.1214 54.1381 26.2957V28.3296H51.9841C51.811 28.3296 51.6697 28.4702 51.6697 28.6439C51.6697 28.8175 51.8104 28.9582 51.9841 28.9582H54.1381V39.6477H51.9834V39.6484ZM54.766 28.9582H58.3457C58.5577 28.9872 60.4898 29.3068 60.4898 31.3836C60.4898 33.4505 58.59 33.9325 58.3332 33.988H54.766V28.9582ZM54.766 34.6173H58.3464C58.5577 34.645 60.4898 34.954 60.4898 37.042C60.4898 39.1095 58.59 39.5916 58.3332 39.6477H54.766V34.6173Z" fill="#FFFF66" stroke="#FFFF66" stroke-width="0.602396"/>
<circle cx="26.0991" cy="33.1403" r="2.08822" fill="#0A0A0A"/>
</svg>
