<svg width="98" height="98" viewBox="0 0 98 98" fill="none" xmlns="http://www.w3.org/2000/svg">
<rect width="98" height="98" rx="32" fill="#0A0A0A"/>
<path d="M60.844 57.9425C68.6467 57.9425 74.9945 51.5953 74.9945 43.7938C74.9945 35.9911 68.6467 29.6427 60.844 29.6427C59.6697 29.6427 58.5022 29.7891 57.3736 30.074C54.1527 24.6467 48.2332 21 41.4766 21C31.2918 21 23.0054 29.2858 23.0054 39.4713C23.0054 49.3334 30.7758 57.4155 40.5153 57.9181V69.7225H33.9673C33.8197 68.5952 32.8553 67.7211 31.6871 67.7211C30.4177 67.7211 29.3867 68.7532 29.3867 70.0214C29.3867 71.2909 30.4183 72.323 31.6871 72.323C32.8541 72.323 33.8191 71.4482 33.9673 70.3216H40.8148C40.9801 70.3216 41.1137 70.1886 41.1137 70.0214V57.9389C41.2345 57.9395 41.3552 57.9425 41.4766 57.9425H48.0032V69.7439C46.8753 69.8927 46.0017 70.8565 46.0017 72.0229C46.0017 73.2923 47.0339 74.3239 48.3021 74.3239C49.5721 74.3239 50.6025 73.2923 50.6025 72.0229C50.6025 70.8565 49.7289 69.8927 48.6028 69.7439V61.8515C48.6028 61.846 48.6016 61.8424 48.6016 61.8381V57.9431H55.6619V74.7002C55.6619 74.8656 55.7967 74.9998 55.9614 74.9998H64.035C64.1826 76.1259 65.1477 77 66.3134 77C67.5816 77 68.6138 75.9685 68.6138 74.6996C68.6138 74.0847 68.374 73.5077 67.9403 73.0727C67.5054 72.6384 66.9289 72.3993 66.3134 72.3993C65.1458 72.3993 64.1814 73.274 64.035 74.4013H56.2604V57.9437H60.844V57.9425ZM41.4766 57.3435C36.5495 57.3435 32.0806 55.3402 28.8451 52.1028C25.6095 48.8673 23.6044 44.3983 23.6044 39.4713C23.6044 29.6171 31.6225 21.599 41.4766 21.599C51.332 21.599 59.3501 29.6171 59.3501 39.4713C59.3501 49.323 51.3375 57.3392 41.4864 57.3429H41.4766V57.3435Z" fill="#FFFF66"/>
<circle cx="41.5668" cy="39.0766" r="18.5651" fill="white" stroke="#0A0A0A" stroke-width="0.6"/>
<path d="M38.3114 46.5364C39.3341 46.5364 40.1649 47.3682 40.1649 48.3909C40.1648 49.4134 39.334 50.2444 38.3114 50.2444C37.2889 50.2444 36.4581 49.4134 36.4579 48.3909C36.4579 47.3682 37.2888 46.5364 38.3114 46.5364ZM44.9355 46.5364C45.958 46.5365 46.789 47.3683 46.789 48.3909C46.7888 49.4133 45.9579 50.2442 44.9355 50.2444C43.9129 50.2444 43.0811 49.4134 43.081 48.3909C43.081 47.3682 43.9128 46.5364 44.9355 46.5364ZM32.9745 31.2786C33.2256 31.2787 33.4469 31.448 33.5116 31.6917L34.1386 34.0608H49.9892C50.1731 34.0609 50.3427 34.1499 50.4472 34.2991C50.5516 34.4483 50.5761 34.6402 50.5116 34.8118L47.3739 43.1926H47.371C47.2914 43.4089 47.0827 43.5529 46.8515 43.553H36.6523L36.873 44.387H47.0927C47.4012 44.387 47.6503 44.6361 47.6503 44.9446C47.6502 45.253 47.4011 45.5011 47.0927 45.5012H36.4452C36.1941 45.5012 35.973 45.3327 35.9081 45.0891L32.5487 32.3938H29.2421C28.9336 32.3938 28.6845 32.1447 28.6845 31.8362C28.6845 31.5276 28.9336 31.2786 29.2421 31.2786H32.9745Z" fill="#0A0A0A"/>
</svg>
