<svg width="98" height="98" viewBox="0 0 98 98" fill="none" xmlns="http://www.w3.org/2000/svg">
<rect width="98" height="98" rx="32" fill="#FFFF66"/>
<rect x="24.063" y="27.2274" width="50.601" height="31.6761" fill="white"/>
<path d="M75.0888 24.4716H22.9119C21.8294 24.4716 20.948 25.3518 20.948 26.4348V61.727C20.948 62.8095 21.8294 63.6909 22.9119 63.6909H41.2834L39.986 72.9242H37.9222C37.7553 72.9242 37.6201 73.0594 37.6201 73.2263C37.6201 73.3926 37.7553 73.5285 37.9222 73.5285H59.789C59.956 73.5285 60.0918 73.3926 60.0918 73.2263C60.0918 73.0594 59.956 72.9242 59.789 72.9242H58.0146L56.7178 63.6909H75.0888C76.1706 63.6909 77.052 62.8101 77.052 61.727V26.4348C77.052 25.3518 76.1706 24.4716 75.0888 24.4716ZM52.6238 60.6665C52.6238 60.8328 52.4879 60.9687 52.3216 60.9687H45.6784C45.5115 60.9687 45.3756 60.8328 45.3756 60.6665C45.3756 60.4996 45.5109 60.3644 45.6784 60.3644H52.3216C52.4879 60.3644 52.6238 60.499 52.6238 60.6665ZM24.4591 56.8588V27.8437H73.5403V56.8588H24.4591Z" fill="black"/>
<path d="M36.4536 38.383H28.243V34.2708C28.8838 34.1313 29.3651 33.5611 29.3651 32.8789C29.3651 32.0925 28.7267 31.4547 27.9409 31.4547C27.1545 31.4547 26.5155 32.0931 26.5155 32.8789C26.5155 33.5611 26.9979 34.1313 27.6388 34.2708V38.6852C27.6388 38.8521 27.774 38.9873 27.9409 38.9873H36.1521V42.6769H30.8331C30.6942 42.036 30.1222 41.5548 29.4412 41.5548C28.6548 41.5548 28.0158 42.1932 28.0158 42.9796C28.0158 43.7654 28.6554 44.4038 29.4412 44.4038C30.1216 44.4038 30.6942 43.9225 30.8331 43.2817H36.1521V46.875H30.5638C30.3969 46.875 30.2611 47.0109 30.2611 47.1778V50.9045C29.6203 51.044 29.1391 51.6141 29.1391 52.2964C29.1391 53.0821 29.7774 53.7217 30.5632 53.7217C31.349 53.7217 31.9874 53.0821 31.9874 52.2964C31.9874 51.6141 31.5062 51.0434 30.8654 50.9045V47.4799H36.4536C36.6205 47.4799 36.7563 47.3447 36.7563 47.1778V38.6858C36.7563 38.5183 36.6205 38.383 36.4536 38.383Z" fill="black"/>
<path d="M69.1259 31.4547C68.3407 31.4547 67.7005 32.0931 67.7005 32.8789C67.7005 33.5611 68.1817 34.1313 68.8225 34.2708V38.383H61.5464C61.3795 38.383 61.2443 38.5183 61.2443 38.6852V47.1772C61.2443 47.3441 61.3795 47.4793 61.5464 47.4793H66.2002V50.9039C65.5594 51.044 65.0782 51.6147 65.0782 52.2957C65.0782 53.0815 65.7178 53.7211 66.5035 53.7211C67.2887 53.7211 67.9283 53.0815 67.9283 52.2957C67.9283 51.6135 67.4459 51.0427 66.8051 50.9039V47.1772C66.8051 47.0103 66.6692 46.8744 66.5023 46.8744H61.8485V43.2811H66.2343C66.3738 43.9219 66.944 44.4031 67.6256 44.4031C68.412 44.4031 69.0503 43.7648 69.0503 42.979C69.0503 42.1926 68.412 41.5542 67.6256 41.5542C66.944 41.5542 66.3732 42.0354 66.2343 42.6762H61.8485V38.9867H69.1247C69.2916 38.9867 69.4274 38.8515 69.4274 38.6846V34.2701C70.0682 34.1325 70.5507 33.5605 70.5507 32.8783C70.5507 32.0925 69.9111 31.4547 69.1259 31.4547Z" fill="black"/>
<path d="M50.1346 37.5504C49.981 37.5576 49.8337 37.6138 49.7144 37.7108C49.5952 37.8079 49.5101 37.9406 49.4718 38.0896L47.1353 46.7168C47.1106 46.8083 47.1041 46.9037 47.1163 46.9977C47.1285 47.0916 47.159 47.1822 47.2062 47.2644C47.2534 47.3465 47.3164 47.4186 47.3914 47.4764C47.4664 47.5342 47.5521 47.5767 47.6436 47.6014C47.7351 47.6261 47.8305 47.6326 47.9245 47.6204C48.0184 47.6083 48.1091 47.5777 48.1912 47.5305C48.2733 47.4833 48.3454 47.4204 48.4032 47.3453C48.461 47.2703 48.5035 47.1846 48.5282 47.0931L50.8648 38.4659C50.8963 38.3557 50.901 38.2396 50.8785 38.1273C50.856 38.0149 50.807 37.9096 50.7356 37.82C50.6641 37.7304 50.5723 37.6592 50.4678 37.6123C50.3632 37.5654 50.249 37.5442 50.1346 37.5504ZM45.9446 38.449C45.7825 38.4518 45.6262 38.5092 45.5008 38.6119L41.1872 42.0269C41.1019 42.0942 41.033 42.1799 40.9856 42.2777C40.9382 42.3754 40.9136 42.4827 40.9136 42.5913C40.9136 42.7 40.9382 42.8072 40.9856 42.905C41.033 43.0028 41.1019 43.0885 41.1872 43.1558L45.5008 46.5708C45.5743 46.6351 45.6601 46.6837 45.7529 46.7138C45.8458 46.7438 45.9438 46.7547 46.041 46.7456C46.1382 46.7366 46.2326 46.7078 46.3183 46.6612C46.404 46.6145 46.4793 46.5508 46.5397 46.4741C46.6 46.3973 46.6441 46.3091 46.6692 46.2148C46.6943 46.1204 46.7 46.022 46.6858 45.9254C46.6716 45.8288 46.6379 45.7361 46.5868 45.653C46.5357 45.5699 46.4681 45.498 46.3883 45.4418L42.788 42.5942L46.3883 39.7409C46.5089 39.6494 46.5976 39.5222 46.6417 39.3774C46.6857 39.2326 46.683 39.0776 46.6338 38.9344C46.5847 38.7913 46.4916 38.6673 46.3678 38.5801C46.244 38.493 46.0959 38.4471 45.9446 38.449ZM52.0387 38.449C51.8887 38.4506 51.7431 38.499 51.622 38.5875C51.501 38.676 51.4106 38.8001 51.3636 38.9424C51.3165 39.0848 51.3152 39.2383 51.3597 39.3814C51.4042 39.5246 51.4923 39.6503 51.6118 39.7409L55.2121 42.5942L51.6118 45.4418C51.532 45.498 51.4644 45.5699 51.4133 45.653C51.3621 45.7361 51.3285 45.8288 51.3143 45.9254C51.3001 46.022 51.3058 46.1204 51.3309 46.2148C51.356 46.3091 51.4001 46.3973 51.4604 46.4741C51.5208 46.5508 51.5961 46.6145 51.6818 46.6612C51.7675 46.7078 51.8619 46.7366 51.9591 46.7456C52.0563 46.7547 52.1543 46.7438 52.2471 46.7138C52.34 46.6837 52.4258 46.6351 52.4992 46.5708L56.8129 43.1558C56.8982 43.0885 56.9671 43.0028 57.0145 42.905C57.0619 42.8072 57.0865 42.7 57.0865 42.5913C57.0865 42.4827 57.0619 42.3754 57.0145 42.2777C56.9671 42.1799 56.8982 42.0942 56.8129 42.0269L52.4992 38.6119C52.3694 38.5055 52.2065 38.4479 52.0387 38.449Z" fill="#0A0A0A"/>
</svg>
