<svg width="98" height="98" viewBox="0 0 98 98" fill="none" xmlns="http://www.w3.org/2000/svg">
<rect width="98" height="98" rx="32" fill="#0A0A0A"/>
<path d="M49 21.0273C35.3769 21.0273 24.2934 32.1109 24.2934 45.734V69.0246C24.2934 69.1981 24.434 69.3387 24.6075 69.3387C24.7809 69.3387 24.9216 69.1981 24.9216 69.0246V45.734C24.9216 32.4571 35.7232 21.6555 49 21.6555C62.2769 21.6555 73.0779 32.4565 73.0779 45.734V69.0246C73.0779 69.1981 73.2185 69.3387 73.3919 69.3387C73.5661 69.3387 73.7067 69.1981 73.7067 69.0246V45.734C73.706 32.1109 62.6231 21.0273 49 21.0273Z" fill="#FFFF66"/>
<path d="M49 24.5723C37.3303 24.5723 27.8376 34.065 27.8376 45.7346C27.8376 57.4036 37.3303 66.897 49 66.897C60.6696 66.897 70.163 57.4043 70.163 45.7346C70.163 34.0644 60.6696 24.5723 49 24.5723ZM63.2545 42.9349C63.4254 42.9046 63.5877 43.019 63.6179 43.1898C63.7611 44.0243 63.8341 44.8804 63.8341 45.734C63.8341 47.9858 63.3307 50.164 62.3898 52.1339C61.4482 54.1031 60.0704 55.8628 58.3153 57.2801C58.314 57.2801 58.314 57.2801 58.3127 57.2814L58.2141 57.3602C58.1964 57.374 58.1773 57.3872 58.1589 57.3957C58.1451 57.4122 58.1294 57.4273 58.1123 57.4411C58.0768 57.4687 58.0433 57.495 58.0078 57.5212C57.9513 57.5653 57.8849 57.5856 57.8186 57.5856C57.7226 57.5856 57.63 57.5442 57.5682 57.4621C57.4624 57.3254 57.4894 57.1277 57.6274 57.0225L57.7252 56.9456C57.741 56.9332 57.7607 56.922 57.7778 56.9128C57.7916 56.897 57.8067 56.8812 57.8232 56.8694L57.9204 56.7912C61.28 54.0768 63.2052 50.047 63.2052 45.734C63.2052 44.9166 63.1369 44.0959 62.9983 43.2969C62.968 43.1261 63.083 42.9638 63.2545 42.9349ZM42.238 29.1731C44.386 28.2959 46.6608 27.8511 49 27.8511C53.2394 27.8511 57.3501 29.3604 60.575 32.1017C60.5763 32.1017 60.5763 32.103 60.5776 32.103L60.6755 32.1871C60.6913 32.2022 60.7071 32.2173 60.7189 32.2344C60.7392 32.2449 60.757 32.2587 60.7728 32.2725L60.8707 32.3592C61.0014 32.4749 61.0126 32.6733 60.8969 32.8028C60.8352 32.8731 60.7484 32.9086 60.6624 32.9086C60.5881 32.9086 60.5139 32.8823 60.4554 32.8291L60.3595 32.7449C60.3437 32.7311 60.3279 32.716 60.3161 32.6983C60.2983 32.6884 60.2806 32.6753 60.2642 32.6615L60.1683 32.58H60.1669C57.0557 29.936 53.0889 28.4792 48.9993 28.4792C46.7423 28.4792 44.5476 28.9076 42.4765 29.7546C42.3156 29.8197 42.1322 29.7421 42.0665 29.5825C42.0008 29.4221 42.079 29.2388 42.238 29.1731ZM39.5703 34.2818C42.2157 32.101 45.5654 30.8999 49 30.8999C54.384 30.8999 59.3548 33.8258 61.9739 38.5351C61.9739 38.5364 61.9739 38.5364 61.9752 38.5371L62.037 38.6488C62.0468 38.6678 62.0554 38.6888 62.0619 38.7092C62.0757 38.7256 62.0869 38.7434 62.0987 38.7637C62.1184 38.8012 62.1395 38.8406 62.1592 38.8794C62.2394 39.0325 62.1802 39.2224 62.0258 39.3032C61.9798 39.3269 61.9299 39.3387 61.8812 39.3387C61.7669 39.3387 61.6572 39.2769 61.602 39.1705C61.5836 39.1337 61.5626 39.0975 61.5442 39.0607C61.5337 39.0404 61.5258 39.022 61.5205 39.0016C61.5067 38.9865 61.4955 38.9688 61.485 38.9497L61.4246 38.8406C58.9165 34.3298 54.1554 31.5287 49 31.5287C45.7113 31.5287 42.5035 32.6786 39.9698 34.7674C39.8351 34.8778 39.638 34.8594 39.5276 34.7247C39.4165 34.5913 39.4356 34.3922 39.5703 34.2818ZM49 34.6919C47.5544 34.6919 46.1496 34.9659 44.8236 35.5086C44.6626 35.5743 44.4793 35.4974 44.4136 35.3364C44.3479 35.1755 44.4248 34.9921 44.5857 34.9264C45.9866 34.3535 47.4729 34.063 48.9993 34.063C53.1947 34.063 57.0886 36.3332 59.1596 39.9853C59.1596 39.9866 59.1596 39.9866 59.1596 39.9866C59.1807 40.0234 59.201 40.0608 59.2214 40.097C59.2326 40.116 59.2411 40.1357 59.2477 40.1561C59.2602 40.1725 59.2727 40.1916 59.2832 40.21C59.3029 40.2481 59.3233 40.2855 59.343 40.323C59.4238 40.4761 59.3646 40.666 59.2115 40.7468C59.1649 40.7718 59.115 40.7836 59.0657 40.7836C58.952 40.7836 58.8429 40.7218 58.7864 40.6154L58.7299 40.507C58.7194 40.4892 58.7122 40.4702 58.7063 40.4518C58.6931 40.4367 58.682 40.4202 58.6721 40.4018L58.613 40.296C58.613 40.296 58.613 40.296 58.613 40.2947C56.6523 36.8385 52.9687 34.6919 49 34.6919ZM31.4712 42.168C32.3096 38.0298 34.6068 34.3042 37.944 31.6765C37.9454 31.6752 37.9467 31.6739 37.9493 31.6726L38.0525 31.5924C38.0702 31.5786 38.0886 31.5668 38.1077 31.557C38.1215 31.5405 38.1379 31.5254 38.1556 31.5129L38.2601 31.4334C38.3981 31.3276 38.5959 31.3566 38.6997 31.4952C38.8035 31.6338 38.7766 31.831 38.6379 31.9348L38.5374 32.0117C38.5196 32.0241 38.5019 32.0353 38.4828 32.0445C38.469 32.0609 38.4539 32.076 38.4368 32.0885L38.3409 32.1641C38.3396 32.1654 38.3383 32.1654 38.337 32.1667C35.1147 34.703 32.8964 38.2985 32.0882 42.2929C32.0586 42.4427 31.9259 42.5459 31.7807 42.5459C31.759 42.5459 31.7393 42.5432 31.7176 42.5393C31.5481 42.5051 31.437 42.3395 31.4712 42.168ZM36.7547 58.3367C36.693 58.3984 36.6141 58.4286 36.534 58.4286C36.4538 58.4286 36.3717 58.3971 36.3112 58.336C33.3215 55.326 31.4955 51.3441 31.1696 47.1276V47.125L31.1611 46.9956C31.1584 46.9726 31.1598 46.9515 31.1617 46.9299C31.1571 46.9082 31.1532 46.8872 31.1519 46.8642L31.1446 46.7334C31.1341 46.5599 31.2682 46.4114 31.441 46.4016C31.6144 46.3911 31.7616 46.5258 31.7715 46.6979L31.7794 46.8247C31.7807 46.8458 31.7794 46.8674 31.7767 46.8885C31.782 46.9075 31.7853 46.9292 31.7866 46.9502L31.7971 47.077C32.1099 51.145 33.8722 54.9862 36.756 57.8918C36.8789 58.0167 36.8783 58.2158 36.7547 58.3367ZM37.0682 38.0206L37.0011 38.1264C36.9887 38.1435 36.9762 38.1599 36.9624 38.175C36.9545 38.1954 36.9459 38.2144 36.9348 38.2315L36.8684 38.3386C35.5122 40.5589 34.7947 43.1169 34.7947 45.7333C34.7947 48.1974 35.436 50.6246 36.647 52.7522C36.7324 52.9027 36.6798 53.0952 36.5287 53.1806C36.4794 53.2082 36.4269 53.222 36.3743 53.222C36.2646 53.222 36.1581 53.1655 36.1003 53.0637C34.8348 50.8401 34.1665 48.3051 34.1665 45.7327C34.1665 43.0006 34.9156 40.3309 36.3316 38.0107C36.3316 38.0107 36.3316 38.0107 36.3329 38.0094C36.3329 38.0081 36.3329 38.0081 36.3329 38.0081L36.4012 37.8984C36.4137 37.88 36.4262 37.8622 36.4413 37.8458C36.4485 37.8254 36.4591 37.8064 36.4715 37.788L36.5418 37.6776C36.6365 37.5317 36.831 37.4903 36.9768 37.5843C37.1207 37.6802 37.1621 37.8754 37.0682 38.0206ZM38.2075 49.2934C38.178 49.3026 38.1471 49.3058 38.1175 49.3058C37.9828 49.3058 37.8573 49.2178 37.8166 49.0824C37.4926 48.0002 37.329 46.8747 37.329 45.7346C37.329 42.7055 38.4842 39.8348 40.5802 37.652C40.5815 37.6507 40.5829 37.6493 40.5829 37.6493L40.6696 37.56C40.6854 37.5436 40.7018 37.5298 40.7195 37.5186C40.7307 37.5008 40.7445 37.4831 40.7609 37.468L40.8516 37.3773C40.9758 37.2564 41.1749 37.259 41.2964 37.3819C41.4173 37.5061 41.4147 37.7052 41.2912 37.8268L41.2031 37.9122C41.1893 37.9273 41.1729 37.9398 41.1565 37.9509C41.1453 37.9674 41.1328 37.9838 41.119 37.9976L41.0336 38.0856C39.0492 40.1521 37.9572 42.8678 37.9572 45.7333C37.9572 46.8116 38.1116 47.8774 38.4184 48.9017C38.4677 49.068 38.3738 49.2428 38.2075 49.2934ZM40.617 52.9217C42.7197 55.3713 45.775 56.7761 49 56.7761C49.7162 56.7761 50.433 56.7071 51.1289 56.5711C51.2997 56.5382 51.4647 56.6486 51.4988 56.8182C51.5317 56.9897 51.4206 57.1539 51.2498 57.1881C50.5132 57.332 49.7569 57.4043 49 57.4043C45.5911 57.4043 42.3629 55.9199 40.1406 53.3311C40.113 53.2982 40.0841 53.2654 40.0565 53.2332C40.0427 53.2174 40.0316 53.1997 40.0211 53.1806C40.0046 53.1668 39.9895 53.1517 39.9744 53.1359L39.8936 53.0367C39.7858 52.9007 39.8068 52.7036 39.9415 52.5938C40.0776 52.4861 40.2747 52.5071 40.3838 52.6418L40.4606 52.7364C40.4731 52.7522 40.4849 52.7706 40.4948 52.7877C40.5112 52.8008 40.525 52.814 40.5388 52.8304C40.5638 52.8613 40.5907 52.8915 40.617 52.9217ZM52.445 63.2857C51.3175 63.5059 50.159 63.6169 49 63.6182C45.9393 63.6182 42.9194 62.831 40.2661 61.3428C40.2661 61.3428 40.2661 61.3428 40.2648 61.3428L40.1518 61.279C40.1314 61.2672 40.1137 61.2534 40.0973 61.2396C40.0769 61.2331 40.0572 61.2232 40.0368 61.212L39.9238 61.1463C39.774 61.0583 39.7241 60.8644 39.8121 60.7153C39.9015 60.5655 40.0933 60.5168 40.2431 60.6049L40.3522 60.6693C40.3713 60.6804 40.389 60.6929 40.4041 60.7067C40.4245 60.7133 40.4429 60.7205 40.4619 60.7317L40.5736 60.7948C43.1323 62.2305 46.0471 62.9894 48.9993 62.9894C50.1176 62.9881 51.236 62.8816 52.3241 62.6694C52.4936 62.6366 52.6599 62.7469 52.6921 62.9184C52.7262 63.088 52.6145 63.2529 52.445 63.2857ZM54.0121 59.7001C52.4075 60.2763 50.7202 60.5674 49 60.5674C45.3992 60.5674 41.9266 59.2618 39.2221 56.8885C39.2207 56.8885 39.2207 56.8872 39.2194 56.8872L39.1235 56.8031C39.1071 56.7879 39.0919 56.7715 39.0795 56.7544C39.0604 56.7426 39.0427 56.7301 39.0269 56.715C38.994 56.6861 38.9625 56.6559 38.9303 56.6269C38.8035 56.5087 38.7956 56.3103 38.9139 56.1815C39.0322 56.0547 39.2306 56.0474 39.3574 56.1657C39.3876 56.1933 39.4192 56.2222 39.4494 56.2498C39.4658 56.2636 39.4796 56.28 39.4921 56.2958C39.5098 56.3063 39.5263 56.3188 39.5427 56.3339L39.6367 56.416V56.4167C42.2255 58.6882 45.551 59.9386 49 59.9386C50.6479 59.9386 52.263 59.6594 53.7999 59.1074C53.9635 59.0496 54.1429 59.1337 54.202 59.2973C54.2598 59.4616 54.1757 59.6416 54.0121 59.7001ZM49 54.0466C44.4162 54.0466 40.6886 50.3177 40.6886 45.734C40.6886 41.1502 44.4162 37.4227 49 37.4227C53.5837 37.4227 57.3119 41.1502 57.3119 45.734C57.3119 50.3177 53.5831 54.0466 49 54.0466ZM55.5996 55.3608C55.5806 55.3739 55.5615 55.3838 55.5431 55.3923C55.528 55.4074 55.5116 55.4199 55.4938 55.4331C55.457 55.4567 55.4222 55.4804 55.3861 55.5047C55.3328 55.5382 55.2737 55.5559 55.2146 55.5559C55.1121 55.5559 55.0109 55.506 54.9511 55.4127C54.8565 55.2668 54.8972 55.0717 55.0431 54.9777C55.0772 54.9567 55.1101 54.9337 55.1436 54.9107C55.1607 54.8995 55.1791 54.8897 55.1975 54.8818C55.2113 54.868 55.2264 54.8542 55.2435 54.8424C55.2763 54.82 55.3105 54.7977 55.3427 54.774C58.2851 52.7055 60.0421 49.3256 60.0421 45.734C60.0421 45.3772 60.0257 45.0165 59.9915 44.6643C59.9744 44.4908 60.1012 44.3377 60.2747 44.3213C60.4455 44.3035 60.5999 44.4304 60.617 44.6038C60.6532 44.9757 60.6709 45.3568 60.6709 45.734C60.6709 47.6316 60.207 49.4727 59.3535 51.1141C58.5012 52.7555 57.2594 54.1945 55.7048 55.2885C55.6693 55.3122 55.6344 55.3371 55.5996 55.3608ZM65.5142 52.6083C63.8866 56.5139 60.9121 59.731 57.1405 61.6621C57.1391 61.6621 57.1391 61.6621 57.1391 61.6621C57.0997 61.6818 57.0616 61.7029 57.0222 61.7213C57.0025 61.7318 56.9814 61.739 56.9604 61.7436C56.944 61.7574 56.9249 61.7699 56.9052 61.7804L56.7883 61.8369C56.7442 61.8579 56.6963 61.8684 56.6509 61.8684C56.534 61.8684 56.4223 61.804 56.3677 61.6923C56.2915 61.5366 56.3566 61.348 56.5129 61.2712L56.6273 61.216C56.6457 61.2054 56.6667 61.1995 56.6864 61.193C56.7022 61.1805 56.7206 61.1693 56.7403 61.1588C56.7784 61.1404 56.8145 61.1213 56.8527 61.1023C56.8527 61.1023 56.8527 61.1023 56.854 61.101C60.4935 59.2375 63.3636 56.1355 64.9347 52.3665C65.0017 52.2055 65.185 52.1306 65.346 52.197C65.5057 52.264 65.5806 52.4486 65.5142 52.6083ZM66.7659 47.8011L66.7502 47.9293C66.7475 47.9523 66.7423 47.9733 66.7364 47.9937C66.7377 48.0147 66.7377 48.0377 66.7337 48.0587L66.7167 48.1895C66.6956 48.3465 66.5609 48.4608 66.4058 48.4608C66.3921 48.4608 66.3769 48.4595 66.3631 48.4582C66.191 48.4346 66.0707 48.2749 66.0944 48.104L66.1108 47.9785C66.1148 47.9569 66.1194 47.9358 66.1253 47.9168C66.124 47.8951 66.124 47.8741 66.1266 47.8524L66.1417 47.7269C66.1417 47.7269 66.1417 47.7269 66.1417 47.7256C66.2166 47.0685 66.256 46.3983 66.256 45.734C66.256 42.3067 65.2534 38.9964 63.3577 36.1598C63.2611 36.0152 63.2999 35.8201 63.4444 35.7235C63.5896 35.6269 63.7841 35.6656 63.8794 35.8102C65.8454 38.7513 66.8842 42.1818 66.8842 45.734C66.8842 46.4226 66.8441 47.1178 66.7659 47.7992C66.7659 47.8005 66.7659 47.8011 66.7659 47.8011Z" fill="#FFFF66"/>
<path d="M54.1606 41.7659L46.8914 49.0352L43.8386 45.983C43.7157 45.8602 43.5173 45.8602 43.3944 45.983C43.2715 46.1059 43.2715 46.305 43.3944 46.4272L46.6686 49.7008C46.7297 49.7625 46.8099 49.7934 46.8907 49.7934C46.9709 49.7934 47.0517 49.7625 47.1128 49.7008L54.6041 42.2095C54.727 42.0866 54.727 41.8882 54.6041 41.7653C54.4825 41.6431 54.2834 41.6431 54.1606 41.7659Z" fill="#FFFF66"/>
<path d="M32.3548 69.817H28.0779C27.2842 69.817 26.6376 70.4623 26.6376 71.2553V75.5336C26.6376 76.3267 27.2835 76.9726 28.0779 76.9726H32.3548C33.1492 76.9726 33.7951 76.3267 33.7951 75.5336V71.2553C33.7951 70.4623 33.1492 69.817 32.3548 69.817ZM33.1663 75.5336C33.1663 75.9804 32.8016 76.3444 32.3548 76.3444H28.0779C27.6305 76.3444 27.2665 75.9797 27.2665 75.5336V71.2553C27.2665 70.8079 27.6311 70.4452 28.0779 70.4452H32.3548C32.8023 70.4452 33.1663 70.8085 33.1663 71.2553V75.5336Z" fill="#FFFF66"/>
<path d="M41.7472 69.817H37.4703C36.6759 69.817 36.03 70.4623 36.03 71.2553V75.5336C36.03 76.3267 36.6759 76.9726 37.4703 76.9726H41.7472C42.541 76.9726 43.1875 76.3267 43.1875 75.5336V71.2553C43.1875 70.4623 42.541 69.817 41.7472 69.817ZM42.5587 75.5336C42.5587 75.9804 42.194 76.3444 41.7472 76.3444H37.4703C37.0229 76.3444 36.6582 75.9797 36.6582 75.5336V71.2553C36.6582 70.8079 37.0229 70.4452 37.4703 70.4452H41.7472C42.1947 70.4452 42.5587 70.8085 42.5587 71.2553V75.5336Z" fill="#FFFF66"/>
<path d="M51.1394 69.817H46.8612C46.0681 69.817 45.4222 70.4623 45.4222 71.2553V75.5336C45.4222 76.3267 46.0681 76.9726 46.8612 76.9726H51.1394C51.9325 76.9726 52.5777 76.3267 52.5777 75.5336V71.2553C52.5777 70.4623 51.9325 69.817 51.1394 69.817ZM51.9496 75.5336C51.9496 75.9804 51.5862 76.3444 51.1394 76.3444H46.8612C46.4137 76.3444 46.0503 75.9797 46.0503 75.5336V71.2553C46.0503 70.8079 46.4137 70.4452 46.8612 70.4452H51.1394C51.5869 70.4452 51.9496 70.8085 51.9496 71.2553V75.5336Z" fill="#FFFF66"/>
<path d="M60.5296 69.817H56.2527C55.4583 69.817 54.813 70.4623 54.813 71.2553V75.5336C54.813 76.3267 55.4583 76.9726 56.2527 76.9726H60.5296C61.324 76.9726 61.9699 76.3267 61.9699 75.5336V71.2553C61.9699 70.4623 61.324 69.817 60.5296 69.817ZM61.3417 75.5336C61.3417 75.9804 60.9771 76.3444 60.5296 76.3444H56.2527C55.8052 76.3444 55.4412 75.9797 55.4412 75.5336V71.2553C55.4412 70.8079 55.8059 70.4452 56.2527 70.4452H60.5296C60.9777 70.4452 61.3417 70.8085 61.3417 71.2553V75.5336Z" fill="#FFFF66"/>
<path d="M69.9218 69.817H65.6449C64.8505 69.817 64.2053 70.4623 64.2053 71.2553V75.5336C64.2053 76.3267 64.8505 76.9726 65.6449 76.9726H69.9218C70.7162 76.9726 71.3621 76.3267 71.3621 75.5336V71.2553C71.3621 70.4623 70.7162 69.817 69.9218 69.817ZM70.7333 75.5336C70.7333 75.9804 70.3693 76.3444 69.9218 76.3444H65.6449C65.1974 76.3444 64.8334 75.9797 64.8334 75.5336V71.2553C64.8334 70.8079 65.1981 70.4452 65.6449 70.4452H69.9218C70.3699 70.4452 70.7333 70.8085 70.7333 71.2553V75.5336Z" fill="#FFFF66"/>
<path d="M31.9252 73.1753H31.0703L31.6748 72.5715C31.7977 72.4486 31.7977 72.2501 31.6748 72.1266C31.552 72.0037 31.3529 72.0037 31.2307 72.1266L30.6268 72.7311V71.756C30.6268 71.5819 30.4862 71.4413 30.3121 71.4413C30.138 71.4413 29.998 71.5819 29.998 71.756V72.7311L29.3081 72.0412C29.1852 71.9183 28.9861 71.9183 28.8639 72.0412C28.741 72.1641 28.741 72.3625 28.8639 72.4854L29.5532 73.1753H28.5781C28.4046 73.1753 28.264 73.3166 28.264 73.49C28.264 73.6642 28.4046 73.8048 28.5781 73.8048H29.5538L28.8639 74.4947C28.741 74.6176 28.741 74.816 28.8639 74.9389C28.925 75.0007 29.0058 75.0315 29.086 75.0315C29.1668 75.0315 29.247 75.0007 29.3081 74.9389L29.998 74.2489V75.1045C29.998 75.2779 30.1386 75.4185 30.3121 75.4185C30.4855 75.4185 30.6268 75.2779 30.6268 75.1045V74.2496L31.2307 74.8535C31.2918 74.9152 31.3726 74.9461 31.4528 74.9461C31.5336 74.9461 31.6137 74.9152 31.6748 74.8535C31.7977 74.7306 31.7977 74.5322 31.6748 74.4093L31.0703 73.8048H31.9252C32.0987 73.8048 32.2393 73.6642 32.2393 73.49C32.2393 73.3166 32.0987 73.1753 31.9252 73.1753Z" fill="white"/>
<path d="M41.2819 73.1753H40.4271L41.0309 72.5715C41.1538 72.4486 41.1538 72.2501 41.0309 72.1266C40.9081 72.0037 40.7096 72.0037 40.5867 72.1266L39.9822 72.7311V71.756C39.9822 71.5819 39.8416 71.4413 39.6682 71.4413C39.4947 71.4413 39.3541 71.5819 39.3541 71.756V72.7311L38.6641 72.0412C38.5413 71.9183 38.3422 71.9183 38.22 72.0412C38.0977 72.1641 38.0971 72.3625 38.22 72.4854L38.9099 73.1753H37.9341C37.7607 73.1753 37.6201 73.3166 37.6201 73.49C37.6201 73.6642 37.7607 73.8048 37.9341 73.8048H38.9099L38.22 74.4947C38.0971 74.6176 38.0971 74.816 38.22 74.9389C38.2811 75.0007 38.3619 75.0315 38.4421 75.0315C38.5222 75.0315 38.603 75.0007 38.6641 74.9389L39.3541 74.2489V75.1045C39.3541 75.2779 39.4947 75.4185 39.6682 75.4185C39.8416 75.4185 39.9822 75.2779 39.9822 75.1045V74.2489L40.5867 74.8535C40.6485 74.9152 40.7287 74.9461 40.8088 74.9461C40.889 74.9461 40.9698 74.9152 41.0309 74.8535C41.1538 74.7306 41.1538 74.5322 41.0309 74.4093L40.4264 73.8048H41.2813C41.4547 73.8048 41.5954 73.6642 41.5954 73.49C41.596 73.3166 41.4554 73.1753 41.2819 73.1753Z" fill="white"/>
<path d="M50.6387 73.1753H49.7838L50.3883 72.5715C50.5112 72.4486 50.5112 72.2501 50.3883 72.1266C50.2648 72.0037 50.0664 72.0037 49.9435 72.1266L49.339 72.7318V71.756C49.339 71.5819 49.1984 71.4413 49.0242 71.4413C48.8508 71.4413 48.7102 71.5819 48.7102 71.756V72.7311L48.0209 72.0412C47.898 71.9183 47.6989 71.9183 47.5767 72.0412C47.4545 72.1641 47.4538 72.3625 47.5767 72.4854L48.2666 73.1753H47.2909C47.1174 73.1753 46.9768 73.3166 46.9768 73.49C46.9768 73.6642 47.1174 73.8048 47.2909 73.8048H48.2666L47.5767 74.4947C47.4538 74.6176 47.4538 74.816 47.5767 74.9389C47.6378 75.0007 47.7186 75.0315 47.7988 75.0315C47.879 75.0315 47.9598 75.0007 48.0209 74.9389L48.7102 74.2496V75.1045C48.7102 75.2779 48.8508 75.4185 49.0242 75.4185C49.1977 75.4185 49.339 75.2779 49.339 75.1045V74.2489L49.9435 74.8535C50.0053 74.9152 50.0854 74.9461 50.1656 74.9461C50.2464 74.9461 50.3266 74.9152 50.3883 74.8535C50.5112 74.7306 50.5112 74.5322 50.3883 74.4093L49.7832 73.8048H50.6387C50.8121 73.8048 50.9527 73.6642 50.9527 73.49C50.9521 73.3166 50.8121 73.1753 50.6387 73.1753Z" fill="white"/>
<path d="M59.9947 73.1753H59.1399L59.7444 72.5715C59.8673 72.4486 59.8673 72.2501 59.7444 72.1266C59.6215 72.0037 59.4231 72.0037 59.3002 72.1266L58.6957 72.7311V71.756C58.6957 71.5819 58.5551 71.4413 58.381 71.4413C58.2075 71.4413 58.0662 71.5819 58.0662 71.756V72.7311L57.3763 72.0412C57.2534 71.9183 57.055 71.9183 56.9321 72.0412C56.8086 72.1641 56.8086 72.3625 56.9321 72.4854L57.6221 73.1753H56.647C56.4728 73.1753 56.3322 73.3166 56.3322 73.49C56.3322 73.6642 56.4728 73.8048 56.647 73.8048H57.6221L56.9321 74.4947C56.8086 74.6176 56.8086 74.816 56.9321 74.9389C56.9932 75.0007 57.0741 75.0315 57.1542 75.0315C57.2344 75.0315 57.3145 75.0007 57.3763 74.9389L58.0662 74.2489V75.1045C58.0662 75.2779 58.2075 75.4185 58.381 75.4185C58.5551 75.4185 58.6957 75.2779 58.6957 75.1045V74.2489L59.3002 74.8535C59.3613 74.9152 59.4422 74.9461 59.5223 74.9461C59.6025 74.9461 59.6826 74.9152 59.7444 74.8535C59.8673 74.7306 59.8673 74.5322 59.7444 74.4093L59.1399 73.8048H59.9947C60.1689 73.8048 60.3095 73.6642 60.3095 73.49C60.3095 73.3166 60.1689 73.1753 59.9947 73.1753Z" fill="white"/>
<path d="M69.3515 73.1753H68.4966L69.1012 72.5715C69.224 72.4486 69.224 72.2501 69.1012 72.1266C68.9776 72.0037 68.7799 72.0037 68.6563 72.1266L68.0518 72.7311V71.756C68.0518 71.5819 67.9112 71.4413 67.7377 71.4413C67.5636 71.4413 67.423 71.5819 67.423 71.756V72.7311L66.7331 72.0412C66.6102 71.9183 66.4118 71.9183 66.2889 72.0412C66.1654 72.1641 66.1654 72.3625 66.2889 72.4854L66.9788 73.1753H66.0031C65.8296 73.1753 65.689 73.3166 65.689 73.49C65.689 73.6642 65.8296 73.8048 66.0031 73.8048H66.9788L66.2889 74.4947C66.1654 74.6176 66.1654 74.816 66.2889 74.9389C66.35 75.0007 66.4308 75.0315 66.511 75.0315C66.5911 75.0315 66.6713 75.0007 66.7331 74.9389L67.423 74.2489V75.1045C67.423 75.2779 67.5636 75.4185 67.7377 75.4185C67.9112 75.4185 68.0518 75.2779 68.0518 75.1045V74.2489L68.6563 74.8535C68.7181 74.9152 68.7982 74.9461 68.8791 74.9461C68.9592 74.9461 69.0394 74.9152 69.1012 74.8535C69.224 74.7306 69.224 74.5322 69.1012 74.4093L68.4966 73.8048H69.3515C69.5256 73.8048 69.6662 73.6642 69.6662 73.49C69.6662 73.3166 69.5256 73.1753 69.3515 73.1753Z" fill="white"/>
</svg>
