<svg width="98" height="98" viewBox="0 0 98 98" fill="none" xmlns="http://www.w3.org/2000/svg">
<rect width="98" height="98" rx="32" fill="#FFFF66"/>
<path d="M65.4089 61.4674C64.9831 62.4634 64.4622 63.4256 63.8592 64.3281C63.815 64.3941 63.8029 64.4767 63.8288 64.5524L65.527 69.6502C65.6533 70.0203 65.5586 70.4224 65.2792 70.7024C65.0009 70.9807 64.5918 71.0822 64.2201 70.9549L59.1189 69.2606C59.0431 69.236 58.9599 69.2474 58.8934 69.291C55.9656 71.244 52.5455 72.2768 49.002 72.2768C44.2325 72.2768 39.7486 70.4207 36.379 67.0505C34.9997 65.6718 33.8654 64.0952 33.0059 62.3636C32.1511 60.6406 31.5842 58.7978 31.322 56.8878C31.0638 55.0254 31.1 53.1418 31.4304 51.288C31.6473 50.0699 31.9921 48.8725 32.4557 47.7262C33.3536 45.5064 34.6755 43.5143 36.3842 41.8068C39.7521 38.4378 44.2313 36.5829 48.9945 36.5829C53.7612 36.5829 58.2439 38.4401 61.6158 41.812C61.6634 41.8585 61.7093 41.9072 61.7558 41.9537L61.7736 41.9715C61.7776 41.9767 61.7816 41.9807 61.7856 41.9858C64.0611 44.3221 65.6504 47.2282 66.3859 50.3924C66.8013 52.1848 66.9373 54.0276 66.7899 55.8682C66.6367 57.8063 66.1714 59.6911 65.4089 61.4674Z" fill="white"/>
<path d="M72.9605 67.5256V61.569C72.9605 61.4261 72.8452 61.3108 72.7023 61.3108H66.0337C66.6992 59.6618 67.1198 57.928 67.285 56.1465H68.9971C69.1233 56.9859 69.8456 57.6314 70.7183 57.6314C71.6799 57.6314 72.4608 56.8499 72.4608 55.8889C72.4608 54.9273 71.6799 54.1458 70.7183 54.1458C69.8451 54.1458 69.1221 54.7925 68.9971 55.6307H67.3246C67.4353 53.9376 67.3125 52.2456 66.9603 50.592H69.234C69.3763 50.592 69.4916 50.4762 69.4916 50.3339V45.2878C70.3299 45.1621 70.9765 44.4392 70.9765 43.566C70.9765 42.6049 70.1951 41.8235 69.234 41.8235C68.2724 41.8235 67.491 42.6049 67.491 43.566C67.491 44.4392 68.1376 45.1633 68.9758 45.2878V50.0757H66.8398C66.0733 46.9344 64.4857 44.0468 62.2332 41.7076C62.4122 37.2909 60.7282 32.9746 57.6025 29.8494C52.2987 24.5451 43.9433 23.6874 37.6894 27.7868L33.4133 26.3673C32.9199 26.1992 32.3811 26.3272 32.007 26.7018C31.6364 27.0725 31.5102 27.6095 31.6777 28.1006L33.1023 32.375C30.1412 36.8898 29.6971 42.7145 31.9376 47.6378C31.5079 48.7176 31.182 49.8433 30.964 50.9862H25.5576V45.2883C26.3958 45.1627 27.0419 44.4398 27.0419 43.5665C27.0419 42.6066 26.2604 41.8241 25.2994 41.8241C24.3384 41.8241 23.5563 42.6066 23.5563 43.5665C23.5563 44.4398 24.2024 45.1627 25.0406 45.2883V51.2438C25.0406 51.3867 25.1565 51.502 25.2988 51.502H30.8716C30.5962 53.2135 30.5629 54.9468 30.7735 56.6657H29.0041C28.879 55.8275 28.1561 55.1826 27.2828 55.1826C26.3218 55.1826 25.5398 55.9635 25.5398 56.9251C25.5398 57.8867 26.3212 58.6675 27.2828 58.6675C28.1561 58.6675 28.879 58.0215 29.0046 57.1821H30.8435C31.1068 58.932 31.6169 60.624 32.3645 62.2207H28.7677C28.6248 62.2207 28.5095 62.3367 28.5095 62.4789V67.5262C27.6713 67.6513 27.0246 68.3748 27.0246 69.2474C27.0246 70.2085 27.8061 70.991 28.7677 70.991C29.7293 70.991 30.5101 70.2085 30.5101 69.2474C30.5101 68.3748 29.8647 67.6513 29.0259 67.5262V62.7371H32.6175C33.4925 64.4618 34.6348 66.0362 36.0135 67.4155C39.4812 70.8832 44.0942 72.7932 49.002 72.7932C52.6051 72.7932 56.0849 71.7553 59.0747 69.7913L64.0554 71.4454C64.2143 71.4994 64.3796 71.5269 64.5465 71.5269C64.9585 71.5269 65.3475 71.364 65.6441 71.0673C66.0623 70.6485 66.2046 70.0415 66.0153 69.4861L64.3572 64.51C64.916 63.6603 65.4048 62.7583 65.8128 61.8277H72.443V67.5268C71.6047 67.6513 70.9581 68.3753 70.9581 69.2474C70.9581 70.209 71.7396 70.9899 72.7012 70.9899C73.6622 70.9899 74.4436 70.209 74.4436 69.2474C74.4454 68.3742 73.7988 67.6507 72.9605 67.5256ZM65.4088 61.4674C64.9831 62.4634 64.4622 63.4256 63.8592 64.3281C63.815 64.3941 63.8029 64.4767 63.8288 64.5524L65.527 69.6502C65.6533 70.0203 65.5586 70.4224 65.2792 70.7024C65.0009 70.9807 64.5918 71.0823 64.2201 70.9549L59.1189 69.2606C59.0431 69.236 58.9599 69.2474 58.8934 69.291C55.9656 71.2441 52.5455 72.2768 49.002 72.2768C44.2325 72.2768 39.7486 70.4207 36.379 67.0505C34.9997 65.6718 33.8654 64.0952 33.0059 62.3636C32.1511 60.6406 31.5842 58.7978 31.322 56.8878C31.0638 55.0254 31.1 53.1418 31.4304 51.288C31.6473 50.0699 31.9921 48.8725 32.4557 47.7262C33.3536 45.5064 34.6755 43.5143 36.3842 41.8068C39.7521 38.4378 44.2313 36.5829 48.9945 36.5829C53.7612 36.5829 58.2439 38.4401 61.6158 41.812C61.6634 41.8585 61.7093 41.9073 61.7558 41.9537L61.7736 41.9715C61.7776 41.9767 61.7816 41.9807 61.7856 41.9859C64.0611 44.3222 65.6504 47.2282 66.3859 50.3924C66.8013 52.1848 66.9373 54.0277 66.7899 55.8682C66.6367 57.8063 66.1714 59.6911 65.4088 61.4674Z" fill="#0A0A0A"/>
<path d="M39.0536 60.163C40.0285 60.822 41.2021 61.2071 42.4646 61.2071C45.4079 61.2071 47.5652 58.9845 48.5907 57.6592C48.7252 57.4877 48.8425 57.3272 48.9486 57.1792C49.1189 56.9385 49.2509 56.7337 49.3447 56.5807C49.4015 56.4881 49.4447 56.4141 49.4731 56.3635L50.0975 55.2491L50.3184 54.8542V54.853L50.3197 54.8517C50.3517 54.7937 50.664 54.2482 51.2008 53.588C51.202 53.5868 51.2033 53.5856 51.2045 53.5843C51.2057 53.5819 51.2082 53.5806 51.2094 53.5782C52.1091 52.4761 53.632 51.0606 55.53 51.0606C55.9484 51.0606 56.3519 51.1248 56.7308 51.2433C58.3758 51.7566 59.5729 53.2931 59.5729 55.1048C59.5729 57.3348 57.7588 59.1477 55.53 59.1477C53.7949 59.1477 52.3769 57.9679 51.4599 56.9226C51.1983 56.624 50.9762 56.3364 50.801 56.0909V56.0921L50.3678 56.8659C50.3567 56.8856 50.3431 56.9103 50.3271 56.9362C50.2098 57.1349 49.9828 57.5064 49.6483 57.9617V57.963C50.7504 59.297 52.8026 61.2075 55.5337 61.2075C58.8989 61.2075 61.6373 58.4691 61.6373 55.1038C61.6373 51.7386 58.8989 49.0002 55.5337 49.0002C52.5879 49.0002 50.4296 51.2228 49.4054 52.548C49.1783 52.8393 48.9932 53.1046 48.8488 53.323C48.6896 53.5637 48.581 53.7476 48.5255 53.8438L47.6789 55.353C47.6789 55.353 47.6777 55.3543 47.6777 55.3555C47.5888 55.5135 45.5106 59.1479 42.4687 59.1479C40.2388 59.1479 38.4246 57.3338 38.4246 55.105C38.4246 53.1551 39.8129 51.5224 41.653 51.1436C41.9159 51.0893 42.1886 51.0609 42.4663 51.0609C43.8151 51.0609 44.9715 51.7742 45.8527 52.5825C46.4277 53.1107 46.8868 53.6797 47.199 54.1165V54.1153L47.2003 54.1165L47.6235 53.3613L47.6347 53.3415C47.6445 53.3242 47.6569 53.302 47.6692 53.2811C47.6754 53.2712 47.6803 53.2613 47.6865 53.2502C47.8013 53.054 48.0148 52.7097 48.3183 52.2913C48.3294 52.2765 48.3393 52.2617 48.3504 52.2456C48.1912 52.0531 48.0111 51.8483 47.8136 51.6397C47.241 51.0338 46.5116 50.3908 45.6392 49.8898C44.7272 49.3665 43.6622 49 42.4689 49C41.2064 49 40.0328 49.385 39.0578 50.044C37.4326 51.1411 36.3626 52.9997 36.3626 55.1039C36.3626 57.2092 37.4326 59.0665 39.0578 60.1637L39.0536 60.163Z" fill="#0A0A0A"/>
</svg>
