<svg width="28" height="28" viewBox="0 0 28 28" fill="none" xmlns="http://www.w3.org/2000/svg">
<g clip-path="url(#clip0_2724_140)">
<path d="M22.656 0.210449C25.4173 0.210449 27.6558 2.44918 27.656 5.21045V22.6558C27.656 25.4172 25.4174 27.6558 22.656 27.6558H18.3747V18.1108H21.6872L22.3103 13.8237H18.3747V10.6411L18.3757 10.6401C18.3757 9.87964 18.9924 9.26239 19.7526 9.26221H22.3112V5.5542H18.3962C18.3891 5.5542 18.3828 5.55611 18.3757 5.55615V5.5542C15.9596 5.5542 14.0019 7.51345 14.0017 9.9292V13.8237H10.3718V18.1108H14.0017V27.6558H5.21065C2.44933 27.6556 0.210648 25.4171 0.210648 22.6558V5.21045C0.210826 2.44925 2.44944 0.210574 5.21065 0.210449H22.656Z" fill="#B4B4B4"/>
</g>
<defs>
<clipPath id="clip0_2724_140">
<rect width="27.8671" height="27.8671" fill="white"/>
</clipPath>
</defs>
</svg>
