<svg width="28" height="28" viewBox="0 0 28 28" fill="none" xmlns="http://www.w3.org/2000/svg">
<g clip-path="url(#clip0_2724_136)">
<path d="M18.4074 0.210449C21.6879 0.216149 21.816 0.243747 22.4572 0.336426C23.7801 0.527293 24.8901 1.05535 25.798 1.92236C26.3067 2.41183 26.6572 2.89079 26.9728 3.53174C27.3574 4.31497 27.5464 5.05668 27.6329 6.15869C27.6515 6.39861 27.6603 10.1598 27.6603 13.9233C27.6603 17.6863 27.6525 21.4542 27.6339 21.6938C27.5484 22.7782 27.36 23.5261 26.9874 24.2944C26.2465 25.8229 24.8839 26.9375 23.2394 27.3618C22.6432 27.5159 22.1036 27.5886 21.1749 27.6323C20.8422 27.6492 17.3768 27.6528 13.9113 27.6528C10.4462 27.6528 6.9829 27.6432 6.64076 27.6284C5.83855 27.5904 5.21337 27.5094 4.6476 27.3638C3.01374 26.9416 1.62678 25.8104 0.900528 24.3032C0.520534 23.5158 0.34123 22.7951 0.246231 21.6509C0.218817 21.3247 0.212051 19.6492 0.212051 13.9263C0.212051 11.9978 0.209942 10.5599 0.212051 9.46729C0.21754 6.1891 0.245141 6.05731 0.338028 5.41553C0.529145 4.09378 1.05621 2.9815 1.9269 2.07764C2.40504 1.58195 2.88974 1.2284 3.50404 0.92334C4.30119 0.526445 5.03325 0.341398 6.20912 0.243652C6.53544 0.216647 8.21208 0.210449 13.9406 0.210449H18.4074ZM13.9318 3.80029C11.182 3.8003 10.8364 3.81167 9.756 3.86084C8.67724 3.91024 7.94034 4.08095 7.29604 4.33154C6.62963 4.59036 6.06431 4.93706 5.50111 5.50049C4.93754 6.06369 4.59181 6.62919 4.33217 7.29541C4.08097 7.93988 3.90906 8.67619 3.86049 9.75439C3.81215 10.8353 3.79994 11.1812 3.79994 13.9331C3.79994 16.6852 3.81249 17.0299 3.86147 18.1108C3.91109 19.1894 4.08184 19.9256 4.33217 20.5698C4.59113 21.2361 4.93696 21.8016 5.50014 22.3647C6.06316 22.9284 6.62902 23.2758 7.29506 23.5347C7.93978 23.7853 8.67647 23.956 9.75502 24.0054C10.8358 24.0546 11.1811 24.0669 13.9328 24.0669C16.6849 24.0669 17.0296 24.0546 18.1105 24.0054C19.1889 23.956 19.9259 23.7852 20.5704 23.5347C21.2367 23.2758 21.8014 22.9284 22.3644 22.3647C22.928 21.8015 23.2747 21.236 23.5343 20.5698C23.7833 19.9254 23.9544 19.1889 24.005 18.1108C24.0536 17.0299 24.0665 16.6852 24.0665 13.9331C24.0665 11.1816 24.0536 10.8359 24.005 9.75537C23.9544 8.67661 23.7834 7.93972 23.5343 7.29541C23.2747 6.62892 22.9281 6.06374 22.3644 5.50049C21.8008 4.93687 21.2375 4.59015 20.5704 4.33154C19.9245 4.08095 19.1873 3.91024 18.1085 3.86084C17.0279 3.81166 16.6836 3.8003 13.9318 3.80029ZM13.0246 5.62549C13.2943 5.62507 13.5956 5.62549 13.9337 5.62549C16.6392 5.62549 16.9602 5.63553 18.0285 5.68408C19.0164 5.72926 19.5531 5.89401 19.9103 6.03271C20.3831 6.21638 20.7199 6.43686 21.0744 6.7915C21.4289 7.14612 21.6491 7.48372 21.8331 7.95654C21.9718 8.31332 22.1368 8.84963 22.1818 9.8374C22.2303 10.9056 22.2404 11.2268 22.2404 13.9312C22.2404 16.6354 22.2303 16.9567 22.1818 18.0249C22.1366 19.0126 21.9718 19.549 21.8331 19.9058C21.6495 20.3786 21.429 20.7154 21.0744 21.0698C20.7198 21.4243 20.3832 21.644 19.9103 21.8276C19.5535 21.967 19.0164 22.1311 18.0285 22.1763C16.9604 22.2248 16.6392 22.2358 13.9337 22.2358C11.2282 22.2358 10.9072 22.2248 9.839 22.1763C8.85169 22.1307 8.31551 21.9663 7.95815 21.8276C7.48531 21.644 7.14676 21.4244 6.79213 21.0698C6.43752 20.7152 6.21839 20.3778 6.03432 19.9048C5.89563 19.548 5.72969 19.0118 5.68471 18.0239C5.63615 16.9557 5.62709 16.6343 5.62709 13.9282C5.62709 11.2224 5.63615 10.9027 5.68471 9.83447C5.72991 8.84677 5.89564 8.31077 6.03432 7.95361C6.21792 7.48087 6.43768 7.14312 6.79213 6.78857C7.14679 6.4339 7.48526 6.21388 7.95815 6.02979C8.3153 5.8905 8.85157 5.72557 9.839 5.68018C10.7737 5.63796 11.1363 5.62565 13.0246 5.62354V5.62549ZM13.9337 8.729C11.0601 8.72913 8.73071 11.0594 8.73061 13.9331C8.73061 16.8069 11.06 19.1361 13.9337 19.1362C16.8075 19.1362 19.1369 16.807 19.1369 13.9331C19.1368 11.0593 16.8075 8.729 13.9337 8.729ZM13.9337 10.5552C15.799 10.5552 17.3116 12.0676 17.3117 13.9331C17.3117 15.7985 15.7991 17.311 13.9337 17.311C12.0683 17.3109 10.5558 15.7984 10.5558 13.9331C10.5559 12.0676 12.0683 10.5553 13.9337 10.5552ZM19.2189 7.31494C18.6059 7.37707 18.1272 7.89436 18.1271 8.52393C18.1271 9.19525 18.6716 9.73972 19.3429 9.73975C20.0142 9.73975 20.5587 9.19527 20.5587 8.52393C20.5586 7.85267 20.0142 7.30811 19.3429 7.30811L19.2189 7.31494Z" fill="#B4B4B4"/>
</g>
<defs>
<clipPath id="clip0_2724_136">
<rect width="27.8671" height="27.8671" fill="white"/>
</clipPath>
</defs>
</svg>
