<svg width="28" height="28" viewBox="0 0 28 28" fill="none" xmlns="http://www.w3.org/2000/svg">
<g clip-path="url(#clip0_2724_155)">
<path fill-rule="evenodd" clip-rule="evenodd" d="M3.09634 27.8661H24.7707C26.4808 27.8661 27.8671 26.4798 27.8671 24.7698V3.09537C27.8671 1.3853 26.4808 -0.000976563 24.7707 -0.000976562H3.09634C1.38628 -0.000976562 0 1.3853 0 3.09537V24.7698C0 26.4798 1.38628 27.8661 3.09634 27.8661ZM23.9966 23.9951H19.8613V16.9518C19.8613 15.0207 19.1276 13.9415 17.5991 13.9415C15.9363 13.9415 15.0676 15.0646 15.0676 16.9518V23.9951H11.0823V10.5777H15.0676V12.385C15.0676 12.385 16.2659 10.1677 19.1131 10.1677C21.9591 10.1677 23.9966 11.9057 23.9966 15.5V23.9951ZM6.32789 8.82074C4.97041 8.82074 3.87042 7.71211 3.87042 6.34483C3.87042 4.97754 4.97041 3.86891 6.32789 3.86891C7.68536 3.86891 8.7847 4.97754 8.7847 6.34483C8.7847 7.71211 7.68536 8.82074 6.32789 8.82074ZM4.27006 23.9951H8.42568V10.5777H4.27006V23.9951Z" fill="#B4B4B4"/>
</g>
<defs>
<clipPath id="clip0_2724_155">
<rect width="27.8671" height="27.8671" fill="white"/>
</clipPath>
</defs>
</svg>
