<svg width="28" height="28" viewBox="0 0 28 28" fill="none" xmlns="http://www.w3.org/2000/svg">
<g clip-path="url(#clip0_2724_144)">
<path d="M22.6559 0.210449C25.4173 0.210449 27.6558 2.44918 27.6559 5.21045V22.6558C27.6559 25.4172 25.4174 27.6558 22.6559 27.6558H5.21063C2.44932 27.6556 0.210632 25.4171 0.210632 22.6558V5.21045C0.210811 2.44926 2.44943 0.210579 5.21063 0.210449H22.6559ZM22.4557 6.6958C22.2018 6.59941 21.7731 6.74201 21.7624 6.74561C21.7059 6.7659 6.31572 12.2979 5.43524 12.9116C5.24518 13.0435 5.18164 13.1203 5.15009 13.2104C4.99852 13.6436 5.46276 13.8374 5.47235 13.8413L9.4538 15.1382C9.52071 15.1498 9.58996 15.1461 9.65497 15.1265C10.5613 14.5541 18.7628 9.3747 19.239 9.19873C19.3133 9.1762 19.3686 9.20109 19.3542 9.25244C19.1642 9.9177 12.0378 16.2524 12.0378 16.2524C12.0358 16.2547 12.0149 16.2798 11.9987 16.312L11.9831 16.3022C11.9599 16.261 11.613 20.27 11.613 20.27C11.6096 20.2976 11.4719 21.4648 12.6667 20.27C13.5185 19.418 14.3473 18.7051 14.7614 18.3569C16.1291 19.3013 17.6018 20.3447 18.237 20.8911C18.3434 20.9944 18.4698 21.0759 18.6081 21.1294C18.7463 21.1828 18.8945 21.2074 19.0427 21.2026C19.6363 21.18 19.8089 20.5381 19.8141 20.5181C19.8141 20.5181 22.6292 9.19015 22.7233 7.67236C22.7327 7.52384 22.7446 7.42886 22.7458 7.32666C22.7506 7.20856 22.7394 7.08998 22.7116 6.9751C22.6974 6.91017 22.6657 6.85025 22.6208 6.80127C22.5759 6.75239 22.5192 6.71548 22.4557 6.6958Z" fill="#B4B4B4"/>
</g>
<defs>
<clipPath id="clip0_2724_144">
<rect width="27.8671" height="27.8671" fill="white"/>
</clipPath>
</defs>
</svg>
