<svg width="28" height="28" viewBox="0 0 28 28" fill="none" xmlns="http://www.w3.org/2000/svg">
<g clip-path="url(#clip0_2724_150)">
<path d="M22.656 0.210449C25.4173 0.210449 27.6558 2.44918 27.656 5.21045V22.6558C27.656 25.4172 25.4174 27.6558 22.656 27.6558H5.21066C2.44934 27.6556 0.210663 25.4171 0.210663 22.6558V5.21045C0.210842 2.44925 2.44945 0.210567 5.21066 0.210449H22.656ZM11.6189 14.9351L3.55441 23.6499H5.36984L12.4314 16.02L18.1355 23.6499H24.3132L15.8474 12.3286L23.3542 4.21631H21.5388L15.0368 11.2427L9.78293 4.21631H3.60422L11.6189 14.9351ZM21.6413 22.312H18.8044L6.27316 5.55322H9.11008L21.6413 22.312Z" fill="#B4B4B4"/>
</g>
<defs>
<clipPath id="clip0_2724_150">
<rect width="27.8671" height="27.8671" fill="white"/>
</clipPath>
</defs>
</svg>
