<svg width="98" height="98" viewBox="0 0 98 98" fill="none" xmlns="http://www.w3.org/2000/svg">
<rect width="98" height="98" rx="32" fill="#0A0A0A"/>
<path d="M70.7352 27.949C65.1135 22.3259 57.6392 19.2307 49.68 19.2307C41.7304 19.2307 34.2562 22.3259 28.6351 27.949C28.507 28.0758 28.507 28.2833 28.6351 28.4101L31.4035 31.1778C31.5295 31.3059 31.7371 31.3059 31.8639 31.1778C36.6162 26.4261 42.945 23.8091 49.6862 23.8091C56.426 23.8091 62.7533 26.4268 67.5057 31.1778C72.2588 35.9309 74.8765 42.2596 74.8765 49.0001C74.8765 55.7406 72.2588 62.0687 67.5057 66.8211C62.754 71.5741 56.426 74.1904 49.6862 74.1918H49.6834C42.945 74.1918 36.6162 71.5741 31.8639 66.8211C31.7426 66.6977 31.5254 66.6977 31.4035 66.8211L28.6351 69.5901C28.507 69.7176 28.507 69.9231 28.6351 70.0512C34.2568 75.6729 41.7304 78.7695 49.6862 78.7695H49.6903C57.6399 78.7695 65.1141 75.6729 70.7359 70.0512C76.3611 64.4274 79.4562 56.9518 79.4556 49.0001C79.4556 41.0484 76.3576 33.5721 70.7352 27.949Z" fill="#FFFF66"/>
<path d="M58.2297 63.7334C54.2864 66.0079 49.6861 66.6114 45.2748 65.4311C40.8643 64.2486 37.182 61.4261 34.9062 57.4828C34.8151 57.3266 34.6164 57.2732 34.4595 57.3636L31.0697 59.3195C30.9129 59.4099 30.8594 59.6106 30.9492 59.7662C33.8354 64.7645 38.5035 68.342 44.0931 69.8396C45.964 70.3397 47.8603 70.5883 49.7443 70.5883C53.493 70.5883 57.1863 69.6066 60.5137 67.687C70.8475 61.7214 74.401 48.4589 68.4346 38.1252C65.5477 33.1276 60.8802 29.5487 55.29 28.0511C49.7011 26.5542 43.8704 27.3174 38.8714 30.203C35.2871 32.2726 32.3885 35.3054 30.4915 38.974V38.9747C30.408 39.135 30.4703 39.3323 30.6299 39.4145L34.104 41.219C34.1142 41.2245 34.1245 41.2273 34.1348 41.2307C34.1464 41.2355 34.1567 41.2403 34.1684 41.243C34.18 41.2471 34.1937 41.2478 34.2054 41.2492C34.217 41.2519 34.2273 41.2533 34.2396 41.2547C34.243 41.2547 34.2485 41.2553 34.2533 41.2553C34.2602 41.2553 34.265 41.2526 34.2718 41.2526C34.2889 41.2519 34.3047 41.2505 34.3211 41.2464C34.3307 41.2437 34.3383 41.2423 34.3472 41.2396C34.3705 41.2327 34.3931 41.2238 34.4143 41.2122C34.4218 41.2081 34.4273 41.2026 34.4349 41.1978C34.4506 41.1868 34.465 41.1766 34.478 41.1635C34.4849 41.1567 34.491 41.1498 34.4965 41.1444C34.5129 41.1259 34.5273 41.1067 34.5404 41.0827C34.5404 41.0827 34.5417 41.0806 34.5431 41.0793C34.5431 41.0793 34.5431 41.0793 34.5431 41.0779C35.2919 39.631 36.238 38.3088 37.3499 37.1449C38.4631 35.9809 39.7415 34.9745 41.1555 34.1593C49.3093 29.4508 59.7711 32.2555 64.479 40.4086C66.7548 44.3505 67.3583 48.9522 66.1766 53.362C64.9941 57.7733 62.1716 61.4549 58.2297 63.7334Z" fill="#FFFF66"/>
<path d="M45.1098 54.5458C44.9297 54.5458 44.7838 54.6917 44.7838 54.8719C44.7838 55.0528 44.929 55.1987 45.1098 55.1987H47.3446V57.3094C47.3446 57.4889 47.4905 57.6362 47.6714 57.6362C47.8515 57.6362 47.9975 57.4889 47.9975 57.3094V55.1987H49.593V57.3087C49.593 57.4889 49.7396 57.6348 49.9191 57.6348C50.1 57.6348 50.2466 57.4889 50.2466 57.3087V55.1987H51.7318H51.7325C51.7524 55.1987 51.7729 55.196 51.7914 55.1925C51.7928 55.1925 51.7962 55.1918 51.7976 55.1918C51.7976 55.1918 51.7976 55.1918 51.7983 55.1918C51.9168 55.1686 54.5886 54.5938 54.5886 51.8425C54.5886 50.1305 53.5603 49.3324 52.7457 48.9679C53.5562 48.5493 54.5886 47.6813 54.5886 45.9714C54.5886 43.1509 51.7962 42.8077 51.7688 42.8043C51.7558 42.8036 51.7455 42.8029 51.7325 42.8029H50.2466V40.6901C50.2466 40.5099 50.1 40.364 49.9205 40.364C49.7396 40.364 49.593 40.5099 49.593 40.6901V42.8029H47.9975V40.6928C47.9975 40.5127 47.8515 40.3661 47.6714 40.3661C47.4912 40.3661 47.3453 40.512 47.3453 40.6928V42.8029H45.1105C44.931 42.8029 44.7844 42.9488 44.7844 43.129C44.7844 43.3092 44.9304 43.4551 45.1105 43.4551H47.3453V54.5451H45.1098V54.5458ZM47.9968 43.4551H51.7106C51.9305 43.4852 53.935 43.8168 53.935 45.9714C53.935 48.1157 51.9641 48.6158 51.6976 48.6733H47.9968V43.4551ZM47.9968 49.3262H51.7113C51.9305 49.355 53.935 49.6756 53.935 51.8418C53.935 53.9868 51.9641 54.4869 51.6976 54.5451H47.9968V49.3262Z" fill="#FFFF66"/>
<path d="M20.6545 61.1479V55.6899H38.8578C38.8578 55.6899 38.8584 55.6899 38.8598 55.6899H39.0413C41.2706 59.2222 45.2077 61.5741 49.6854 61.5741C56.6191 61.5741 62.26 55.9338 62.26 49.0001C62.26 42.0658 56.6191 36.4248 49.6854 36.4248C44.5206 36.4248 40.0751 39.5543 38.1405 44.0155H24.0587V39.4501C24.8863 39.2974 25.5152 38.5712 25.5152 37.6991C25.5152 36.7153 24.715 35.9165 23.7319 35.9165C22.7495 35.9165 21.9493 36.7153 21.9493 37.6991C21.9493 38.5712 22.5776 39.2974 23.4051 39.4501V44.3416C23.4051 44.5211 23.5517 44.6677 23.7312 44.6677H37.8767C37.38 46.018 37.1067 47.4786 37.1067 49.0001C37.1067 49.1556 37.1108 49.3105 37.1176 49.4653H24.0265C23.873 48.6377 23.1462 48.0088 22.2747 48.0088C21.291 48.0088 20.4915 48.8083 20.4915 49.7921C20.4915 50.7759 21.291 51.576 22.2747 51.576C23.1468 51.576 23.873 50.9457 24.0265 50.1175H37.1581C37.315 51.887 37.839 53.5538 38.655 55.0384H20.3264C20.1469 55.0384 20.0003 55.1857 20.0003 55.3645V61.1486C19.1727 61.3028 18.5445 62.029 18.5445 62.8997C18.5445 63.8841 19.344 64.6836 20.3271 64.6836C21.3108 64.6836 22.111 63.8835 22.111 62.8997C22.1131 62.0269 21.4842 61.3014 20.6545 61.1479ZM37.7616 48.9994C37.7616 42.4247 43.1107 37.0763 49.6861 37.0763C56.2601 37.0763 61.6092 42.4254 61.6092 48.9994C61.6092 55.5735 56.2594 60.9212 49.6861 60.9212C43.1107 60.9219 37.7616 55.5741 37.7616 48.9994Z" fill="#FFFF66"/>
</svg>
