<svg width="98" height="98" viewBox="0 0 98 98" fill="none" xmlns="http://www.w3.org/2000/svg">
<rect width="98" height="98" rx="32" fill="#FFFF66"/>
<path d="M66.8725 49.0003C66.8725 58.8709 58.8708 66.8726 49.0001 66.8726C39.1295 66.8726 31.1278 58.8709 31.1278 49.0003C31.1278 39.1296 39.1295 31.1279 49.0001 31.1279C58.8708 31.1279 66.8725 39.1296 66.8725 49.0003Z" fill="white"/>
<circle cx="49.0001" cy="49.0003" r="17.4255" stroke="#0A0A0A" stroke-width="0.893617"/>
<path d="M49 21C33.5436 21 21 33.559 21 49.0099C21 64.4609 33.5436 77 49 77C64.4564 77 77 64.4609 77 49.0099C77 33.559 64.4564 21 49 21ZM41.4631 23.3656L42.9545 28.8921C39.7936 29.8413 36.9442 31.517 34.6023 33.7228L30.5455 29.6674C33.5875 26.7666 37.3186 24.5798 41.4631 23.3656ZM56.5369 23.3656C60.679 24.5791 64.3936 26.7691 67.4347 29.6674L63.3778 33.7228C61.0371 31.5201 58.2034 29.8404 55.0455 28.8921L56.5369 23.3656ZM49 29.2897C59.9026 29.2897 68.7273 38.1112 68.7273 49.0099C68.7273 59.9086 59.9026 68.7302 49 68.7302C38.0974 68.7302 29.2727 59.9086 29.2727 49.0099C29.2727 38.1112 38.0974 29.2897 49 29.2897ZM23.0284 42.6883L28.5568 44.1792C28.1913 45.7295 28 47.3487 28 49.0099C28 50.6644 28.1941 52.2763 28.5568 53.8208L23.0284 55.3117C22.5395 53.2905 22.2727 51.1824 22.2727 49.0099C22.2727 46.8306 22.5366 44.7158 23.0284 42.6883ZM74.9716 42.6883C75.4634 44.7158 75.7273 46.8306 75.7273 49.0099C75.7273 51.1824 75.4604 53.2905 74.9716 55.3117L69.4432 53.8208C69.8056 52.2768 70 50.6637 70 49.0099C70 47.3479 69.7892 45.7302 69.4233 44.1792L74.9716 42.6883ZM34.6023 64.2772C36.944 66.4827 39.794 68.1587 42.9545 69.108L41.4631 74.6343C37.3164 73.4208 33.5884 71.2334 30.5455 68.3326L34.6023 64.2772ZM63.3778 64.2772L67.4347 68.3326C64.3927 71.231 60.6813 73.4215 56.5369 74.6343L55.0455 69.108C58.203 68.1596 61.0374 66.4797 63.3778 64.2772Z" fill="#0A0A0A"/>
<path d="M48.9805 57.3222C49.1528 57.4551 49.3959 57.4551 49.562 57.3222C52.2822 55.2985 58.4549 50.1915 58.4549 46.2674C58.4549 40.9626 52.2175 38.7381 49.2729 42.875C46.3158 38.7226 40.0909 40.9903 40.0909 46.2674C40.0878 50.188 46.2573 55.2982 48.9805 57.3222Z" fill="#0A0A0A"/>
</svg>
