<svg width="98" height="98" viewBox="0 0 98 98" fill="none" xmlns="http://www.w3.org/2000/svg">
<rect width="98" height="98" rx="32" fill="#F2F2F2"/>
<path d="M77.8555 20H19.6893C18.2065 20 17 21.2058 17 22.6893C17 24.1001 18.0943 25.2595 19.4789 25.3673V62.5126C19.4789 62.9025 19.7956 63.2184 20.1855 63.2184H48.0669V71.8738C46.4195 72.2024 45.1756 73.6596 45.1756 75.4021C45.1756 77.3848 46.7893 79 48.7735 79C50.7577 79 52.3707 77.3855 52.3707 75.4021C52.3707 73.6596 51.1267 72.2031 49.4801 71.8738V63.2184H77.3607C77.7507 63.2184 78.0665 62.9018 78.0665 62.5126V25.3673C79.4512 25.2595 80.5462 24.1001 80.5462 22.6893C80.5447 21.2058 79.3382 20 77.8555 20ZM34.1767 56.6326H57.5868C57.9767 56.6326 58.2926 56.9492 58.2926 57.3384C58.2926 57.7283 57.976 58.0442 57.5868 58.0442H34.1767C33.7868 58.0442 33.4709 57.7283 33.4709 57.3384C33.4702 56.9492 33.7868 56.6326 34.1767 56.6326ZM33.4702 53.5721C33.4702 53.1821 33.786 52.8662 34.176 52.8662H38.4139C38.8038 52.8662 39.1197 53.1829 39.1197 53.5721C39.1197 53.9628 38.8031 54.2779 38.4139 54.2779H34.176C33.7868 54.2786 33.4702 53.9635 33.4702 53.5721ZM42.6847 53.5721C42.6847 53.1821 43.0013 52.8662 43.3905 52.8662H48.3693C48.7593 52.8662 49.0751 53.1829 49.0751 53.5721C49.0751 53.9628 48.7585 54.2779 48.3693 54.2779H43.3905C43.0013 54.2786 42.6847 53.9635 42.6847 53.5721ZM52.6424 53.5721C52.6424 53.1821 52.9582 52.8662 53.3489 52.8662H57.586C57.976 52.8662 58.2918 53.1829 58.2918 53.5721C58.2918 53.9628 57.9752 54.2779 57.586 54.2779H53.3489C52.9582 54.2786 52.6424 53.9635 52.6424 53.5721ZM68.4591 40.1706C67.7885 40.1706 67.156 40.0022 66.6022 39.7043L63.0768 44.1503C63.6838 44.8434 64.0543 45.752 64.0543 46.7452C64.0543 48.9173 62.2857 50.6859 60.1136 50.6859C57.9401 50.6859 56.1714 48.9173 56.1714 46.7452C56.1714 46.6337 56.1767 46.5222 56.1864 46.4137L41.9721 42.5702C41.3374 43.8995 39.9804 44.8194 38.4131 44.8194C37.4431 44.8194 36.5546 44.4661 35.8668 43.8831L32.5279 46.6217C32.8475 47.1906 33.0308 47.8477 33.0308 48.5453C33.0308 50.7189 31.2622 52.4875 29.0886 52.4875C26.915 52.4875 25.1464 50.7189 25.1464 48.5453C25.1464 46.371 26.9143 44.6031 29.0886 44.6031C30.0549 44.6031 30.9418 44.9534 31.6282 45.5335L34.9701 42.7918C34.6535 42.2244 34.4724 41.5718 34.4724 40.8779C34.4724 38.7044 36.2395 36.9357 38.4131 36.9357C40.5867 36.9357 42.3553 38.7044 42.3553 40.8779C42.3553 40.988 42.3493 41.098 42.3411 41.2058L56.5554 45.0492C57.1901 43.7229 58.5456 42.8038 60.1136 42.8038C60.7843 42.8038 61.4167 42.9737 61.9721 43.2716L65.4974 38.8264C64.8874 38.1318 64.5169 37.2231 64.5169 36.2292C64.5169 34.0571 66.2848 32.2885 68.4591 32.2885C70.6319 32.2885 72.4006 34.0571 72.4006 36.2292C72.4006 38.4027 70.6312 40.1706 68.4591 40.1706ZM25.8515 32.2443H49.2608C49.6507 32.2443 49.9666 32.5609 49.9666 32.9509C49.9666 33.3408 49.65 33.6567 49.2608 33.6567H25.8515C25.4615 33.6567 25.1456 33.3401 25.1456 32.9509C25.1456 32.5601 25.4623 32.2443 25.8515 32.2443ZM25.1456 29.1845C25.1456 28.7946 25.4623 28.4787 25.8515 28.4787H30.0893C30.4793 28.4787 30.7951 28.7953 30.7951 29.1845C30.7951 29.5745 30.4785 29.8911 30.0893 29.8911H25.8515C25.4623 29.8911 25.1456 29.5752 25.1456 29.1845ZM34.3616 29.1845C34.3616 28.7946 34.6775 28.4787 35.0674 28.4787H40.0455C40.4355 28.4787 40.7521 28.7953 40.7521 29.1845C40.7521 29.5745 40.4362 29.8911 40.0455 29.8911H35.0674C34.6782 29.8911 34.3616 29.5752 34.3616 29.1845ZM44.3178 29.1845C44.3178 28.7946 44.6344 28.4787 45.0236 28.4787H49.2608C49.6507 28.4787 49.9666 28.7953 49.9666 29.1845C49.9666 29.5745 49.65 29.8911 49.2608 29.8911H45.0236C44.6344 29.8911 44.3178 29.5752 44.3178 29.1845ZM50.9575 75.4021C50.9575 76.6071 49.977 77.5876 48.7727 77.5876C47.5684 77.5876 46.5879 76.6071 46.5879 75.4021C46.5879 74.1955 47.5684 73.2158 48.7727 73.2158C49.977 73.2158 50.9575 74.1955 50.9575 75.4021ZM77.8555 23.9654H19.6893C18.9865 23.9654 18.4124 23.3921 18.4124 22.6885C18.4124 21.9835 18.9857 21.4116 19.6893 21.4116H77.8555C78.559 21.4116 79.1331 21.9835 79.1331 22.6885C79.1331 23.3921 78.559 23.9654 77.8555 23.9654Z" fill="#0A0A0A"/>
<rect x="22" y="26" width="53" height="34" fill="#0A0A0A"/>
<line x1="25" y1="29.5" x2="30" y2="29.5" stroke="white"/>
<line x1="34" y1="29.5" x2="39" y2="29.5" stroke="white"/>
<line x1="43" y1="29.5" x2="48" y2="29.5" stroke="white"/>
<line x1="25" y1="33.5" x2="48" y2="33.5" stroke="white"/>
<line x1="37" y1="53.5" x2="42" y2="53.5" stroke="white"/>
<line x1="46" y1="53.5" x2="51" y2="53.5" stroke="white"/>
<line x1="55" y1="53.5" x2="60" y2="53.5" stroke="white"/>
<line x1="37" y1="57.5" x2="60" y2="57.5" stroke="white"/>
<path d="M69 32C70.933 32 72.5 33.567 72.5 35.5C72.5 37.433 70.933 39 69 39C68.436 39 67.9035 38.8659 67.4316 38.6289L63.5918 44.1475C64.1562 44.7689 64.5 45.5944 64.5 46.5C64.5 48.433 62.933 50 61 50C59.0882 50 57.5348 48.4672 57.501 46.5635L41.9824 42.3311C41.3665 43.3321 40.2616 44 39 44C38.2462 44 37.5488 43.7608 36.9775 43.3555L32.6592 46.9922C32.8775 47.4488 33 47.9601 33 48.5C33 50.433 31.433 52 29.5 52C27.567 52 26 50.433 26 48.5C26 46.567 27.567 45 29.5 45C30.5316 45 31.459 45.4462 32.0996 46.1562L36.248 42.6621C35.7797 42.0668 35.5 41.3162 35.5 40.5C35.5 38.567 37.067 37 39 37C40.933 37 42.5 38.567 42.5 40.5C42.5 40.8125 42.4577 41.115 42.3809 41.4033L57.6279 45.5605C58.0385 44.0838 59.3925 43 61 43C61.6659 43 62.2884 43.1859 62.8184 43.5088L66.6113 38.0576C65.9277 37.4188 65.5 36.5095 65.5 35.5C65.5 33.567 67.067 32 69 32Z" fill="#FFFF66"/>
</svg>
