<svg width="98" height="98" viewBox="0 0 98 98" fill="none" xmlns="http://www.w3.org/2000/svg">
<rect width="98" height="98" rx="32" fill="#0A0A0A"/>
<path d="M49 21.0273C35.3769 21.0273 24.2933 32.1109 24.2933 45.734V69.0246C24.2933 69.1981 24.4339 69.3387 24.6074 69.3387C24.7809 69.3387 24.9215 69.1981 24.9215 69.0246V45.734C24.9215 32.4571 35.7231 21.6555 49 21.6555C62.2768 21.6555 73.0778 32.4565 73.0778 45.734V69.0246C73.0778 69.1981 73.2184 69.3387 73.3919 69.3387C73.566 69.3387 73.7066 69.1981 73.7066 69.0246V45.734C73.706 32.1109 62.6231 21.0273 49 21.0273Z" fill="#FFFF66"/>
<path d="M48.9999 24.5723C37.3303 24.5723 27.8375 34.065 27.8375 45.7346C27.8375 57.4036 37.3303 66.897 48.9999 66.897C60.6695 66.897 70.1629 57.4043 70.1629 45.7346C70.1629 34.0644 60.6695 24.5723 48.9999 24.5723ZM63.2545 42.9349C63.4253 42.9046 63.5876 43.019 63.6178 43.1898C63.7611 44.0243 63.834 44.8804 63.834 45.734C63.834 47.9858 63.3307 50.164 62.3898 52.1339C61.4482 54.1031 60.0703 55.8628 58.3152 57.2801C58.3139 57.2801 58.3139 57.2801 58.3126 57.2814L58.2141 57.3602C58.1963 57.374 58.1773 57.3872 58.1589 57.3957C58.1451 57.4122 58.1293 57.4273 58.1122 57.4411C58.0767 57.4687 58.0432 57.495 58.0077 57.5212C57.9512 57.5653 57.8849 57.5856 57.8185 57.5856C57.7226 57.5856 57.6299 57.5442 57.5682 57.4621C57.4624 57.3254 57.4893 57.1277 57.6273 57.0225L57.7252 56.9456C57.741 56.9332 57.7607 56.922 57.7778 56.9128C57.7916 56.897 57.8067 56.8812 57.8231 56.8694L57.9203 56.7912C61.28 54.0768 63.2052 50.047 63.2052 45.734C63.2052 44.9166 63.1368 44.0959 62.9982 43.2969C62.968 43.1261 63.083 42.9638 63.2545 42.9349ZM42.238 29.1731C44.3859 28.2959 46.6607 27.8511 48.9999 27.8511C53.2393 27.8511 57.35 29.3604 60.5749 32.1017C60.5762 32.1017 60.5762 32.103 60.5775 32.103L60.6755 32.1871C60.6912 32.2022 60.707 32.2173 60.7188 32.2344C60.7392 32.2449 60.7569 32.2587 60.7727 32.2725L60.8706 32.3592C61.0014 32.4749 61.0125 32.6733 60.8969 32.8028C60.8351 32.8731 60.7484 32.9086 60.6623 32.9086C60.5881 32.9086 60.5138 32.8823 60.4553 32.8291L60.3594 32.7449C60.3436 32.7311 60.3279 32.716 60.316 32.6983C60.2983 32.6884 60.2806 32.6753 60.2641 32.6615L60.1682 32.58H60.1669C57.0556 29.936 53.0889 28.4792 48.9992 28.4792C46.7422 28.4792 44.5476 28.9076 42.4765 29.7546C42.3155 29.8197 42.1322 29.7421 42.0665 29.5825C42.0008 29.4221 42.0789 29.2388 42.238 29.1731ZM39.5702 34.2818C42.2156 32.101 45.5654 30.8999 48.9999 30.8999C54.384 30.8999 59.3547 33.8258 61.9738 38.5351C61.9738 38.5364 61.9738 38.5364 61.9752 38.5371L62.0369 38.6488C62.0468 38.6678 62.0553 38.6888 62.0619 38.7092C62.0757 38.7256 62.0868 38.7434 62.0987 38.7637C62.1184 38.8012 62.1394 38.8406 62.1591 38.8794C62.2393 39.0325 62.1802 39.2224 62.0257 39.3032C61.9797 39.3269 61.9298 39.3387 61.8812 39.3387C61.7669 39.3387 61.6571 39.2769 61.6019 39.1705C61.5835 39.1337 61.5625 39.0975 61.5441 39.0607C61.5336 39.0404 61.5257 39.022 61.5204 39.0016C61.5066 38.9865 61.4955 38.9688 61.485 38.9497L61.4245 38.8406C58.9165 34.3298 54.1553 31.5287 48.9999 31.5287C45.7113 31.5287 42.5034 32.6786 39.9697 34.7674C39.835 34.8778 39.6379 34.8594 39.5275 34.7247C39.4165 34.5913 39.4355 34.3922 39.5702 34.2818ZM48.9999 34.6919C47.5543 34.6919 46.1495 34.9659 44.8235 35.5086C44.6626 35.5743 44.4792 35.4974 44.4135 35.3364C44.3478 35.1755 44.4247 34.9921 44.5857 34.9264C45.9866 34.3535 47.4729 34.063 48.9992 34.063C53.1947 34.063 57.0885 36.3332 59.1596 39.9853C59.1596 39.9866 59.1596 39.9866 59.1596 39.9866C59.1806 40.0234 59.201 40.0608 59.2213 40.097C59.2325 40.116 59.2411 40.1357 59.2476 40.1561C59.2601 40.1725 59.2726 40.1916 59.2831 40.21C59.3028 40.2481 59.3232 40.2855 59.3429 40.323C59.4237 40.4761 59.3646 40.666 59.2115 40.7468C59.1648 40.7718 59.1149 40.7836 59.0656 40.7836C58.9519 40.7836 58.8429 40.7218 58.7864 40.6154L58.7299 40.507C58.7194 40.4892 58.7121 40.4702 58.7062 40.4518C58.6931 40.4367 58.6819 40.4202 58.672 40.4018L58.6129 40.296C58.6129 40.296 58.6129 40.296 58.6129 40.2947C56.6522 36.8385 52.9686 34.6919 48.9999 34.6919ZM31.4711 42.168C32.3096 38.0298 34.6067 34.3042 37.944 31.6765C37.9453 31.6752 37.9466 31.6739 37.9492 31.6726L38.0524 31.5924C38.0701 31.5786 38.0885 31.5668 38.1076 31.557C38.1214 31.5405 38.1378 31.5254 38.1556 31.5129L38.26 31.4334C38.398 31.3276 38.5958 31.3566 38.6996 31.4952C38.8034 31.6338 38.7765 31.831 38.6378 31.9348L38.5373 32.0117C38.5196 32.0241 38.5018 32.0353 38.4828 32.0445C38.469 32.0609 38.4539 32.076 38.4368 32.0885L38.3409 32.1641C38.3395 32.1654 38.3382 32.1654 38.3369 32.1667C35.1146 34.703 32.8963 38.2985 32.0881 42.2929C32.0586 42.4427 31.9258 42.5459 31.7806 42.5459C31.7589 42.5459 31.7392 42.5432 31.7175 42.5393C31.548 42.5051 31.437 42.3395 31.4711 42.168ZM36.7547 58.3367C36.6929 58.3984 36.6141 58.4286 36.5339 58.4286C36.4537 58.4286 36.3716 58.3971 36.3111 58.336C33.3215 55.326 31.4955 51.3441 31.1695 47.1276V47.125L31.161 46.9956C31.1584 46.9726 31.1597 46.9515 31.1617 46.9299C31.1571 46.9082 31.1531 46.8872 31.1518 46.8642L31.1446 46.7334C31.1341 46.5599 31.2681 46.4114 31.4409 46.4016C31.6144 46.3911 31.7616 46.5258 31.7714 46.6979L31.7793 46.8247C31.7806 46.8458 31.7793 46.8674 31.7767 46.8885C31.7819 46.9075 31.7852 46.9292 31.7865 46.9502L31.7971 47.077C32.1098 51.145 33.8721 54.9862 36.756 57.8918C36.8789 58.0167 36.8782 58.2158 36.7547 58.3367ZM37.0681 38.0206L37.0011 38.1264C36.9886 38.1435 36.9761 38.1599 36.9623 38.175C36.9544 38.1954 36.9459 38.2144 36.9347 38.2315L36.8684 38.3386C35.5122 40.5589 34.7946 43.1169 34.7946 45.7333C34.7946 48.1974 35.4359 50.6246 36.6469 52.7522C36.7323 52.9027 36.6798 53.0952 36.5286 53.1806C36.4794 53.2082 36.4268 53.222 36.3742 53.222C36.2645 53.222 36.1581 53.1655 36.1002 53.0637C34.8347 50.8401 34.1665 48.3051 34.1665 45.7327C34.1665 43.0006 34.9155 40.3309 36.3315 38.0107C36.3315 38.0107 36.3315 38.0107 36.3328 38.0094C36.3328 38.0081 36.3328 38.0081 36.3328 38.0081L36.4012 37.8984C36.4137 37.88 36.4261 37.8622 36.4412 37.8458C36.4485 37.8254 36.459 37.8064 36.4715 37.788L36.5418 37.6776C36.6364 37.5317 36.8309 37.4903 36.9768 37.5843C37.1207 37.6802 37.1621 37.8754 37.0681 38.0206ZM38.2075 49.2934C38.1779 49.3026 38.147 49.3058 38.1174 49.3058C37.9827 49.3058 37.8572 49.2178 37.8165 49.0824C37.4926 48.0002 37.329 46.8747 37.329 45.7346C37.329 42.7055 38.4841 39.8348 40.5802 37.652C40.5815 37.6507 40.5828 37.6493 40.5828 37.6493L40.6695 37.56C40.6853 37.5436 40.7017 37.5298 40.7195 37.5186C40.7306 37.5008 40.7444 37.4831 40.7609 37.468L40.8515 37.3773C40.9757 37.2564 41.1748 37.259 41.2964 37.3819C41.4173 37.5061 41.4146 37.7052 41.2911 37.8268L41.2031 37.9122C41.1893 37.9273 41.1728 37.9398 41.1564 37.9509C41.1452 37.9674 41.1328 37.9838 41.119 37.9976L41.0335 38.0856C39.0492 40.1521 37.9571 42.8678 37.9571 45.7333C37.9571 46.8116 38.1115 47.8774 38.4184 48.9017C38.4677 49.068 38.3737 49.2428 38.2075 49.2934ZM40.617 52.9217C42.7196 55.3713 45.775 56.7761 48.9999 56.7761C49.7161 56.7761 50.433 56.7071 51.1288 56.5711C51.2997 56.5382 51.4646 56.6486 51.4988 56.8182C51.5316 56.9897 51.4206 57.1539 51.2497 57.1881C50.5132 57.332 49.7569 57.4043 48.9999 57.4043C45.591 57.4043 42.3628 55.9199 40.1406 53.3311C40.113 53.2982 40.0841 53.2654 40.0565 53.2332C40.0427 53.2174 40.0315 53.1997 40.021 53.1806C40.0046 53.1668 39.9895 53.1517 39.9743 53.1359L39.8935 53.0367C39.7858 52.9007 39.8068 52.7036 39.9415 52.5938C40.0775 52.4861 40.2746 52.5071 40.3837 52.6418L40.4606 52.7364C40.4731 52.7522 40.4849 52.7706 40.4947 52.7877C40.5112 52.8008 40.525 52.814 40.5388 52.8304C40.5637 52.8613 40.5907 52.8915 40.617 52.9217ZM52.445 63.2857C51.3174 63.5059 50.159 63.6169 48.9999 63.6182C45.9393 63.6182 42.9193 62.831 40.2661 61.3428C40.2661 61.3428 40.2661 61.3428 40.2648 61.3428L40.1517 61.279C40.1314 61.2672 40.1136 61.2534 40.0972 61.2396C40.0768 61.2331 40.0571 61.2232 40.0368 61.212L39.9237 61.1463C39.7739 61.0583 39.724 60.8644 39.812 60.7153C39.9014 60.5655 40.0933 60.5168 40.2431 60.6049L40.3522 60.6693C40.3712 60.6804 40.389 60.6929 40.4041 60.7067C40.4244 60.7133 40.4428 60.7205 40.4619 60.7317L40.5736 60.7948C43.1322 62.2305 46.047 62.9894 48.9992 62.9894C50.1176 62.9881 51.2359 62.8816 52.324 62.6694C52.4936 62.6366 52.6598 62.7469 52.692 62.9184C52.7262 63.088 52.6145 63.2529 52.445 63.2857ZM54.0121 59.7001C52.4075 60.2763 50.7201 60.5674 48.9999 60.5674C45.3991 60.5674 41.9265 59.2618 39.222 56.8885C39.2207 56.8885 39.2207 56.8872 39.2194 56.8872L39.1234 56.8031C39.107 56.7879 39.0919 56.7715 39.0794 56.7544C39.0603 56.7426 39.0426 56.7301 39.0268 56.715C38.994 56.6861 38.9624 56.6559 38.9303 56.6269C38.8034 56.5087 38.7955 56.3103 38.9138 56.1815C39.0321 56.0547 39.2305 56.0474 39.3573 56.1657C39.3876 56.1933 39.4191 56.2222 39.4493 56.2498C39.4658 56.2636 39.4796 56.28 39.492 56.2958C39.5098 56.3063 39.5262 56.3188 39.5426 56.3339L39.6366 56.416V56.4167C42.2255 58.6882 45.5509 59.9386 48.9999 59.9386C50.6478 59.9386 52.2629 59.6594 53.7998 59.1074C53.9634 59.0496 54.1428 59.1337 54.202 59.2973C54.2598 59.4616 54.1757 59.6416 54.0121 59.7001ZM48.9999 54.0466C44.4162 54.0466 40.6886 50.3177 40.6886 45.734C40.6886 41.1502 44.4162 37.4227 48.9999 37.4227C53.5837 37.4227 57.3119 41.1502 57.3119 45.734C57.3119 50.3177 53.583 54.0466 48.9999 54.0466ZM55.5996 55.3608C55.5805 55.3739 55.5615 55.3838 55.5431 55.3923C55.5279 55.4074 55.5115 55.4199 55.4938 55.4331C55.457 55.4567 55.4221 55.4804 55.386 55.5047C55.3328 55.5382 55.2737 55.5559 55.2145 55.5559C55.112 55.5559 55.0108 55.506 54.951 55.4127C54.8564 55.2668 54.8971 55.0717 55.043 54.9777C55.0772 54.9567 55.11 54.9337 55.1436 54.9107C55.1606 54.8995 55.179 54.8897 55.1974 54.8818C55.2112 54.868 55.2263 54.8542 55.2434 54.8424C55.2763 54.82 55.3105 54.7977 55.3427 54.774C58.285 52.7055 60.042 49.3256 60.042 45.734C60.042 45.3772 60.0256 45.0165 59.9914 44.6643C59.9744 44.4908 60.1012 44.3377 60.2746 44.3213C60.4455 44.3035 60.5999 44.4304 60.617 44.6038C60.6531 44.9757 60.6708 45.3568 60.6708 45.734C60.6708 47.6316 60.207 49.4727 59.3534 51.1141C58.5012 52.7555 57.2593 54.1945 55.7047 55.2885C55.6692 55.3122 55.6344 55.3371 55.5996 55.3608ZM65.5141 52.6083C63.8866 56.5139 60.912 59.731 57.1404 61.6621C57.1391 61.6621 57.1391 61.6621 57.1391 61.6621C57.0997 61.6818 57.0616 61.7029 57.0221 61.7213C57.0024 61.7318 56.9814 61.739 56.9604 61.7436C56.9439 61.7574 56.9249 61.7699 56.9052 61.7804L56.7882 61.8369C56.7442 61.8579 56.6962 61.8684 56.6509 61.8684C56.5339 61.8684 56.4222 61.804 56.3677 61.6923C56.2915 61.5366 56.3565 61.348 56.5129 61.2712L56.6272 61.216C56.6456 61.2054 56.6666 61.1995 56.6864 61.193C56.7021 61.1805 56.7205 61.1693 56.7402 61.1588C56.7783 61.1404 56.8145 61.1213 56.8526 61.1023C56.8526 61.1023 56.8526 61.1023 56.8539 61.101C60.4934 59.2375 63.3635 56.1355 64.9346 52.3665C65.0016 52.2055 65.185 52.1306 65.3459 52.197C65.5056 52.264 65.5805 52.4486 65.5141 52.6083ZM66.7659 47.8011L66.7501 47.9293C66.7475 47.9523 66.7422 47.9733 66.7363 47.9937C66.7376 48.0147 66.7376 48.0377 66.7337 48.0587L66.7166 48.1895C66.6956 48.3465 66.5609 48.4608 66.4058 48.4608C66.392 48.4608 66.3769 48.4595 66.3631 48.4582C66.1909 48.4346 66.0707 48.2749 66.0943 48.104L66.1108 47.9785C66.1147 47.9569 66.1193 47.9358 66.1252 47.9168C66.1239 47.8951 66.1239 47.8741 66.1265 47.8524L66.1417 47.7269C66.1417 47.7269 66.1417 47.7269 66.1417 47.7256C66.2166 47.0685 66.256 46.3983 66.256 45.734C66.256 42.3067 65.2533 38.9964 63.3576 36.1598C63.261 36.0152 63.2998 35.8201 63.4444 35.7235C63.5896 35.6269 63.7841 35.6656 63.8793 35.8102C65.8453 38.7513 66.8841 42.1818 66.8841 45.734C66.8841 46.4226 66.8441 47.1178 66.7659 47.7992C66.7659 47.8005 66.7659 47.8011 66.7659 47.8011Z" fill="#FFFF66"/>
<path d="M54.1606 41.7658L46.8914 49.035L43.8386 45.9829C43.7157 45.86 43.5173 45.86 43.3944 45.9829C43.2715 46.1058 43.2715 46.3049 43.3944 46.4271L46.6686 49.7006C46.7297 49.7624 46.8099 49.7933 46.8907 49.7933C46.9709 49.7933 47.0517 49.7624 47.1128 49.7006L54.6041 42.2093C54.727 42.0865 54.727 41.888 54.6041 41.7652C54.4825 41.643 54.2834 41.6429 54.1606 41.7658Z" fill="#FFFF66"/>
<path d="M32.3548 69.8169H28.0779C27.2841 69.8169 26.6376 70.4621 26.6376 71.2552V75.5334C26.6376 76.3265 27.2835 76.9724 28.0779 76.9724H32.3548C33.1492 76.9724 33.7951 76.3265 33.7951 75.5334V71.2552C33.7951 70.4621 33.1492 69.8169 32.3548 69.8169ZM33.1663 75.5334C33.1663 75.9803 32.8016 76.3443 32.3548 76.3443H28.0779C27.6304 76.3443 27.2664 75.9796 27.2664 75.5334V71.2552C27.2664 70.8078 27.6311 70.4451 28.0779 70.4451H32.3548C32.8022 70.4451 33.1663 70.8084 33.1663 71.2552V75.5334Z" fill="#FFFF66"/>
<path d="M41.7471 69.8169H37.4702C36.6758 69.8169 36.0299 70.4621 36.0299 71.2552V75.5334C36.0299 76.3265 36.6758 76.9724 37.4702 76.9724H41.7471C42.5409 76.9724 43.1874 76.3265 43.1874 75.5334V71.2552C43.1874 70.4621 42.5409 69.8169 41.7471 69.8169ZM42.5586 75.5334C42.5586 75.9803 42.1939 76.3443 41.7471 76.3443H37.4702C37.0227 76.3443 36.6581 75.9796 36.6581 75.5334V71.2552C36.6581 70.8078 37.0227 70.4451 37.4702 70.4451H41.7471C42.1946 70.4451 42.5586 70.8084 42.5586 71.2552V75.5334Z" fill="#FFFF66"/>
<path d="M51.1393 69.8169H46.8611C46.068 69.8169 45.4221 70.4621 45.4221 71.2552V75.5334C45.4221 76.3265 46.068 76.9724 46.8611 76.9724H51.1393C51.9324 76.9724 52.5777 76.3265 52.5777 75.5334V71.2552C52.5777 70.4621 51.9324 69.8169 51.1393 69.8169ZM51.9495 75.5334C51.9495 75.9803 51.5861 76.3443 51.1393 76.3443H46.8611C46.4136 76.3443 46.0503 75.9796 46.0503 75.5334V71.2552C46.0503 70.8078 46.4136 70.4451 46.8611 70.4451H51.1393C51.5868 70.4451 51.9495 70.8084 51.9495 71.2552V75.5334Z" fill="#FFFF66"/>
<path d="M60.5295 69.8169H56.2526C55.4582 69.8169 54.813 70.4621 54.813 71.2552V75.5334C54.813 76.3265 55.4582 76.9724 56.2526 76.9724H60.5295C61.3239 76.9724 61.9699 76.3265 61.9699 75.5334V71.2552C61.9699 70.4621 61.3239 69.8169 60.5295 69.8169ZM61.3417 75.5334C61.3417 75.9803 60.977 76.3443 60.5295 76.3443H56.2526C55.8052 76.3443 55.4412 75.9796 55.4412 75.5334V71.2552C55.4412 70.8078 55.8058 70.4451 56.2526 70.4451H60.5295C60.9777 70.4451 61.3417 70.8084 61.3417 71.2552V75.5334Z" fill="#FFFF66"/>
<path d="M69.9218 69.8169H65.6449C64.8505 69.8169 64.2052 70.4621 64.2052 71.2552V75.5334C64.2052 76.3265 64.8505 76.9724 65.6449 76.9724H69.9218C70.7162 76.9724 71.362 76.3265 71.362 75.5334V71.2552C71.362 70.4621 70.7162 69.8169 69.9218 69.8169ZM70.7332 75.5334C70.7332 75.9803 70.3692 76.3443 69.9218 76.3443H65.6449C65.1974 76.3443 64.8334 75.9796 64.8334 75.5334V71.2552C64.8334 70.8078 65.198 70.4451 65.6449 70.4451H69.9218C70.3699 70.4451 70.7332 70.8084 70.7332 71.2552V75.5334Z" fill="#FFFF66"/>
<path d="M31.9251 73.1754H31.0703L31.6748 72.5716C31.7977 72.4487 31.7977 72.2503 31.6748 72.1267C31.5519 72.0039 31.3528 72.0039 31.2306 72.1267L30.6267 72.7312V71.7561C30.6267 71.582 30.4861 71.4414 30.312 71.4414C30.1379 71.4414 29.9979 71.582 29.9979 71.7561V72.7312L29.308 72.0413C29.1851 71.9184 28.986 71.9184 28.8638 72.0413C28.7409 72.1642 28.7409 72.3626 28.8638 72.4855L29.5531 73.1754H28.578C28.4045 73.1754 28.2639 73.3167 28.2639 73.4902C28.2639 73.6643 28.4045 73.8049 28.578 73.8049H29.5538L28.8638 74.4948C28.7409 74.6177 28.7409 74.8161 28.8638 74.939C28.9249 75.0008 29.0057 75.0317 29.0859 75.0317C29.1667 75.0317 29.2469 75.0008 29.308 74.939L29.9979 74.2491V75.1046C29.9979 75.278 30.1386 75.4187 30.312 75.4187C30.4855 75.4187 30.6267 75.278 30.6267 75.1046V74.2497L31.2306 74.8536C31.2917 74.9154 31.3725 74.9462 31.4527 74.9462C31.5335 74.9462 31.6137 74.9154 31.6748 74.8536C31.7977 74.7307 31.7977 74.5323 31.6748 74.4094L31.0703 73.8049H31.9251C32.0986 73.8049 32.2392 73.6643 32.2392 73.4902C32.2392 73.3167 32.0986 73.1754 31.9251 73.1754Z" fill="white"/>
<path d="M41.2819 73.1754H40.427L41.0309 72.5716C41.1537 72.4487 41.1537 72.2503 41.0309 72.1267C40.908 72.0039 40.7096 72.0039 40.5867 72.1267L39.9822 72.7312V71.7561C39.9822 71.582 39.8416 71.4414 39.6681 71.4414C39.4946 71.4414 39.354 71.582 39.354 71.7561V72.7312L38.6641 72.0413C38.5412 71.9184 38.3421 71.9184 38.2199 72.0413C38.0977 72.1642 38.097 72.3626 38.2199 72.4855L38.9098 73.1754H37.9341C37.7606 73.1754 37.62 73.3167 37.62 73.4902C37.62 73.6643 37.7606 73.8049 37.9341 73.8049H38.9098L38.2199 74.4948C38.097 74.6177 38.097 74.8161 38.2199 74.939C38.281 75.0008 38.3618 75.0317 38.442 75.0317C38.5222 75.0317 38.603 75.0008 38.6641 74.939L39.354 74.2491V75.1046C39.354 75.278 39.4946 75.4187 39.6681 75.4187C39.8416 75.4187 39.9822 75.278 39.9822 75.1046V74.2491L40.5867 74.8536C40.6484 74.9154 40.7286 74.9462 40.8088 74.9462C40.8889 74.9462 40.9698 74.9154 41.0309 74.8536C41.1537 74.7307 41.1537 74.5323 41.0309 74.4094L40.4264 73.8049H41.2812C41.4547 73.8049 41.5953 73.6643 41.5953 73.4902C41.596 73.3167 41.4553 73.1754 41.2819 73.1754Z" fill="white"/>
<path d="M50.6385 73.1754H49.7837L50.3882 72.5716C50.5111 72.4487 50.5111 72.2503 50.3882 72.1267C50.2647 72.0039 50.0662 72.0039 49.9434 72.1267L49.3389 72.7319V71.7561C49.3389 71.582 49.1982 71.4414 49.0241 71.4414C48.8506 71.4414 48.71 71.582 48.71 71.7561V72.7312L48.0208 72.0413C47.8979 71.9184 47.6988 71.9184 47.5766 72.0413C47.4544 72.1642 47.4537 72.3626 47.5766 72.4855L48.2665 73.1754H47.2908C47.1173 73.1754 46.9767 73.3167 46.9767 73.4902C46.9767 73.6643 47.1173 73.8049 47.2908 73.8049H48.2665L47.5766 74.4948C47.4537 74.6177 47.4537 74.8161 47.5766 74.939C47.6377 75.0008 47.7185 75.0317 47.7987 75.0317C47.8788 75.0317 47.9597 75.0008 48.0208 74.939L48.71 74.2497V75.1046C48.71 75.278 48.8506 75.4187 49.0241 75.4187C49.1976 75.4187 49.3389 75.278 49.3389 75.1046V74.2491L49.9434 74.8536C50.0051 74.9154 50.0853 74.9462 50.1655 74.9462C50.2463 74.9462 50.3264 74.9154 50.3882 74.8536C50.5111 74.7307 50.5111 74.5323 50.3882 74.4094L49.783 73.8049H50.6385C50.812 73.8049 50.9526 73.6643 50.9526 73.4902C50.952 73.3167 50.812 73.1754 50.6385 73.1754Z" fill="white"/>
<path d="M59.9947 73.1754H59.1398L59.7443 72.5716C59.8672 72.4487 59.8672 72.2503 59.7443 72.1267C59.6215 72.0039 59.423 72.0039 59.3002 72.1267L58.6957 72.7312V71.7561C58.6957 71.582 58.555 71.4414 58.3809 71.4414C58.2075 71.4414 58.0662 71.582 58.0662 71.7561V72.7312L57.3762 72.0413C57.2534 71.9184 57.0549 71.9184 56.9321 72.0413C56.8085 72.1642 56.8085 72.3626 56.9321 72.4855L57.622 73.1754H56.6469C56.4728 73.1754 56.3322 73.3167 56.3322 73.4902C56.3322 73.6643 56.4728 73.8049 56.6469 73.8049H57.622L56.9321 74.4948C56.8085 74.6177 56.8085 74.8161 56.9321 74.939C56.9932 75.0008 57.074 75.0317 57.1542 75.0317C57.2343 75.0317 57.3145 75.0008 57.3762 74.939L58.0662 74.2491V75.1046C58.0662 75.278 58.2075 75.4187 58.3809 75.4187C58.555 75.4187 58.6957 75.278 58.6957 75.1046V74.2491L59.3002 74.8536C59.3613 74.9154 59.4421 74.9462 59.5223 74.9462C59.6024 74.9462 59.6826 74.9154 59.7443 74.8536C59.8672 74.7307 59.8672 74.5323 59.7443 74.4094L59.1398 73.8049H59.9947C60.1688 73.8049 60.3094 73.6643 60.3094 73.4902C60.3094 73.3167 60.1688 73.1754 59.9947 73.1754Z" fill="white"/>
<path d="M69.3515 73.1754H68.4966L69.1012 72.5716C69.224 72.4487 69.224 72.2503 69.1012 72.1267C68.9776 72.0039 68.7799 72.0039 68.6563 72.1267L68.0518 72.7312V71.7561C68.0518 71.582 67.9112 71.4414 67.7377 71.4414C67.5636 71.4414 67.423 71.582 67.423 71.7561V72.7312L66.7331 72.0413C66.6102 71.9184 66.4118 71.9184 66.2889 72.0413C66.1654 72.1642 66.1654 72.3626 66.2889 72.4855L66.9788 73.1754H66.0031C65.8296 73.1754 65.689 73.3167 65.689 73.4902C65.689 73.6643 65.8296 73.8049 66.0031 73.8049H66.9788L66.2889 74.4948C66.1654 74.6177 66.1654 74.8161 66.2889 74.939C66.35 75.0008 66.4308 75.0317 66.511 75.0317C66.5911 75.0317 66.6713 75.0008 66.7331 74.939L67.423 74.2491V75.1046C67.423 75.278 67.5636 75.4187 67.7377 75.4187C67.9112 75.4187 68.0518 75.278 68.0518 75.1046V74.2491L68.6563 74.8536C68.7181 74.9154 68.7982 74.9462 68.8791 74.9462C68.9592 74.9462 69.0394 74.9154 69.1012 74.8536C69.224 74.7307 69.224 74.5323 69.1012 74.4094L68.4966 73.8049H69.3515C69.5256 73.8049 69.6662 73.6643 69.6662 73.4902C69.6662 73.3167 69.5256 73.1754 69.3515 73.1754Z" fill="white"/>
</svg>
