<svg width="98" height="98" viewBox="0 0 98 98" fill="none" xmlns="http://www.w3.org/2000/svg">
<rect width="98" height="98" rx="32" fill="#FFFF66"/>
<rect x="24.063" y="27.2275" width="50.601" height="31.6761" fill="white"/>
<path d="M75.0888 24.4714H22.9119C21.8294 24.4714 20.948 25.3516 20.948 26.4347V61.7269C20.948 62.8093 21.8294 63.6908 22.9119 63.6908H41.2834L39.986 72.9241H37.9222C37.7553 72.9241 37.6201 73.0593 37.6201 73.2262C37.6201 73.3925 37.7553 73.5283 37.9222 73.5283H59.789C59.956 73.5283 60.0918 73.3925 60.0918 73.2262C60.0918 73.0593 59.956 72.9241 59.789 72.9241H58.0146L56.7178 63.6908H75.0888C76.1706 63.6908 77.052 62.8099 77.052 61.7269V26.4347C77.052 25.3516 76.1706 24.4714 75.0888 24.4714ZM52.6238 60.6664C52.6238 60.8327 52.4879 60.9685 52.3216 60.9685H45.6784C45.5115 60.9685 45.3756 60.8327 45.3756 60.6664C45.3756 60.4995 45.5109 60.3643 45.6784 60.3643H52.3216C52.4879 60.3643 52.6238 60.4989 52.6238 60.6664ZM24.4591 56.8587V27.8436H73.5403V56.8587H24.4591Z" fill="black"/>
<path d="M36.4535 38.3829H28.243V34.2706C28.8838 34.1311 29.365 33.561 29.365 32.8788C29.365 32.0924 28.7266 31.4546 27.9408 31.4546C27.1544 31.4546 26.5154 32.093 26.5154 32.8788C26.5154 33.561 26.9979 34.1311 27.6387 34.2706V38.685C27.6387 38.852 27.7739 38.9872 27.9408 38.9872H36.152V42.6767H30.833C30.6941 42.0359 30.1222 41.5547 29.4411 41.5547C28.6547 41.5547 28.0157 42.1931 28.0157 42.9795C28.0157 43.7653 28.6553 44.4036 29.4411 44.4036C30.1215 44.4036 30.6941 43.9224 30.833 43.2816H36.152V46.8749H30.5638C30.3969 46.8749 30.261 47.0107 30.261 47.1776V50.9044C29.6202 51.0438 29.139 51.614 29.139 52.2962C29.139 53.082 29.7774 53.7216 30.5632 53.7216C31.349 53.7216 31.9873 53.082 31.9873 52.2962C31.9873 51.614 31.5061 51.0432 30.8653 50.9044V47.4798H36.4535C36.6204 47.4798 36.7563 47.3445 36.7563 47.1776V38.6857C36.7563 38.5181 36.6204 38.3829 36.4535 38.3829Z" fill="black"/>
<path d="M69.126 31.4546C68.3408 31.4546 67.7006 32.093 67.7006 32.8788C67.7006 33.561 68.1818 34.1311 68.8226 34.2706V38.3829H61.5464C61.3795 38.3829 61.2443 38.5181 61.2443 38.685V47.177C61.2443 47.3439 61.3795 47.4792 61.5464 47.4792H66.2003V50.9037C65.5594 51.0438 65.0782 51.6146 65.0782 52.2956C65.0782 53.0814 65.7178 53.721 66.5036 53.721C67.2888 53.721 67.9284 53.0814 67.9284 52.2956C67.9284 51.6134 67.446 51.0426 66.8051 50.9037V47.177C66.8051 47.0101 66.6693 46.8743 66.5024 46.8743H61.8486V43.281H66.2344C66.3739 43.9218 66.944 44.403 67.6256 44.403C68.412 44.403 69.0504 43.7647 69.0504 42.9789C69.0504 42.1925 68.412 41.5541 67.6256 41.5541C66.944 41.5541 66.3733 42.0353 66.2344 42.6761H61.8486V38.9866H69.1247C69.2916 38.9866 69.4275 38.8513 69.4275 38.6844V34.27C70.0683 34.1324 70.5507 33.5604 70.5507 32.8781C70.5507 32.0924 69.9111 31.4546 69.126 31.4546Z" fill="black"/>
<path d="M50.1346 37.5504C49.9809 37.5576 49.8337 37.6138 49.7144 37.7108C49.5951 37.8079 49.5101 37.9406 49.4718 38.0896L47.1352 46.7168C47.1105 46.8083 47.1041 46.9037 47.1163 46.9977C47.1284 47.0916 47.159 47.1822 47.2062 47.2644C47.2534 47.3465 47.3163 47.4186 47.3913 47.4764C47.4664 47.5342 47.5521 47.5767 47.6435 47.6014C47.735 47.6261 47.8304 47.6326 47.9244 47.6204C48.0184 47.6083 48.109 47.5777 48.1911 47.5305C48.2733 47.4833 48.3453 47.4204 48.4032 47.3453C48.461 47.2703 48.5035 47.1846 48.5282 47.0931L50.8647 38.4659C50.8962 38.3557 50.9009 38.2396 50.8784 38.1273C50.8559 38.0149 50.8069 37.9096 50.7355 37.82C50.6641 37.7304 50.5723 37.6592 50.4677 37.6123C50.3632 37.5654 50.249 37.5442 50.1346 37.5504ZM45.9445 38.449C45.7825 38.4518 45.6261 38.5092 45.5008 38.6119L41.1872 42.0269C41.1019 42.0942 41.0329 42.1799 40.9855 42.2777C40.9381 42.3754 40.9135 42.4827 40.9135 42.5913C40.9135 42.7 40.9381 42.8072 40.9855 42.905C41.0329 43.0028 41.1019 43.0885 41.1872 43.1558L45.5008 46.5708C45.5742 46.6351 45.66 46.6837 45.7529 46.7138C45.8458 46.7438 45.9438 46.7547 46.041 46.7456C46.1382 46.7366 46.2325 46.7078 46.3182 46.6612C46.4039 46.6145 46.4793 46.5508 46.5396 46.4741C46.5999 46.3973 46.644 46.3091 46.6691 46.2148C46.6942 46.1204 46.6999 46.022 46.6857 45.9254C46.6716 45.8288 46.6379 45.7361 46.5867 45.653C46.5356 45.5699 46.4681 45.498 46.3882 45.4418L42.7879 42.5942L46.3882 39.7409C46.5088 39.6494 46.5975 39.5222 46.6416 39.3774C46.6857 39.2326 46.6829 39.0776 46.6338 38.9344C46.5846 38.7913 46.4915 38.6673 46.3677 38.5801C46.244 38.493 46.0959 38.4471 45.9445 38.449ZM52.0386 38.449C51.8887 38.4506 51.743 38.499 51.622 38.5875C51.5009 38.676 51.4106 38.8001 51.3635 38.9424C51.3165 39.0848 51.3151 39.2383 51.3596 39.3814C51.4041 39.5246 51.4923 39.6503 51.6117 39.7409L55.212 42.5942L51.6117 45.4418C51.5319 45.498 51.4644 45.5699 51.4132 45.653C51.3621 45.7361 51.3284 45.8288 51.3142 45.9254C51.3001 46.022 51.3057 46.1204 51.3308 46.2148C51.356 46.3091 51.4 46.3973 51.4604 46.4741C51.5207 46.5508 51.596 46.6145 51.6817 46.6612C51.7675 46.7078 51.8618 46.7366 51.959 46.7456C52.0562 46.7547 52.1542 46.7438 52.2471 46.7138C52.34 46.6837 52.4257 46.6351 52.4992 46.5708L56.8128 43.1558C56.8981 43.0885 56.967 43.0028 57.0144 42.905C57.0618 42.8072 57.0864 42.7 57.0864 42.5913C57.0864 42.4827 57.0618 42.3754 57.0144 42.2777C56.967 42.1799 56.8981 42.0942 56.8128 42.0269L52.4992 38.6119C52.3694 38.5055 52.2064 38.4479 52.0386 38.449Z" fill="#0A0A0A"/>
</svg>
