<svg width="162" height="40" viewBox="0 0 162 40" fill="none" xmlns="http://www.w3.org/2000/svg">
<g id="logo">
<path id="Vector" d="M143.532 15.17V13.1821H146.555V27.182H143.532V25.1662C142.394 26.7529 140.761 27.5461 138.634 27.5461C136.713 27.5461 135.071 26.8369 133.708 25.418C132.346 23.9994 131.665 22.2543 131.665 20.1821C131.665 18.1099 132.346 16.3647 133.708 14.9462C135.07 13.5276 136.712 12.818 138.634 12.818C140.761 12.818 142.394 13.6021 143.532 15.17ZM135.947 23.4021C136.787 24.2421 137.841 24.6618 139.11 24.6618C140.378 24.6618 141.433 24.2418 142.273 23.4021C143.112 22.5435 143.532 21.4701 143.532 20.1821C143.532 18.894 143.112 17.8301 142.273 16.99C141.433 16.1314 140.378 15.7023 139.11 15.7023C137.841 15.7023 136.787 16.1314 135.947 16.99C135.108 17.8301 134.688 18.894 134.688 20.1821C134.688 21.4512 135.108 22.5246 135.947 23.4021Z" fill="#FFFF66"/>
<path id="Vector_2" d="M123.815 12.818C125.718 12.818 127.36 13.5367 128.74 14.9741C130.102 16.3927 130.784 18.1288 130.784 20.1821C130.784 22.2539 130.103 23.9994 128.74 25.418C127.378 26.8365 125.736 27.5461 123.815 27.5461C121.706 27.5461 120.074 26.762 118.917 25.1941V32.782H115.895V13.1824H118.917V15.1983C120.055 13.6116 121.688 12.8184 123.815 12.8184V12.818ZM120.176 23.4021C121.016 24.2421 122.07 24.6618 123.339 24.6618C124.607 24.6618 125.662 24.2418 126.501 23.4021C127.341 22.5435 127.761 21.4701 127.761 20.1821C127.761 18.894 127.341 17.8301 126.501 16.99C125.662 16.1314 124.607 15.7023 123.339 15.7023C122.07 15.7023 121.016 16.1314 120.176 16.99C119.337 17.8301 118.917 18.894 118.917 20.1821C118.917 21.4512 119.337 22.5246 120.176 23.4021Z" fill="#FFFF66"/>
<path id="Vector_3" d="M110.423 15.17V13.1821H113.445V27.182H110.423V25.1662C109.285 26.7529 107.652 27.5461 105.525 27.5461C103.603 27.5461 101.961 26.8369 100.599 25.418C99.2371 23.9994 98.5561 22.2543 98.5561 20.1821C98.5561 18.1099 99.2371 16.3647 100.599 14.9462C101.961 13.5276 103.603 12.818 105.525 12.818C107.652 12.818 109.285 13.6021 110.423 15.17ZM102.838 23.4021C103.678 24.2421 104.732 24.6618 106.001 24.6618C107.27 24.6618 108.324 24.2418 109.163 23.4021C110.003 22.5435 110.423 21.4701 110.423 20.1821C110.423 18.894 110.003 17.8301 109.163 16.99C108.324 16.1314 107.27 15.7023 106.001 15.7023C104.732 15.7023 103.678 16.1314 102.838 16.99C101.999 17.8301 101.579 18.894 101.579 20.1821C101.579 21.4512 101.999 22.5246 102.838 23.4021Z" fill="#FFFF66"/>
<path id="Vector_4" d="M155.199 23.3461L158.781 13.1825H162L156.626 27.6304C155.283 31.2516 153.006 32.9691 149.797 32.7824V29.9544C150.73 30.0104 151.486 29.8145 152.064 29.3661C152.643 28.9181 153.128 28.1994 153.52 27.2104L153.66 26.9306L147.726 13.1828H151.028L155.198 23.3465L155.199 23.3461Z" fill="#FFFF66"/>
<path id="Vector_5" d="M91.8813 12.818C93.4674 12.818 94.7451 13.3314 95.7156 14.3579C96.6857 15.3847 97.1709 16.7658 97.1709 18.5019V27.1816H94.1483V18.6978C94.1483 17.7458 93.9057 16.9991 93.4205 16.4577C92.9353 15.9163 92.2732 15.6456 91.4334 15.6456C90.4819 15.6456 89.7355 15.9584 89.1943 16.5834C88.6532 17.2087 88.3826 18.128 88.3826 19.3416V27.1813H85.36V18.6974C85.36 17.7265 85.1316 16.9755 84.6743 16.4432C84.2171 15.9112 83.5687 15.6452 82.729 15.6452C81.796 15.6452 81.0449 15.9624 80.4757 16.5972C79.9066 17.232 79.6222 18.1465 79.6222 19.3412V27.1809H76.5997V13.181H79.6222V14.8611C80.5179 13.4986 81.8519 12.8169 83.6243 12.8169C85.4156 12.8169 86.7402 13.5545 87.5988 15.029C88.513 13.5545 89.9403 12.8169 91.8809 12.8169L91.8813 12.818Z" fill="#FFFF66"/>
<path id="Vector_6" d="M49.8163 21.1279V27.182H46.7938V21.1279V19.1879C46.7938 15.6845 49.6591 12.818 53.161 12.818C56.663 12.818 59.5283 15.6845 59.5283 19.1879V21.1279V27.182H56.5057V21.1279V19.1879C56.5057 17.3475 55.0006 15.8418 53.161 15.8418C51.3214 15.8418 49.8163 17.3475 49.8163 19.1879V21.1279Z" fill="#FFFF66"/>
<path id="Vector_7" d="M71.1288 19.2362V13.1821H74.1514V19.2362V21.1762C74.1514 24.6796 71.2861 27.5461 67.7841 27.5461C64.2822 27.5461 61.4169 24.6796 61.4169 21.1762V19.2362V13.1821H64.4394V19.2362V21.1762C64.4394 23.0166 65.9445 24.5223 67.7841 24.5223C69.6237 24.5223 71.1288 23.0166 71.1288 21.1762V19.2362Z" fill="#FFFF66"/>
<path id="Vector_8" fill-rule="evenodd" clip-rule="evenodd" d="M13.2048 19.8391C15.0444 19.8391 16.5495 21.3448 16.5495 23.1852H19.572C19.572 19.6817 16.7068 16.8152 13.2048 16.8152C9.70285 16.8152 6.83757 19.6817 6.83757 23.1852H9.86012C9.86012 21.3448 11.3652 19.8391 13.2048 19.8391Z" fill="#FFFF66"/>
<path id="Vector_9" fill-rule="evenodd" clip-rule="evenodd" d="M25.7791 20.161C23.9395 20.161 22.4344 18.6553 22.4344 16.8149H19.4119C19.4119 20.3183 22.2771 23.1848 25.7791 23.1848C29.2811 23.1848 32.1463 20.3183 32.1463 16.8149H29.1238C29.1238 18.6553 27.6187 20.161 25.7791 20.161Z" fill="#FFFF66"/>
<path id="Vector_10" d="M19.4918 0.5C24.8744 0.5 29.7471 2.68265 33.2744 6.21153C36.8018 9.7404 38.9836 14.6155 38.9836 20C38.9836 25.3845 36.8018 30.2596 33.2744 33.7885C29.7471 37.3173 24.874 39.5 19.4918 39.5C14.1095 39.5 9.23651 37.3173 5.70912 33.7885C2.18174 30.2596 0 25.3845 0 20C0 14.6155 2.18174 9.7404 5.70912 6.21153C9.23651 2.68265 14.1095 0.5 19.4918 0.5ZM31.1472 8.33969C28.1642 5.35584 24.0438 3.51 19.4918 3.51C14.9402 3.51 10.8193 5.35584 7.83637 8.33969C4.85342 11.3239 3.00874 15.4461 3.00874 20C3.00874 24.5535 4.85378 28.6761 7.83637 31.6603C10.8193 34.6445 14.9398 36.49 19.4918 36.49C24.0438 36.49 28.1642 34.6442 31.1472 31.6603C34.1301 28.6765 35.9748 24.5539 35.9748 20C35.9748 15.4461 34.1298 11.3239 31.1472 8.33969Z" fill="#FFFF66"/>
</g>
</svg>
