<svg width="52" height="52" viewBox="0 0 52 52" fill="none" xmlns="http://www.w3.org/2000/svg">
<path d="M51.2218 32.2897C47.7488 46.2183 33.6398 54.695 19.708 51.2216C5.78193 47.749 -2.69579 33.6409 0.778831 19.7132C4.2502 5.78298 18.3592 -2.69455 32.2869 0.778039C46.2179 4.25063 54.6948 18.3604 51.2218 32.2897Z" fill="#F7931A"/>
<path d="M37.4647 22.2961C37.9823 18.8365 35.3479 16.9767 31.7457 15.7361L32.9142 11.0496L30.0612 10.3387L28.9236 14.9016C28.1736 14.7148 27.4032 14.5385 26.6378 14.3638L27.7835 9.77074L24.9322 9.05981L23.7628 13.7446C23.142 13.6033 22.5326 13.4635 21.941 13.3165L21.9443 13.3018L18.0097 12.3195L17.2508 15.3664C17.2508 15.3664 19.3676 15.8514 19.3229 15.8815C20.4784 16.1699 20.6872 16.9345 20.6523 17.5406L19.3212 22.8795C19.4009 22.8998 19.5041 22.9291 19.6179 22.9746C19.5228 22.951 19.4212 22.925 19.3164 22.8998L17.4507 30.3788C17.3093 30.7298 16.9509 31.2563 16.1432 31.0564C16.1717 31.0978 14.0695 30.5389 14.0695 30.5389L12.6532 33.8043L16.3659 34.7297C17.0566 34.9027 17.7334 35.0839 18.3998 35.2545L17.2191 39.9946L20.0688 40.7056L21.2381 36.0159C22.0166 36.2271 22.7723 36.4221 23.5118 36.6057L22.3465 41.2735L25.1995 41.9844L26.3802 37.2533C31.2451 38.1738 34.9034 37.8025 36.4433 33.4029C37.6841 29.8604 36.3815 27.817 33.8218 26.4845C35.6859 26.0547 37.0901 24.8287 37.4647 22.2961ZM30.9461 31.4358C30.0644 34.9783 24.0993 33.0633 22.1653 32.5831L23.732 26.3033C25.6659 26.7859 31.8676 27.7414 30.9461 31.4358ZM31.8286 22.2449C31.0241 25.4673 26.0592 23.8301 24.4487 23.4287L25.8691 17.7332C27.4796 18.1346 32.6663 18.8837 31.8286 22.2449Z" fill="white"/>
</svg>
