<svg width="52" height="52" viewBox="0 0 52 52" fill="none" xmlns="http://www.w3.org/2000/svg">
<rect width="52" height="52" fill="#BBBBBB"/>
<g id="NumaPay | Landing Page" clip-path="url(#clip0_2001_16934)">
<rect width="1600" height="9671" transform="translate(-1220 -3179)" fill="white"/>
<g id="How to">
<rect id="Rectangle 6133" x="-1220" y="-1518" width="1600" height="1702" fill="#0A0A0A"/>
<g id="Frame 2095585074">
<g id="Frame 2095585047">
<g id="Frame 48096524" filter="url(#filter0_d_2001_16934)">
<rect x="-12" y="-12" width="232" height="76" rx="38" fill="white" fill-opacity="0.01" shape-rendering="crispEdges"/>
<rect x="-11.5" y="-11.5" width="231" height="75" rx="37.5" stroke="#3C3C3C" shape-rendering="crispEdges"/>
<g id="cdnlogo.com_ethereum-eth 1">
<g clip-path="url(#clip1_2001_16934)">
<g id="Group">
<path id="Vector" d="M26 52C40.3594 52 52 40.3594 52 26C52 11.6406 40.3594 0 26 0C11.6406 0 0 11.6406 0 26C0 40.3594 11.6406 52 26 52Z" fill="#627EEA"/>
<g id="Group_2">
<path id="Vector_2" d="M26.8092 6.5V20.9137L38.9918 26.3575L26.8092 6.5Z" fill="white" fill-opacity="0.602"/>
<path id="Vector_3" d="M26.8092 6.5L14.625 26.3575L26.8092 20.9137V6.5Z" fill="white"/>
<path id="Vector_4" d="M26.8092 35.698V45.4919L39 28.626L26.8092 35.698Z" fill="white" fill-opacity="0.602"/>
<path id="Vector_5" d="M26.8092 45.4919V35.6964L14.625 28.626L26.8092 45.4919Z" fill="white"/>
<path id="Vector_6" d="M26.8092 33.4311L38.9918 26.3575L26.8092 20.917V33.4311Z" fill="white" fill-opacity="0.2"/>
<path id="Vector_7" d="M14.625 26.3575L26.8092 33.4311V20.917L14.625 26.3575Z" fill="white" fill-opacity="0.602"/>
</g>
</g>
</g>
</g>
</g>
</g>
</g>
</g>
</g>
<defs>
<filter id="filter0_d_2001_16934" x="-12" y="-12" width="232" height="80" filterUnits="userSpaceOnUse" color-interpolation-filters="sRGB">
<feFlood flood-opacity="0" result="BackgroundImageFix"/>
<feColorMatrix in="SourceAlpha" type="matrix" values="0 0 0 0 0 0 0 0 0 0 0 0 0 0 0 0 0 0 127 0" result="hardAlpha"/>
<feOffset dy="4"/>
<feComposite in2="hardAlpha" operator="out"/>
<feColorMatrix type="matrix" values="0 0 0 0 0.235294 0 0 0 0 0.235294 0 0 0 0 0.235294 0 0 0 1 0"/>
<feBlend mode="normal" in2="BackgroundImageFix" result="effect1_dropShadow_2001_16934"/>
<feBlend mode="normal" in="SourceGraphic" in2="effect1_dropShadow_2001_16934" result="shape"/>
</filter>
<clipPath id="clip0_2001_16934">
<rect width="1600" height="9671" fill="white" transform="translate(-1220 -3179)"/>
</clipPath>
<clipPath id="clip1_2001_16934">
<rect width="52" height="52" rx="26" fill="white"/>
</clipPath>
</defs>
</svg>
