<svg width="53" height="52" viewBox="0 0 53 52" fill="none" xmlns="http://www.w3.org/2000/svg">
<g id="tron 1">
<g clip-path="url(#clip0_2057_2281)">
<path id="Vector" d="M26.75 52C41.1094 52 52.75 40.3594 52.75 26C52.75 11.6406 41.1094 0 26.75 0C12.3906 0 0.75 11.6406 0.75 26C0.75 40.3594 12.3906 52 26.75 52Z" fill="#FE090A"/>
<path id="Vector_2" d="M43.8333 18.3024C42.3585 17.2709 40.7815 16.1712 39.2385 15.0801C39.2044 15.0545 39.1703 15.0289 39.1277 15.0034C38.9572 14.8755 38.7612 14.7391 38.5225 14.6624L38.5054 14.6538C34.3795 13.6565 30.1854 12.6335 26.1277 11.6447C22.4451 10.7496 18.771 9.8545 15.0884 8.95942C14.9946 8.93384 14.9008 8.90827 14.7985 8.8827C14.4661 8.78893 14.0825 8.68663 13.6733 8.73778C13.554 8.75483 13.4517 8.79745 13.3579 8.85712L13.2556 8.94237C13.0936 9.09581 13.0084 9.29188 12.9658 9.4027L12.9402 9.47089V9.86302L12.9572 9.9227C15.2844 16.444 17.6713 23.0591 19.973 29.4611C21.7461 34.3883 23.5874 39.4945 25.3861 44.507C25.4969 44.8479 25.8123 45.0696 26.2044 45.1037H26.2897C26.6562 45.1037 26.9802 44.9247 27.1422 44.6348L33.8936 34.7889C35.5389 32.3935 37.1841 29.9896 38.8294 27.5942C39.5028 26.6138 40.1762 25.625 40.8497 24.6447C41.9579 23.025 43.1002 21.3542 44.234 19.726L44.2936 19.6407V19.5384C44.3192 19.2401 44.3277 18.6263 43.8333 18.3024ZM35.9225 21.8912C34.3369 22.7181 32.7172 23.5706 31.089 24.4145C32.0353 23.4001 32.99 22.3771 33.9362 21.3627C35.1212 20.084 36.3572 18.7627 37.5677 17.467L37.5933 17.4414C37.6956 17.305 37.8235 17.1771 37.9599 17.0407C38.0536 16.947 38.1559 16.8532 38.2497 16.7424C38.8805 17.1771 39.5199 17.6204 40.1336 18.0552C40.5769 18.3706 41.0287 18.686 41.489 19.0014C39.6136 19.9561 37.7382 20.9365 35.9225 21.8912ZM31.8477 21.482C30.6287 22.8034 29.3671 24.1588 28.114 25.4971C25.6844 22.5476 23.2038 19.5555 20.7999 16.6656C19.7087 15.3529 18.609 14.0315 17.5179 12.7188L17.5094 12.7102C17.2622 12.4289 17.0235 12.122 16.7848 11.8322C16.6313 11.6361 16.4694 11.4486 16.3074 11.2525C17.2963 11.5083 18.2936 11.747 19.274 11.9771C20.1349 12.1817 21.03 12.3948 21.9081 12.6165C26.8523 13.8184 31.8051 15.0204 36.7494 16.2224C35.1041 17.9784 33.4503 19.7601 31.8477 21.482ZM27.5599 38.0965C27.6536 37.2014 27.7559 36.2807 27.8412 35.3771C27.9179 34.6525 27.9946 33.9109 28.0713 33.2034C28.1907 32.0696 28.3185 30.8932 28.4208 29.7424L28.4464 29.5378C28.5317 28.8047 28.6169 28.046 28.6681 27.2873C28.7618 27.2361 28.8641 27.185 28.9749 27.1424C29.1028 27.0827 29.2307 27.0315 29.3585 26.9548C31.3277 25.9234 33.2969 24.8919 35.2746 23.8689C37.2438 22.846 39.2641 21.7889 41.2674 20.7404C39.4431 23.383 37.6103 26.0512 35.8372 28.6512C34.3113 30.8761 32.7428 33.1693 31.1828 35.4283C30.569 36.3319 29.9297 37.2525 29.3244 38.1391C28.6425 39.1279 27.9435 40.1424 27.2615 41.1568C27.3467 40.1338 27.449 39.1024 27.5599 38.0965ZM15.6766 13.2643C15.5658 12.9575 15.4464 12.642 15.3441 12.3437C17.6458 15.1227 19.9644 17.9188 22.2235 20.6296C23.3913 22.0361 24.5592 23.4342 25.7271 24.8493C25.9572 25.1135 26.1874 25.3948 26.409 25.6676C26.6989 26.0171 26.9887 26.3837 27.3041 26.7332C27.2018 27.6112 27.1166 28.4978 27.0228 29.3502C26.9631 29.947 26.9035 30.5437 26.8353 31.1489V31.1574C26.8097 31.5411 26.7585 31.9247 26.7159 32.2997C26.6562 32.8197 26.5199 33.9961 26.5199 33.9961L26.5113 34.0558C26.3579 35.7778 26.1703 37.5168 25.9913 39.2047C25.9146 39.9037 25.8464 40.6197 25.7697 41.3358C25.7271 41.2079 25.6759 41.0801 25.6333 40.9607C25.5054 40.6197 25.3776 40.2617 25.2582 39.9122L24.3461 37.3804C21.4562 29.3417 18.5664 21.3115 15.6766 13.2643Z" fill="white"/>
</g>
</g>
<defs>
<clipPath id="clip0_2057_2281">
<rect x="0.75" width="52" height="52" rx="26" fill="white"/>
</clipPath>
</defs>
</svg>
