<svg width="53" height="52" viewBox="0 0 53 52" fill="none" xmlns="http://www.w3.org/2000/svg">
<rect x="2" y="2" width="49" height="48" rx="24" fill="white"/>
<path d="M26.25 0C40.6101 2.57674e-07 52.25 11.6399 52.25 26C52.25 40.3601 40.6101 52 26.25 52C11.8899 52 0.25 40.3601 0.25 26C0.25 11.6399 11.8899 0 26.25 0ZM22.1123 6.22266C21.8931 5.45579 21.0941 5.01146 20.3271 5.23047C11.326 7.80289 4.73452 16.0898 4.73438 25.9199C4.73455 35.8233 11.4241 44.1616 20.5293 46.667L20.9648 46.7812L21.1094 46.8105C21.8337 46.9174 22.5354 46.4594 22.7188 45.7344C22.9016 45.0095 22.5013 44.2745 21.8135 44.0244L21.6719 43.9805L21.2949 43.8809C13.4123 41.7114 7.62323 34.4898 7.62305 25.9199C7.6232 17.4136 13.327 10.2353 21.1211 8.00781C21.8876 7.78847 22.331 6.98934 22.1123 6.22266ZM32.4854 5.32227C31.7218 5.09142 30.9155 5.52361 30.6846 6.28711C30.4687 7.00267 30.8344 7.75553 31.5098 8.03711L31.6494 8.08691C39.3051 10.4016 44.8768 17.5123 44.877 25.9199C44.8768 34.4143 39.1895 41.5851 31.4121 43.8232C30.6457 44.0439 30.2024 44.8438 30.4229 45.6104C30.6436 46.3767 31.4445 46.8201 32.2109 46.5996C41.1928 44.0149 47.7654 35.7363 47.7656 25.9199C47.7655 16.3553 41.5255 8.25147 32.8975 5.45117L32.4854 5.32227ZM26.4297 13.418C25.7915 13.418 25.2735 13.9351 25.2734 14.5732V15.1221C21.4588 15.4166 18.8654 17.5924 18.8652 20.7666C18.8652 24.0882 20.9404 25.705 25.3955 26.8223V32.585C23.7793 32.3451 22.3866 31.7151 20.9854 30.7588C20.4471 30.3917 19.7066 30.4916 19.3223 31.0176L18.7363 31.8213C18.3668 32.3275 18.4654 33.0403 18.9902 33.3828C20.8753 34.613 23.0263 35.3892 25.2734 35.6426V37.4258C25.2734 38.064 25.7915 38.582 26.4297 38.582H26.7734C27.4114 38.5817 27.9287 38.0638 27.9287 37.4258V35.6719C31.8038 35.3484 34.4287 33.2013 34.4287 29.9678C34.4285 26.7936 32.4452 25.001 27.8066 23.8838V18.2969C28.8729 18.5158 29.905 18.9138 30.916 19.502C31.4957 19.8392 32.2563 19.6942 32.6094 19.124L33.1035 18.3252C33.4208 17.8122 33.2929 17.1357 32.7764 16.8242C31.3018 15.935 29.6485 15.3727 27.9287 15.1816V14.5732C27.9286 13.9353 27.4113 13.4183 26.7734 13.418H26.4297ZM27.8066 27.3809C30.1868 28.0577 30.827 28.8495 30.8271 30.1729C30.8271 31.5845 29.729 32.5549 27.8066 32.7021V27.3809ZM25.3945 23.2656C23.0455 22.59 22.4668 21.796 22.4668 20.5605C22.4669 19.2685 23.4732 18.2391 25.3955 18.0918L25.3945 23.2656Z" fill="#498DD5"/>
</svg>
